<?xml version="1.0" encoding="UTF-8" standalone="no"?>
<svg
   enable-background="new 0 0 24 24"
   id="Layer_1"
   version="1.1"
   viewBox="0 0 39.895457 53.193949"
   xml:space="preserve"
   sodipodi:docname="logo-light-mode.svg"
   width="39.895458"
   height="53.193947"
   inkscape:version="1.4.2 (f4327f4, 2025-05-13)"
   xmlns:inkscape="http://www.inkscape.org/namespaces/inkscape"
   xmlns:sodipodi="http://sodipodi.sourceforge.net/DTD/sodipodi-0.dtd"
   xmlns="http://www.w3.org/2000/svg"
   xmlns:svg="http://www.w3.org/2000/svg"><defs
     id="defs25" /><sodipodi:namedview
     id="namedview25"
     pagecolor="#ffffff"
     bordercolor="#000000"
     borderopacity="0.25"
     inkscape:showpageshadow="2"
     inkscape:pageopacity="0.0"
     inkscape:pagecheckerboard="0"
     inkscape:deskcolor="#d1d1d1"
     inkscape:zoom="1.954918"
     inkscape:cx="213.81971"
     inkscape:cy="40.666667"
     inkscape:window-width="3840"
     inkscape:window-height="2054"
     inkscape:window-x="-11"
     inkscape:window-y="-11"
     inkscape:window-maximized="1"
     inkscape:current-layer="Layer_1" /><g
     id="g10"
     transform="matrix(2.2164144,0,0,2.2164144,-6.6492432,0)"><path
       d="M 12,0 C 6.8911133,0 3,10 3,15.004395 3,19.964355 7.0375977,24 12,24 16.962402,24 21,19.964355 21,15.004395 21,10 17.108887,0 12,0 Z"
       fill="#303c42"
       id="path1" /><path
       d="M 6.2749023,6.4512329 7.243164,6.0424805 9.4208984,6.9609375 c 0.1240234,0.051758 0.2641602,0.051758 0.3881836,0 l 2.181152,-0.918457 2.181153,0.918457 C 14.233398,6.9868164 14.299316,7 14.365234,7 14.431154,7 14.49707,6.986816 14.559082,6.960937 l 2.181641,-0.918457 0.987365,0.414978 c 0.889588,1.8167725 1.58014,3.880127 1.954895,5.763856 L 19.120605,12.45752 16.93457,11.539063 c -0.124023,-0.05176 -0.263672,-0.05176 -0.387695,0 l -2.181641,0.918457 -2.181152,-0.918457 c -0.124023,-0.05176 -0.263672,-0.05176 -0.387695,0 L 9.6152345,12.45752 7.4374977,11.539063 c -0.1240211,-0.05176 -0.2646461,-0.05225 -0.3886695,4.88e-4 L 4.8740235,12.45752 4.3168336,12.222595 C 4.6919556,10.336426 5.383667,8.2698364 6.2749023,6.4512329 Z"
       fill="#ffffff"
       id="path2" /><path
       d="m 12,1 c 1.65564,0 3.434265,1.4665527 4.976623,4.0567627 l -0.04205,-0.0177 c -0.124023,-0.051758 -0.263672,-0.051758 -0.387695,0 l -2.181641,0.918457 -2.181152,-0.918457 c -0.124023,-0.051758 -0.263672,-0.051758 -0.387695,0 L 9.6152345,5.9575195 7.4374977,5.0390625 C 7.3134766,4.9873047 7.1728516,4.9868164 7.0488281,5.0395508 l -0.020813,0.00879 C 8.5692749,2.4631348 10.346069,1 12,1 Z"
       fill="#e82c2a"
       id="path3" /><path
       d="M 12,23 C 9.366272,23 7.0328369,21.715759 5.5742188,19.746948 l 1.6689453,-0.704468 2.1777344,0.918457 c 0.1240234,0.05176 0.2641602,0.05176 0.3881836,0 l 2.1811519,-0.918457 2.181153,0.918457 C 14.233398,19.986816 14.299316,20 14.365234,20 c 0.06592,0 0.131836,-0.01318 0.193848,-0.03906 l 2.181641,-0.918457 1.683044,0.707154 C 16.965027,21.716919 14.632507,23 12,23 Z"
       fill="#ffffff"
       id="path4" /><path
       d="M 18.980469,18.898743 16.93457,18.039062 c -0.124023,-0.05176 -0.263671,-0.05176 -0.387695,0 l -2.18164,0.918457 -2.181153,-0.918457 c -0.124023,-0.05176 -0.263672,-0.05176 -0.387695,0 L 9.6152346,18.957519 7.4374978,18.039062 c -0.1240211,-0.05176 -0.2646461,-0.05225 -0.3886695,4.89e-4 L 5.0182497,18.896667 C 4.3720703,17.743591 4,16.417297 4,15.004395 4,14.462768 4.0546265,13.862244 4.1430664,13.234863 l 0.5366211,0.226075 c 0.125,0.05176 0.2646484,0.05225 0.3886719,-4.89e-4 l 2.1748047,-0.917969 2.1777344,0.918457 c 0.1240234,0.05176 0.2641602,0.05176 0.3881836,0 l 2.1811519,-0.918457 2.181153,0.918457 c 0.06201,0.02588 0.127929,0.03906 0.193847,0.03906 0.06592,0 0.131836,-0.01318 0.193848,-0.03906 l 2.181641,-0.918457 2.186035,0.918457 c 0.124023,0.05176 0.263672,0.05176 0.387695,0 l 0.542298,-0.227845 C 19.945373,13.861145 20,14.46228 20,15.004395 c 0,1.413818 -0.37262,2.740783 -1.019531,3.894348 z"
       fill="#e82c2a"
       id="path5" /><path
       d="m 19.120605,12.45752 0.562378,-0.236207 C 19.308227,10.337585 18.617676,8.2742309 17.728088,6.4574584 l -0.987365,-0.414978 -0.293396,0.1235352 c 0.795105,2.0097046 1.330261,4.0999754 1.494568,5.7962644 z"
       opacity="0.1"
       id="path6" /><path
       d="m 16.546875,5.0390625 c 0.124023,-0.051758 0.263672,-0.051758 0.387695,0 l 0.04205,0.0177 c -0.91803,-1.541748 -1.920044,-2.6741333 -2.929749,-3.3473511 0.757752,1.017395 1.441345,2.2345581 2.016785,3.5330811 z"
       opacity="0.1"
       id="path7" /><path
       d="m 5.6593628,19.710998 -0.085144,0.03595 C 7.0328369,21.715759 9.366272,23 12,23 c 2.632507,0 4.965027,-1.283081 6.423767,-3.250366 L 16.740723,19.04248 14.559082,19.960937 C 14.49707,19.986816 14.431152,20 14.365234,20 14.299314,20 14.233399,19.98682 14.171387,19.96094 L 14.028503,19.90076 C 12.843628,20.59491 11.469727,21 10,21 8.3997803,21 6.9111328,20.523071 5.6593628,19.710998 Z"
       opacity="0.1"
       id="path8" /><path
       d="m 16.546875,18.039062 c 0.124023,-0.05176 0.263672,-0.05176 0.387695,0 l 2.045899,0.859681 C 19.62738,17.745178 20,16.418213 20,15.004395 20,14.46228 19.94537,13.861145 19.85675,13.233093 l -0.542297,0.227844 c -0.124023,0.05176 -0.263672,0.05176 -0.387695,0 L 17.996643,13.07019 c -0.0163,1.989258 -0.76593,3.803223 -1.987854,5.195435 z"
       opacity="0.1"
       id="path9" /><linearGradient
       gradientUnits="userSpaceOnUse"
       id="SVGID_1_"
       x1="4.1758218"
       x2="21.209564"
       y1="8.6041164"
       y2="16.547081"><stop
         offset="0"
         style="stop-color:#FFFFFF;stop-opacity:0.2"
         id="stop9" /><stop
         offset="1"
         style="stop-color:#FFFFFF;stop-opacity:0"
         id="stop10" /></linearGradient><path
       d="M 12,0 C 6.8911133,0 3,10 3,15.004395 3,19.964355 7.0375977,24 12,24 16.962402,24 21,19.964355 21,15.004395 21,10 17.108887,0 12,0 Z"
       fill="url(#SVGID_1_)"
       id="path10"
       style="fill:url(#SVGID_1_)" /></g><g
     id="g11"
     transform="translate(42.076211,14.596972)" /><g
     id="g12"
     transform="translate(42.076211,14.596972)" /><g
     id="g13"
     transform="translate(42.076211,14.596972)" /><g
     id="g14"
     transform="translate(42.076211,14.596972)" /><g
     id="g15"
     transform="translate(42.076211,14.596972)" /><g
     id="g16"
     transform="translate(42.076211,14.596972)" /><g
     id="g17"
     transform="translate(42.076211,14.596972)" /><g
     id="g18"
     transform="translate(42.076211,14.596972)" /><g
     id="g19"
     transform="translate(42.076211,14.596972)" /><g
     id="g20"
     transform="translate(42.076211,14.596972)" /><g
     id="g21"
     transform="translate(42.076211,14.596972)" /><g
     id="g22"
     transform="translate(42.076211,14.596972)" /><g
     id="g23"
     transform="translate(42.076211,14.596972)" /><g
     id="g24"
     transform="translate(42.076211,14.596972)" /><g
     id="g25"
     transform="translate(42.076211,14.596972)" /></svg>
