<?xml version="1.0" encoding="utf-8" standalone="no"?>
<!DOCTYPE svg PUBLIC "-//W3C//DTD SVG 1.1//EN"
  "http://www.w3.org/Graphics/SVG/1.1/DTD/svg11.dtd">
<svg xmlns:xlink="http://www.w3.org/1999/xlink" width="339.012557pt" height="327.763125pt" viewBox="0 0 339.012557 327.763125" xmlns="http://www.w3.org/2000/svg" version="1.1">
 <metadata>
  <rdf:RDF xmlns:dc="http://purl.org/dc/elements/1.1/" xmlns:cc="http://creativecommons.org/ns#" xmlns:rdf="http://www.w3.org/1999/02/22-rdf-syntax-ns#">
   <cc:Work>
    <dc:type rdf:resource="http://purl.org/dc/dcmitype/StillImage"/>
    <dc:date>2025-07-16T20:54:23.487626</dc:date>
    <dc:format>image/svg+xml</dc:format>
    <dc:creator>
     <cc:Agent>
      <dc:title>Matplotlib v3.10.3, https://matplotlib.org/</dc:title>
     </cc:Agent>
    </dc:creator>
   </cc:Work>
  </rdf:RDF>
 </metadata>
 <defs>
  <style type="text/css">*{stroke-linejoin: round; stroke-linecap: butt}</style>
 </defs>
 <g id="figure_1">
  <g id="patch_1">
   <path d="M 0 327.763125 
L 339.012557 327.763125 
L 339.012557 0 
L 0 0 
z
" style="fill: #ffffff"/>
  </g>
  <g id="axes_1">
   <g id="patch_2">
    <path d="M 49.588125 284.4 
L 328.588125 284.4 
L 328.588125 7.2 
L 49.588125 7.2 
z
" style="fill: #ffffff"/>
   </g>
   <g id="matplotlib.axis_1">
    <g id="xtick_1">
     <g id="line2d_1">
      <path d="M 55.766447 284.4 
L 55.766447 7.2 
" clip-path="url(#pede6adcda6)" style="fill: none; stroke-dasharray: 3.7,1.6; stroke-dashoffset: 0; stroke: #b0b0b0"/>
     </g>
     <g id="line2d_2">
      <defs>
       <path id="mfc7f8b5230" d="M 0 0 
L 0 3.5 
" style="stroke: #000000; stroke-width: 0.8"/>
      </defs>
      <g>
       <use xlink:href="#mfc7f8b5230" x="55.766447" y="284.4" style="stroke: #000000; stroke-width: 0.8"/>
      </g>
     </g>
     <g id="text_1">
      <!-- 0 -->
      <g transform="translate(52.585197 298.998438) scale(0.1 -0.1)">
       <defs>
        <path id="DejaVuSans-30" d="M 2034 4250 
Q 1547 4250 1301 3770 
Q 1056 3291 1056 2328 
Q 1056 1369 1301 889 
Q 1547 409 2034 409 
Q 2525 409 2770 889 
Q 3016 1369 3016 2328 
Q 3016 3291 2770 3770 
Q 2525 4250 2034 4250 
z
M 2034 4750 
Q 2819 4750 3233 4129 
Q 3647 3509 3647 2328 
Q 3647 1150 3233 529 
Q 2819 -91 2034 -91 
Q 1250 -91 836 529 
Q 422 1150 422 2328 
Q 422 3509 836 4129 
Q 1250 4750 2034 4750 
z
" transform="scale(0.015625)"/>
       </defs>
       <use xlink:href="#DejaVuSans-30"/>
      </g>
     </g>
    </g>
    <g id="xtick_2">
     <g id="line2d_3">
      <path d="M 88.283929 284.4 
L 88.283929 7.2 
" clip-path="url(#pede6adcda6)" style="fill: none; stroke-dasharray: 3.7,1.6; stroke-dashoffset: 0; stroke: #b0b0b0"/>
     </g>
     <g id="line2d_4">
      <g>
       <use xlink:href="#mfc7f8b5230" x="88.283929" y="284.4" style="stroke: #000000; stroke-width: 0.8"/>
      </g>
     </g>
     <g id="text_2">
      <!-- 5000 -->
      <g transform="translate(75.558929 298.998438) scale(0.1 -0.1)">
       <defs>
        <path id="DejaVuSans-35" d="M 691 4666 
L 3169 4666 
L 3169 4134 
L 1269 4134 
L 1269 2991 
Q 1406 3038 1543 3061 
Q 1681 3084 1819 3084 
Q 2600 3084 3056 2656 
Q 3513 2228 3513 1497 
Q 3513 744 3044 326 
Q 2575 -91 1722 -91 
Q 1428 -91 1123 -41 
Q 819 9 494 109 
L 494 744 
Q 775 591 1075 516 
Q 1375 441 1709 441 
Q 2250 441 2565 725 
Q 2881 1009 2881 1497 
Q 2881 1984 2565 2268 
Q 2250 2553 1709 2553 
Q 1456 2553 1204 2497 
Q 953 2441 691 2322 
L 691 4666 
z
" transform="scale(0.015625)"/>
       </defs>
       <use xlink:href="#DejaVuSans-35"/>
       <use xlink:href="#DejaVuSans-30" transform="translate(63.623047 0)"/>
       <use xlink:href="#DejaVuSans-30" transform="translate(127.246094 0)"/>
       <use xlink:href="#DejaVuSans-30" transform="translate(190.869141 0)"/>
      </g>
     </g>
    </g>
    <g id="xtick_3">
     <g id="line2d_5">
      <path d="M 120.801412 284.4 
L 120.801412 7.2 
" clip-path="url(#pede6adcda6)" style="fill: none; stroke-dasharray: 3.7,1.6; stroke-dashoffset: 0; stroke: #b0b0b0"/>
     </g>
     <g id="line2d_6">
      <g>
       <use xlink:href="#mfc7f8b5230" x="120.801412" y="284.4" style="stroke: #000000; stroke-width: 0.8"/>
      </g>
     </g>
     <g id="text_3">
      <!-- 10000 -->
      <g transform="translate(104.895162 298.998438) scale(0.1 -0.1)">
       <defs>
        <path id="DejaVuSans-31" d="M 794 531 
L 1825 531 
L 1825 4091 
L 703 3866 
L 703 4441 
L 1819 4666 
L 2450 4666 
L 2450 531 
L 3481 531 
L 3481 0 
L 794 0 
L 794 531 
z
" transform="scale(0.015625)"/>
       </defs>
       <use xlink:href="#DejaVuSans-31"/>
       <use xlink:href="#DejaVuSans-30" transform="translate(63.623047 0)"/>
       <use xlink:href="#DejaVuSans-30" transform="translate(127.246094 0)"/>
       <use xlink:href="#DejaVuSans-30" transform="translate(190.869141 0)"/>
       <use xlink:href="#DejaVuSans-30" transform="translate(254.492188 0)"/>
      </g>
     </g>
    </g>
    <g id="xtick_4">
     <g id="line2d_7">
      <path d="M 153.318894 284.4 
L 153.318894 7.2 
" clip-path="url(#pede6adcda6)" style="fill: none; stroke-dasharray: 3.7,1.6; stroke-dashoffset: 0; stroke: #b0b0b0"/>
     </g>
     <g id="line2d_8">
      <g>
       <use xlink:href="#mfc7f8b5230" x="153.318894" y="284.4" style="stroke: #000000; stroke-width: 0.8"/>
      </g>
     </g>
     <g id="text_4">
      <!-- 15000 -->
      <g transform="translate(137.412644 298.998438) scale(0.1 -0.1)">
       <use xlink:href="#DejaVuSans-31"/>
       <use xlink:href="#DejaVuSans-35" transform="translate(63.623047 0)"/>
       <use xlink:href="#DejaVuSans-30" transform="translate(127.246094 0)"/>
       <use xlink:href="#DejaVuSans-30" transform="translate(190.869141 0)"/>
       <use xlink:href="#DejaVuSans-30" transform="translate(254.492188 0)"/>
      </g>
     </g>
    </g>
    <g id="xtick_5">
     <g id="line2d_9">
      <path d="M 185.836377 284.4 
L 185.836377 7.2 
" clip-path="url(#pede6adcda6)" style="fill: none; stroke-dasharray: 3.7,1.6; stroke-dashoffset: 0; stroke: #b0b0b0"/>
     </g>
     <g id="line2d_10">
      <g>
       <use xlink:href="#mfc7f8b5230" x="185.836377" y="284.4" style="stroke: #000000; stroke-width: 0.8"/>
      </g>
     </g>
     <g id="text_5">
      <!-- 20000 -->
      <g transform="translate(169.930127 298.998438) scale(0.1 -0.1)">
       <defs>
        <path id="DejaVuSans-32" d="M 1228 531 
L 3431 531 
L 3431 0 
L 469 0 
L 469 531 
Q 828 903 1448 1529 
Q 2069 2156 2228 2338 
Q 2531 2678 2651 2914 
Q 2772 3150 2772 3378 
Q 2772 3750 2511 3984 
Q 2250 4219 1831 4219 
Q 1534 4219 1204 4116 
Q 875 4013 500 3803 
L 500 4441 
Q 881 4594 1212 4672 
Q 1544 4750 1819 4750 
Q 2544 4750 2975 4387 
Q 3406 4025 3406 3419 
Q 3406 3131 3298 2873 
Q 3191 2616 2906 2266 
Q 2828 2175 2409 1742 
Q 1991 1309 1228 531 
z
" transform="scale(0.015625)"/>
       </defs>
       <use xlink:href="#DejaVuSans-32"/>
       <use xlink:href="#DejaVuSans-30" transform="translate(63.623047 0)"/>
       <use xlink:href="#DejaVuSans-30" transform="translate(127.246094 0)"/>
       <use xlink:href="#DejaVuSans-30" transform="translate(190.869141 0)"/>
       <use xlink:href="#DejaVuSans-30" transform="translate(254.492188 0)"/>
      </g>
     </g>
    </g>
    <g id="xtick_6">
     <g id="line2d_11">
      <path d="M 218.353859 284.4 
L 218.353859 7.2 
" clip-path="url(#pede6adcda6)" style="fill: none; stroke-dasharray: 3.7,1.6; stroke-dashoffset: 0; stroke: #b0b0b0"/>
     </g>
     <g id="line2d_12">
      <g>
       <use xlink:href="#mfc7f8b5230" x="218.353859" y="284.4" style="stroke: #000000; stroke-width: 0.8"/>
      </g>
     </g>
     <g id="text_6">
      <!-- 25000 -->
      <g transform="translate(202.447609 298.998438) scale(0.1 -0.1)">
       <use xlink:href="#DejaVuSans-32"/>
       <use xlink:href="#DejaVuSans-35" transform="translate(63.623047 0)"/>
       <use xlink:href="#DejaVuSans-30" transform="translate(127.246094 0)"/>
       <use xlink:href="#DejaVuSans-30" transform="translate(190.869141 0)"/>
       <use xlink:href="#DejaVuSans-30" transform="translate(254.492188 0)"/>
      </g>
     </g>
    </g>
    <g id="xtick_7">
     <g id="line2d_13">
      <path d="M 250.871342 284.4 
L 250.871342 7.2 
" clip-path="url(#pede6adcda6)" style="fill: none; stroke-dasharray: 3.7,1.6; stroke-dashoffset: 0; stroke: #b0b0b0"/>
     </g>
     <g id="line2d_14">
      <g>
       <use xlink:href="#mfc7f8b5230" x="250.871342" y="284.4" style="stroke: #000000; stroke-width: 0.8"/>
      </g>
     </g>
     <g id="text_7">
      <!-- 30000 -->
      <g transform="translate(234.965092 298.998438) scale(0.1 -0.1)">
       <defs>
        <path id="DejaVuSans-33" d="M 2597 2516 
Q 3050 2419 3304 2112 
Q 3559 1806 3559 1356 
Q 3559 666 3084 287 
Q 2609 -91 1734 -91 
Q 1441 -91 1130 -33 
Q 819 25 488 141 
L 488 750 
Q 750 597 1062 519 
Q 1375 441 1716 441 
Q 2309 441 2620 675 
Q 2931 909 2931 1356 
Q 2931 1769 2642 2001 
Q 2353 2234 1838 2234 
L 1294 2234 
L 1294 2753 
L 1863 2753 
Q 2328 2753 2575 2939 
Q 2822 3125 2822 3475 
Q 2822 3834 2567 4026 
Q 2313 4219 1838 4219 
Q 1578 4219 1281 4162 
Q 984 4106 628 3988 
L 628 4550 
Q 988 4650 1302 4700 
Q 1616 4750 1894 4750 
Q 2613 4750 3031 4423 
Q 3450 4097 3450 3541 
Q 3450 3153 3228 2886 
Q 3006 2619 2597 2516 
z
" transform="scale(0.015625)"/>
       </defs>
       <use xlink:href="#DejaVuSans-33"/>
       <use xlink:href="#DejaVuSans-30" transform="translate(63.623047 0)"/>
       <use xlink:href="#DejaVuSans-30" transform="translate(127.246094 0)"/>
       <use xlink:href="#DejaVuSans-30" transform="translate(190.869141 0)"/>
       <use xlink:href="#DejaVuSans-30" transform="translate(254.492188 0)"/>
      </g>
     </g>
    </g>
    <g id="xtick_8">
     <g id="line2d_15">
      <path d="M 283.388824 284.4 
L 283.388824 7.2 
" clip-path="url(#pede6adcda6)" style="fill: none; stroke-dasharray: 3.7,1.6; stroke-dashoffset: 0; stroke: #b0b0b0"/>
     </g>
     <g id="line2d_16">
      <g>
       <use xlink:href="#mfc7f8b5230" x="283.388824" y="284.4" style="stroke: #000000; stroke-width: 0.8"/>
      </g>
     </g>
     <g id="text_8">
      <!-- 35000 -->
      <g transform="translate(267.482574 298.998438) scale(0.1 -0.1)">
       <use xlink:href="#DejaVuSans-33"/>
       <use xlink:href="#DejaVuSans-35" transform="translate(63.623047 0)"/>
       <use xlink:href="#DejaVuSans-30" transform="translate(127.246094 0)"/>
       <use xlink:href="#DejaVuSans-30" transform="translate(190.869141 0)"/>
       <use xlink:href="#DejaVuSans-30" transform="translate(254.492188 0)"/>
      </g>
     </g>
    </g>
    <g id="xtick_9">
     <g id="line2d_17">
      <path d="M 315.906307 284.4 
L 315.906307 7.2 
" clip-path="url(#pede6adcda6)" style="fill: none; stroke-dasharray: 3.7,1.6; stroke-dashoffset: 0; stroke: #b0b0b0"/>
     </g>
     <g id="line2d_18">
      <g>
       <use xlink:href="#mfc7f8b5230" x="315.906307" y="284.4" style="stroke: #000000; stroke-width: 0.8"/>
      </g>
     </g>
     <g id="text_9">
      <!-- 40000 -->
      <g transform="translate(300.000057 298.998438) scale(0.1 -0.1)">
       <defs>
        <path id="DejaVuSans-34" d="M 2419 4116 
L 825 1625 
L 2419 1625 
L 2419 4116 
z
M 2253 4666 
L 3047 4666 
L 3047 1625 
L 3713 1625 
L 3713 1100 
L 3047 1100 
L 3047 0 
L 2419 0 
L 2419 1100 
L 313 1100 
L 313 1709 
L 2253 4666 
z
" transform="scale(0.015625)"/>
       </defs>
       <use xlink:href="#DejaVuSans-34"/>
       <use xlink:href="#DejaVuSans-30" transform="translate(63.623047 0)"/>
       <use xlink:href="#DejaVuSans-30" transform="translate(127.246094 0)"/>
       <use xlink:href="#DejaVuSans-30" transform="translate(190.869141 0)"/>
       <use xlink:href="#DejaVuSans-30" transform="translate(254.492188 0)"/>
      </g>
     </g>
    </g>
    <g id="text_10">
     <!-- Blob size (Bytes) -->
     <g transform="translate(122.114375 317.235625) scale(0.16 -0.16)">
      <defs>
       <path id="DejaVuSans-42" d="M 1259 2228 
L 1259 519 
L 2272 519 
Q 2781 519 3026 730 
Q 3272 941 3272 1375 
Q 3272 1813 3026 2020 
Q 2781 2228 2272 2228 
L 1259 2228 
z
M 1259 4147 
L 1259 2741 
L 2194 2741 
Q 2656 2741 2882 2914 
Q 3109 3088 3109 3444 
Q 3109 3797 2882 3972 
Q 2656 4147 2194 4147 
L 1259 4147 
z
M 628 4666 
L 2241 4666 
Q 2963 4666 3353 4366 
Q 3744 4066 3744 3513 
Q 3744 3084 3544 2831 
Q 3344 2578 2956 2516 
Q 3422 2416 3680 2098 
Q 3938 1781 3938 1306 
Q 3938 681 3513 340 
Q 3088 0 2303 0 
L 628 0 
L 628 4666 
z
" transform="scale(0.015625)"/>
       <path id="DejaVuSans-6c" d="M 603 4863 
L 1178 4863 
L 1178 0 
L 603 0 
L 603 4863 
z
" transform="scale(0.015625)"/>
       <path id="DejaVuSans-6f" d="M 1959 3097 
Q 1497 3097 1228 2736 
Q 959 2375 959 1747 
Q 959 1119 1226 758 
Q 1494 397 1959 397 
Q 2419 397 2687 759 
Q 2956 1122 2956 1747 
Q 2956 2369 2687 2733 
Q 2419 3097 1959 3097 
z
M 1959 3584 
Q 2709 3584 3137 3096 
Q 3566 2609 3566 1747 
Q 3566 888 3137 398 
Q 2709 -91 1959 -91 
Q 1206 -91 779 398 
Q 353 888 353 1747 
Q 353 2609 779 3096 
Q 1206 3584 1959 3584 
z
" transform="scale(0.015625)"/>
       <path id="DejaVuSans-62" d="M 3116 1747 
Q 3116 2381 2855 2742 
Q 2594 3103 2138 3103 
Q 1681 3103 1420 2742 
Q 1159 2381 1159 1747 
Q 1159 1113 1420 752 
Q 1681 391 2138 391 
Q 2594 391 2855 752 
Q 3116 1113 3116 1747 
z
M 1159 2969 
Q 1341 3281 1617 3432 
Q 1894 3584 2278 3584 
Q 2916 3584 3314 3078 
Q 3713 2572 3713 1747 
Q 3713 922 3314 415 
Q 2916 -91 2278 -91 
Q 1894 -91 1617 61 
Q 1341 213 1159 525 
L 1159 0 
L 581 0 
L 581 4863 
L 1159 4863 
L 1159 2969 
z
" transform="scale(0.015625)"/>
       <path id="DejaVuSans-20" transform="scale(0.015625)"/>
       <path id="DejaVuSans-73" d="M 2834 3397 
L 2834 2853 
Q 2591 2978 2328 3040 
Q 2066 3103 1784 3103 
Q 1356 3103 1142 2972 
Q 928 2841 928 2578 
Q 928 2378 1081 2264 
Q 1234 2150 1697 2047 
L 1894 2003 
Q 2506 1872 2764 1633 
Q 3022 1394 3022 966 
Q 3022 478 2636 193 
Q 2250 -91 1575 -91 
Q 1294 -91 989 -36 
Q 684 19 347 128 
L 347 722 
Q 666 556 975 473 
Q 1284 391 1588 391 
Q 1994 391 2212 530 
Q 2431 669 2431 922 
Q 2431 1156 2273 1281 
Q 2116 1406 1581 1522 
L 1381 1569 
Q 847 1681 609 1914 
Q 372 2147 372 2553 
Q 372 3047 722 3315 
Q 1072 3584 1716 3584 
Q 2034 3584 2315 3537 
Q 2597 3491 2834 3397 
z
" transform="scale(0.015625)"/>
       <path id="DejaVuSans-69" d="M 603 3500 
L 1178 3500 
L 1178 0 
L 603 0 
L 603 3500 
z
M 603 4863 
L 1178 4863 
L 1178 4134 
L 603 4134 
L 603 4863 
z
" transform="scale(0.015625)"/>
       <path id="DejaVuSans-7a" d="M 353 3500 
L 3084 3500 
L 3084 2975 
L 922 459 
L 3084 459 
L 3084 0 
L 275 0 
L 275 525 
L 2438 3041 
L 353 3041 
L 353 3500 
z
" transform="scale(0.015625)"/>
       <path id="DejaVuSans-65" d="M 3597 1894 
L 3597 1613 
L 953 1613 
Q 991 1019 1311 708 
Q 1631 397 2203 397 
Q 2534 397 2845 478 
Q 3156 559 3463 722 
L 3463 178 
Q 3153 47 2828 -22 
Q 2503 -91 2169 -91 
Q 1331 -91 842 396 
Q 353 884 353 1716 
Q 353 2575 817 3079 
Q 1281 3584 2069 3584 
Q 2775 3584 3186 3129 
Q 3597 2675 3597 1894 
z
M 3022 2063 
Q 3016 2534 2758 2815 
Q 2500 3097 2075 3097 
Q 1594 3097 1305 2825 
Q 1016 2553 972 2059 
L 3022 2063 
z
" transform="scale(0.015625)"/>
       <path id="DejaVuSans-28" d="M 1984 4856 
Q 1566 4138 1362 3434 
Q 1159 2731 1159 2009 
Q 1159 1288 1364 580 
Q 1569 -128 1984 -844 
L 1484 -844 
Q 1016 -109 783 600 
Q 550 1309 550 2009 
Q 550 2706 781 3412 
Q 1013 4119 1484 4856 
L 1984 4856 
z
" transform="scale(0.015625)"/>
       <path id="DejaVuSans-79" d="M 2059 -325 
Q 1816 -950 1584 -1140 
Q 1353 -1331 966 -1331 
L 506 -1331 
L 506 -850 
L 844 -850 
Q 1081 -850 1212 -737 
Q 1344 -625 1503 -206 
L 1606 56 
L 191 3500 
L 800 3500 
L 1894 763 
L 2988 3500 
L 3597 3500 
L 2059 -325 
z
" transform="scale(0.015625)"/>
       <path id="DejaVuSans-74" d="M 1172 4494 
L 1172 3500 
L 2356 3500 
L 2356 3053 
L 1172 3053 
L 1172 1153 
Q 1172 725 1289 603 
Q 1406 481 1766 481 
L 2356 481 
L 2356 0 
L 1766 0 
Q 1100 0 847 248 
Q 594 497 594 1153 
L 594 3053 
L 172 3053 
L 172 3500 
L 594 3500 
L 594 4494 
L 1172 4494 
z
" transform="scale(0.015625)"/>
       <path id="DejaVuSans-29" d="M 513 4856 
L 1013 4856 
Q 1481 4119 1714 3412 
Q 1947 2706 1947 2009 
Q 1947 1309 1714 600 
Q 1481 -109 1013 -844 
L 513 -844 
Q 928 -128 1133 580 
Q 1338 1288 1338 2009 
Q 1338 2731 1133 3434 
Q 928 4138 513 4856 
z
" transform="scale(0.015625)"/>
      </defs>
      <use xlink:href="#DejaVuSans-42"/>
      <use xlink:href="#DejaVuSans-6c" transform="translate(68.603516 0)"/>
      <use xlink:href="#DejaVuSans-6f" transform="translate(96.386719 0)"/>
      <use xlink:href="#DejaVuSans-62" transform="translate(157.568359 0)"/>
      <use xlink:href="#DejaVuSans-20" transform="translate(221.044922 0)"/>
      <use xlink:href="#DejaVuSans-73" transform="translate(252.832031 0)"/>
      <use xlink:href="#DejaVuSans-69" transform="translate(304.931641 0)"/>
      <use xlink:href="#DejaVuSans-7a" transform="translate(332.714844 0)"/>
      <use xlink:href="#DejaVuSans-65" transform="translate(385.205078 0)"/>
      <use xlink:href="#DejaVuSans-20" transform="translate(446.728516 0)"/>
      <use xlink:href="#DejaVuSans-28" transform="translate(478.515625 0)"/>
      <use xlink:href="#DejaVuSans-42" transform="translate(517.529297 0)"/>
      <use xlink:href="#DejaVuSans-79" transform="translate(586.132812 0)"/>
      <use xlink:href="#DejaVuSans-74" transform="translate(645.3125 0)"/>
      <use xlink:href="#DejaVuSans-65" transform="translate(684.521484 0)"/>
      <use xlink:href="#DejaVuSans-73" transform="translate(746.044922 0)"/>
      <use xlink:href="#DejaVuSans-29" transform="translate(798.144531 0)"/>
     </g>
    </g>
   </g>
   <g id="matplotlib.axis_2">
    <g id="ytick_1">
     <g id="line2d_19">
      <path d="M 49.588125 278.717899 
L 328.588125 278.717899 
" clip-path="url(#pede6adcda6)" style="fill: none; stroke-dasharray: 3.7,1.6; stroke-dashoffset: 0; stroke: #b0b0b0"/>
     </g>
     <g id="line2d_20">
      <defs>
       <path id="m992388be06" d="M 0 0 
L -3.5 0 
" style="stroke: #000000; stroke-width: 0.8"/>
      </defs>
      <g>
       <use xlink:href="#m992388be06" x="49.588125" y="278.717899" style="stroke: #000000; stroke-width: 0.8"/>
      </g>
     </g>
     <g id="text_11">
      <!-- 1.0 -->
      <g transform="translate(26.685 282.517118) scale(0.1 -0.1)">
       <defs>
        <path id="DejaVuSans-2e" d="M 684 794 
L 1344 794 
L 1344 0 
L 684 0 
L 684 794 
z
" transform="scale(0.015625)"/>
       </defs>
       <use xlink:href="#DejaVuSans-31"/>
       <use xlink:href="#DejaVuSans-2e" transform="translate(63.623047 0)"/>
       <use xlink:href="#DejaVuSans-30" transform="translate(95.410156 0)"/>
      </g>
     </g>
    </g>
    <g id="ytick_2">
     <g id="line2d_21">
      <path d="M 49.588125 228.120252 
L 328.588125 228.120252 
" clip-path="url(#pede6adcda6)" style="fill: none; stroke-dasharray: 3.7,1.6; stroke-dashoffset: 0; stroke: #b0b0b0"/>
     </g>
     <g id="line2d_22">
      <g>
       <use xlink:href="#m992388be06" x="49.588125" y="228.120252" style="stroke: #000000; stroke-width: 0.8"/>
      </g>
     </g>
     <g id="text_12">
      <!-- 1.2 -->
      <g transform="translate(26.685 231.919471) scale(0.1 -0.1)">
       <use xlink:href="#DejaVuSans-31"/>
       <use xlink:href="#DejaVuSans-2e" transform="translate(63.623047 0)"/>
       <use xlink:href="#DejaVuSans-32" transform="translate(95.410156 0)"/>
      </g>
     </g>
    </g>
    <g id="ytick_3">
     <g id="line2d_23">
      <path d="M 49.588125 177.522605 
L 328.588125 177.522605 
" clip-path="url(#pede6adcda6)" style="fill: none; stroke-dasharray: 3.7,1.6; stroke-dashoffset: 0; stroke: #b0b0b0"/>
     </g>
     <g id="line2d_24">
      <g>
       <use xlink:href="#m992388be06" x="49.588125" y="177.522605" style="stroke: #000000; stroke-width: 0.8"/>
      </g>
     </g>
     <g id="text_13">
      <!-- 1.4 -->
      <g transform="translate(26.685 181.321824) scale(0.1 -0.1)">
       <use xlink:href="#DejaVuSans-31"/>
       <use xlink:href="#DejaVuSans-2e" transform="translate(63.623047 0)"/>
       <use xlink:href="#DejaVuSans-34" transform="translate(95.410156 0)"/>
      </g>
     </g>
    </g>
    <g id="ytick_4">
     <g id="line2d_25">
      <path d="M 49.588125 126.924958 
L 328.588125 126.924958 
" clip-path="url(#pede6adcda6)" style="fill: none; stroke-dasharray: 3.7,1.6; stroke-dashoffset: 0; stroke: #b0b0b0"/>
     </g>
     <g id="line2d_26">
      <g>
       <use xlink:href="#m992388be06" x="49.588125" y="126.924958" style="stroke: #000000; stroke-width: 0.8"/>
      </g>
     </g>
     <g id="text_14">
      <!-- 1.6 -->
      <g transform="translate(26.685 130.724177) scale(0.1 -0.1)">
       <defs>
        <path id="DejaVuSans-36" d="M 2113 2584 
Q 1688 2584 1439 2293 
Q 1191 2003 1191 1497 
Q 1191 994 1439 701 
Q 1688 409 2113 409 
Q 2538 409 2786 701 
Q 3034 994 3034 1497 
Q 3034 2003 2786 2293 
Q 2538 2584 2113 2584 
z
M 3366 4563 
L 3366 3988 
Q 3128 4100 2886 4159 
Q 2644 4219 2406 4219 
Q 1781 4219 1451 3797 
Q 1122 3375 1075 2522 
Q 1259 2794 1537 2939 
Q 1816 3084 2150 3084 
Q 2853 3084 3261 2657 
Q 3669 2231 3669 1497 
Q 3669 778 3244 343 
Q 2819 -91 2113 -91 
Q 1303 -91 875 529 
Q 447 1150 447 2328 
Q 447 3434 972 4092 
Q 1497 4750 2381 4750 
Q 2619 4750 2861 4703 
Q 3103 4656 3366 4563 
z
" transform="scale(0.015625)"/>
       </defs>
       <use xlink:href="#DejaVuSans-31"/>
       <use xlink:href="#DejaVuSans-2e" transform="translate(63.623047 0)"/>
       <use xlink:href="#DejaVuSans-36" transform="translate(95.410156 0)"/>
      </g>
     </g>
    </g>
    <g id="ytick_5">
     <g id="line2d_27">
      <path d="M 49.588125 76.327311 
L 328.588125 76.327311 
" clip-path="url(#pede6adcda6)" style="fill: none; stroke-dasharray: 3.7,1.6; stroke-dashoffset: 0; stroke: #b0b0b0"/>
     </g>
     <g id="line2d_28">
      <g>
       <use xlink:href="#m992388be06" x="49.588125" y="76.327311" style="stroke: #000000; stroke-width: 0.8"/>
      </g>
     </g>
     <g id="text_15">
      <!-- 1.8 -->
      <g transform="translate(26.685 80.12653) scale(0.1 -0.1)">
       <defs>
        <path id="DejaVuSans-38" d="M 2034 2216 
Q 1584 2216 1326 1975 
Q 1069 1734 1069 1313 
Q 1069 891 1326 650 
Q 1584 409 2034 409 
Q 2484 409 2743 651 
Q 3003 894 3003 1313 
Q 3003 1734 2745 1975 
Q 2488 2216 2034 2216 
z
M 1403 2484 
Q 997 2584 770 2862 
Q 544 3141 544 3541 
Q 544 4100 942 4425 
Q 1341 4750 2034 4750 
Q 2731 4750 3128 4425 
Q 3525 4100 3525 3541 
Q 3525 3141 3298 2862 
Q 3072 2584 2669 2484 
Q 3125 2378 3379 2068 
Q 3634 1759 3634 1313 
Q 3634 634 3220 271 
Q 2806 -91 2034 -91 
Q 1263 -91 848 271 
Q 434 634 434 1313 
Q 434 1759 690 2068 
Q 947 2378 1403 2484 
z
M 1172 3481 
Q 1172 3119 1398 2916 
Q 1625 2713 2034 2713 
Q 2441 2713 2670 2916 
Q 2900 3119 2900 3481 
Q 2900 3844 2670 4047 
Q 2441 4250 2034 4250 
Q 1625 4250 1398 4047 
Q 1172 3844 1172 3481 
z
" transform="scale(0.015625)"/>
       </defs>
       <use xlink:href="#DejaVuSans-31"/>
       <use xlink:href="#DejaVuSans-2e" transform="translate(63.623047 0)"/>
       <use xlink:href="#DejaVuSans-38" transform="translate(95.410156 0)"/>
      </g>
     </g>
    </g>
    <g id="ytick_6">
     <g id="line2d_29">
      <path d="M 49.588125 25.729664 
L 328.588125 25.729664 
" clip-path="url(#pede6adcda6)" style="fill: none; stroke-dasharray: 3.7,1.6; stroke-dashoffset: 0; stroke: #b0b0b0"/>
     </g>
     <g id="line2d_30">
      <g>
       <use xlink:href="#m992388be06" x="49.588125" y="25.729664" style="stroke: #000000; stroke-width: 0.8"/>
      </g>
     </g>
     <g id="text_16">
      <!-- 2.0 -->
      <g transform="translate(26.685 29.528883) scale(0.1 -0.1)">
       <use xlink:href="#DejaVuSans-32"/>
       <use xlink:href="#DejaVuSans-2e" transform="translate(63.623047 0)"/>
       <use xlink:href="#DejaVuSans-30" transform="translate(95.410156 0)"/>
      </g>
     </g>
    </g>
    <g id="text_17">
     <!-- Disk footprint (Gigabyte) -->
     <g transform="translate(19.3575 245.12375) rotate(-90) scale(0.16 -0.16)">
      <defs>
       <path id="DejaVuSans-44" d="M 1259 4147 
L 1259 519 
L 2022 519 
Q 2988 519 3436 956 
Q 3884 1394 3884 2338 
Q 3884 3275 3436 3711 
Q 2988 4147 2022 4147 
L 1259 4147 
z
M 628 4666 
L 1925 4666 
Q 3281 4666 3915 4102 
Q 4550 3538 4550 2338 
Q 4550 1131 3912 565 
Q 3275 0 1925 0 
L 628 0 
L 628 4666 
z
" transform="scale(0.015625)"/>
       <path id="DejaVuSans-6b" d="M 581 4863 
L 1159 4863 
L 1159 1991 
L 2875 3500 
L 3609 3500 
L 1753 1863 
L 3688 0 
L 2938 0 
L 1159 1709 
L 1159 0 
L 581 0 
L 581 4863 
z
" transform="scale(0.015625)"/>
       <path id="DejaVuSans-66" d="M 2375 4863 
L 2375 4384 
L 1825 4384 
Q 1516 4384 1395 4259 
Q 1275 4134 1275 3809 
L 1275 3500 
L 2222 3500 
L 2222 3053 
L 1275 3053 
L 1275 0 
L 697 0 
L 697 3053 
L 147 3053 
L 147 3500 
L 697 3500 
L 697 3744 
Q 697 4328 969 4595 
Q 1241 4863 1831 4863 
L 2375 4863 
z
" transform="scale(0.015625)"/>
       <path id="DejaVuSans-70" d="M 1159 525 
L 1159 -1331 
L 581 -1331 
L 581 3500 
L 1159 3500 
L 1159 2969 
Q 1341 3281 1617 3432 
Q 1894 3584 2278 3584 
Q 2916 3584 3314 3078 
Q 3713 2572 3713 1747 
Q 3713 922 3314 415 
Q 2916 -91 2278 -91 
Q 1894 -91 1617 61 
Q 1341 213 1159 525 
z
M 3116 1747 
Q 3116 2381 2855 2742 
Q 2594 3103 2138 3103 
Q 1681 3103 1420 2742 
Q 1159 2381 1159 1747 
Q 1159 1113 1420 752 
Q 1681 391 2138 391 
Q 2594 391 2855 752 
Q 3116 1113 3116 1747 
z
" transform="scale(0.015625)"/>
       <path id="DejaVuSans-72" d="M 2631 2963 
Q 2534 3019 2420 3045 
Q 2306 3072 2169 3072 
Q 1681 3072 1420 2755 
Q 1159 2438 1159 1844 
L 1159 0 
L 581 0 
L 581 3500 
L 1159 3500 
L 1159 2956 
Q 1341 3275 1631 3429 
Q 1922 3584 2338 3584 
Q 2397 3584 2469 3576 
Q 2541 3569 2628 3553 
L 2631 2963 
z
" transform="scale(0.015625)"/>
       <path id="DejaVuSans-6e" d="M 3513 2113 
L 3513 0 
L 2938 0 
L 2938 2094 
Q 2938 2591 2744 2837 
Q 2550 3084 2163 3084 
Q 1697 3084 1428 2787 
Q 1159 2491 1159 1978 
L 1159 0 
L 581 0 
L 581 3500 
L 1159 3500 
L 1159 2956 
Q 1366 3272 1645 3428 
Q 1925 3584 2291 3584 
Q 2894 3584 3203 3211 
Q 3513 2838 3513 2113 
z
" transform="scale(0.015625)"/>
       <path id="DejaVuSans-47" d="M 3809 666 
L 3809 1919 
L 2778 1919 
L 2778 2438 
L 4434 2438 
L 4434 434 
Q 4069 175 3628 42 
Q 3188 -91 2688 -91 
Q 1594 -91 976 548 
Q 359 1188 359 2328 
Q 359 3472 976 4111 
Q 1594 4750 2688 4750 
Q 3144 4750 3555 4637 
Q 3966 4525 4313 4306 
L 4313 3634 
Q 3963 3931 3569 4081 
Q 3175 4231 2741 4231 
Q 1884 4231 1454 3753 
Q 1025 3275 1025 2328 
Q 1025 1384 1454 906 
Q 1884 428 2741 428 
Q 3075 428 3337 486 
Q 3600 544 3809 666 
z
" transform="scale(0.015625)"/>
       <path id="DejaVuSans-67" d="M 2906 1791 
Q 2906 2416 2648 2759 
Q 2391 3103 1925 3103 
Q 1463 3103 1205 2759 
Q 947 2416 947 1791 
Q 947 1169 1205 825 
Q 1463 481 1925 481 
Q 2391 481 2648 825 
Q 2906 1169 2906 1791 
z
M 3481 434 
Q 3481 -459 3084 -895 
Q 2688 -1331 1869 -1331 
Q 1566 -1331 1297 -1286 
Q 1028 -1241 775 -1147 
L 775 -588 
Q 1028 -725 1275 -790 
Q 1522 -856 1778 -856 
Q 2344 -856 2625 -561 
Q 2906 -266 2906 331 
L 2906 616 
Q 2728 306 2450 153 
Q 2172 0 1784 0 
Q 1141 0 747 490 
Q 353 981 353 1791 
Q 353 2603 747 3093 
Q 1141 3584 1784 3584 
Q 2172 3584 2450 3431 
Q 2728 3278 2906 2969 
L 2906 3500 
L 3481 3500 
L 3481 434 
z
" transform="scale(0.015625)"/>
       <path id="DejaVuSans-61" d="M 2194 1759 
Q 1497 1759 1228 1600 
Q 959 1441 959 1056 
Q 959 750 1161 570 
Q 1363 391 1709 391 
Q 2188 391 2477 730 
Q 2766 1069 2766 1631 
L 2766 1759 
L 2194 1759 
z
M 3341 1997 
L 3341 0 
L 2766 0 
L 2766 531 
Q 2569 213 2275 61 
Q 1981 -91 1556 -91 
Q 1019 -91 701 211 
Q 384 513 384 1019 
Q 384 1609 779 1909 
Q 1175 2209 1959 2209 
L 2766 2209 
L 2766 2266 
Q 2766 2663 2505 2880 
Q 2244 3097 1772 3097 
Q 1472 3097 1187 3025 
Q 903 2953 641 2809 
L 641 3341 
Q 956 3463 1253 3523 
Q 1550 3584 1831 3584 
Q 2591 3584 2966 3190 
Q 3341 2797 3341 1997 
z
" transform="scale(0.015625)"/>
      </defs>
      <use xlink:href="#DejaVuSans-44"/>
      <use xlink:href="#DejaVuSans-69" transform="translate(77.001953 0)"/>
      <use xlink:href="#DejaVuSans-73" transform="translate(104.785156 0)"/>
      <use xlink:href="#DejaVuSans-6b" transform="translate(156.884766 0)"/>
      <use xlink:href="#DejaVuSans-20" transform="translate(214.794922 0)"/>
      <use xlink:href="#DejaVuSans-66" transform="translate(246.582031 0)"/>
      <use xlink:href="#DejaVuSans-6f" transform="translate(281.787109 0)"/>
      <use xlink:href="#DejaVuSans-6f" transform="translate(342.96875 0)"/>
      <use xlink:href="#DejaVuSans-74" transform="translate(404.150391 0)"/>
      <use xlink:href="#DejaVuSans-70" transform="translate(443.359375 0)"/>
      <use xlink:href="#DejaVuSans-72" transform="translate(506.835938 0)"/>
      <use xlink:href="#DejaVuSans-69" transform="translate(547.949219 0)"/>
      <use xlink:href="#DejaVuSans-6e" transform="translate(575.732422 0)"/>
      <use xlink:href="#DejaVuSans-74" transform="translate(639.111328 0)"/>
      <use xlink:href="#DejaVuSans-20" transform="translate(678.320312 0)"/>
      <use xlink:href="#DejaVuSans-28" transform="translate(710.107422 0)"/>
      <use xlink:href="#DejaVuSans-47" transform="translate(749.121094 0)"/>
      <use xlink:href="#DejaVuSans-69" transform="translate(826.611328 0)"/>
      <use xlink:href="#DejaVuSans-67" transform="translate(854.394531 0)"/>
      <use xlink:href="#DejaVuSans-61" transform="translate(917.871094 0)"/>
      <use xlink:href="#DejaVuSans-62" transform="translate(979.150391 0)"/>
      <use xlink:href="#DejaVuSans-79" transform="translate(1042.626953 0)"/>
      <use xlink:href="#DejaVuSans-74" transform="translate(1101.806641 0)"/>
      <use xlink:href="#DejaVuSans-65" transform="translate(1141.015625 0)"/>
      <use xlink:href="#DejaVuSans-29" transform="translate(1202.539062 0)"/>
     </g>
    </g>
   </g>
   <g id="line2d_31">
    <path d="M 62.269943 231.282353 
L 63.895817 226.341176 
L 65.521691 220.411765 
L 67.147566 230.294118 
L 68.77344 230.294118 
L 70.399314 219.423529 
L 72.025188 250.058824 
L 73.651062 224.364706 
L 75.276936 250.058824 
L 76.90281 206.576471 
L 78.528684 230.294118 
L 80.154559 250.058824 
L 81.780433 179.894118 
L 83.406307 200.647059 
L 86.658055 235.235294 
L 88.283929 250.058824 
L 89.909803 129.494118 
L 91.535677 148.270588 
L 94.787426 179.894118 
L 96.4133 193.729412 
L 98.039174 206.576471 
L 99.665048 218.435294 
L 102.916796 240.176471 
L 107.794419 266.858824 
L 109.420293 19.8 
L 112.672041 48.458824 
L 114.297915 62.294118 
L 115.923789 75.141176 
L 117.549663 86.011765 
L 119.175538 97.870588 
L 120.801412 108.741176 
L 122.427286 118.623529 
L 124.05316 129.494118 
L 125.679034 138.388235 
L 127.304908 146.294118 
L 128.930782 156.176471 
L 130.556656 164.082353 
L 132.182531 171 
L 133.808405 178.905882 
L 138.686027 199.658824 
L 141.937775 211.517647 
L 143.563649 218.435294 
L 145.189524 223.376471 
L 146.815398 229.305882 
L 151.69302 244.129412 
L 153.318894 248.082353 
L 158.196517 262.905882 
L 161.448265 270.811765 
L 163.074139 21.776471 
L 174.455258 70.2 
L 176.081132 75.141176 
L 179.33288 88.976471 
L 180.958754 93.917647 
L 182.584628 97.870588 
L 184.210503 104.788235 
L 187.462251 114.670588 
L 189.088125 121.588235 
L 190.713999 125.541176 
L 193.965747 135.423529 
L 195.591622 139.376471 
L 198.84337 149.258824 
L 200.469244 151.235294 
L 202.095118 156.176471 
L 203.720992 160.129412 
L 206.97274 170.011765 
L 208.598615 171.988235 
L 210.224489 176.929412 
L 211.850363 178.905882 
L 213.476237 183.847059 
L 215.102111 185.823529 
L 216.727985 190.764706 
L 218.353859 192.741176 
L 219.979733 197.682353 
L 221.605608 199.658824 
L 223.231482 204.6 
L 226.48323 208.552941 
L 228.109104 214.482353 
L 232.986726 220.411765 
L 234.612601 225.352941 
L 236.238475 227.329412 
L 237.864349 230.294118 
L 241.116097 234.247059 
L 242.741971 237.211765 
L 244.367845 241.164706 
L 245.993719 244.129412 
L 249.245468 248.082353 
L 250.871342 251.047059 
L 254.12309 255 
L 255.748964 257.964706 
L 259.000712 261.917647 
L 260.626587 261.917647 
L 262.252461 264.882353 
L 265.504209 268.835294 
L 267.130083 271.8 
L 268.755957 146.294118 
L 270.381831 150.247059 
L 272.007705 153.211765 
L 273.63358 153.211765 
L 275.259454 157.164706 
L 276.885328 160.129412 
L 278.511202 164.082353 
L 280.137076 167.047059 
L 281.76295 167.047059 
L 283.388824 171 
L 285.014698 173.964706 
L 286.640573 173.964706 
L 288.266447 177.917647 
L 289.892321 180.882353 
L 291.518195 184.835294 
L 293.144069 184.835294 
L 294.769943 187.8 
L 296.395817 191.752941 
L 298.021691 191.752941 
L 299.647566 194.717647 
L 301.27344 198.670588 
L 302.899314 198.670588 
L 304.525188 201.635294 
L 306.151062 201.635294 
L 307.776936 205.588235 
L 309.40281 208.552941 
L 311.028684 208.552941 
L 312.654559 212.505882 
L 314.280433 212.505882 
L 315.906307 215.470588 
L 315.906307 215.470588 
" clip-path="url(#pede6adcda6)" style="fill: none; stroke: #000000; stroke-width: 1.5; stroke-linecap: square"/>
    <defs>
     <path id="mf1e76fba54" d="M 0 1.5 
C 0.397805 1.5 0.77937 1.341951 1.06066 1.06066 
C 1.341951 0.77937 1.5 0.397805 1.5 0 
C 1.5 -0.397805 1.341951 -0.77937 1.06066 -1.06066 
C 0.77937 -1.341951 0.397805 -1.5 0 -1.5 
C -0.397805 -1.5 -0.77937 -1.341951 -1.06066 -1.06066 
C -1.341951 -0.77937 -1.5 -0.397805 -1.5 0 
C -1.5 0.397805 -1.341951 0.77937 -1.06066 1.06066 
C -0.77937 1.341951 -0.397805 1.5 0 1.5 
z
" style="stroke: #000000"/>
    </defs>
    <g clip-path="url(#pede6adcda6)">
     <use xlink:href="#mf1e76fba54" x="62.269943" y="231.282353" style="fill: #000000; stroke: #000000"/>
     <use xlink:href="#mf1e76fba54" x="63.895817" y="226.341176" style="fill: #000000; stroke: #000000"/>
     <use xlink:href="#mf1e76fba54" x="65.521691" y="220.411765" style="fill: #000000; stroke: #000000"/>
     <use xlink:href="#mf1e76fba54" x="67.147566" y="230.294118" style="fill: #000000; stroke: #000000"/>
     <use xlink:href="#mf1e76fba54" x="68.77344" y="230.294118" style="fill: #000000; stroke: #000000"/>
     <use xlink:href="#mf1e76fba54" x="70.399314" y="219.423529" style="fill: #000000; stroke: #000000"/>
     <use xlink:href="#mf1e76fba54" x="72.025188" y="250.058824" style="fill: #000000; stroke: #000000"/>
     <use xlink:href="#mf1e76fba54" x="73.651062" y="224.364706" style="fill: #000000; stroke: #000000"/>
     <use xlink:href="#mf1e76fba54" x="75.276936" y="250.058824" style="fill: #000000; stroke: #000000"/>
     <use xlink:href="#mf1e76fba54" x="76.90281" y="206.576471" style="fill: #000000; stroke: #000000"/>
     <use xlink:href="#mf1e76fba54" x="78.528684" y="230.294118" style="fill: #000000; stroke: #000000"/>
     <use xlink:href="#mf1e76fba54" x="80.154559" y="250.058824" style="fill: #000000; stroke: #000000"/>
     <use xlink:href="#mf1e76fba54" x="81.780433" y="179.894118" style="fill: #000000; stroke: #000000"/>
     <use xlink:href="#mf1e76fba54" x="83.406307" y="200.647059" style="fill: #000000; stroke: #000000"/>
     <use xlink:href="#mf1e76fba54" x="85.032181" y="218.435294" style="fill: #000000; stroke: #000000"/>
     <use xlink:href="#mf1e76fba54" x="86.658055" y="235.235294" style="fill: #000000; stroke: #000000"/>
     <use xlink:href="#mf1e76fba54" x="88.283929" y="250.058824" style="fill: #000000; stroke: #000000"/>
     <use xlink:href="#mf1e76fba54" x="89.909803" y="129.494118" style="fill: #000000; stroke: #000000"/>
     <use xlink:href="#mf1e76fba54" x="91.535677" y="148.270588" style="fill: #000000; stroke: #000000"/>
     <use xlink:href="#mf1e76fba54" x="93.161552" y="164.082353" style="fill: #000000; stroke: #000000"/>
     <use xlink:href="#mf1e76fba54" x="94.787426" y="179.894118" style="fill: #000000; stroke: #000000"/>
     <use xlink:href="#mf1e76fba54" x="96.4133" y="193.729412" style="fill: #000000; stroke: #000000"/>
     <use xlink:href="#mf1e76fba54" x="98.039174" y="206.576471" style="fill: #000000; stroke: #000000"/>
     <use xlink:href="#mf1e76fba54" x="99.665048" y="218.435294" style="fill: #000000; stroke: #000000"/>
     <use xlink:href="#mf1e76fba54" x="101.290922" y="229.305882" style="fill: #000000; stroke: #000000"/>
     <use xlink:href="#mf1e76fba54" x="102.916796" y="240.176471" style="fill: #000000; stroke: #000000"/>
     <use xlink:href="#mf1e76fba54" x="104.54267" y="249.070588" style="fill: #000000; stroke: #000000"/>
     <use xlink:href="#mf1e76fba54" x="106.168545" y="257.964706" style="fill: #000000; stroke: #000000"/>
     <use xlink:href="#mf1e76fba54" x="107.794419" y="266.858824" style="fill: #000000; stroke: #000000"/>
     <use xlink:href="#mf1e76fba54" x="109.420293" y="19.8" style="fill: #000000; stroke: #000000"/>
     <use xlink:href="#mf1e76fba54" x="111.046167" y="34.623529" style="fill: #000000; stroke: #000000"/>
     <use xlink:href="#mf1e76fba54" x="112.672041" y="48.458824" style="fill: #000000; stroke: #000000"/>
     <use xlink:href="#mf1e76fba54" x="114.297915" y="62.294118" style="fill: #000000; stroke: #000000"/>
     <use xlink:href="#mf1e76fba54" x="115.923789" y="75.141176" style="fill: #000000; stroke: #000000"/>
     <use xlink:href="#mf1e76fba54" x="117.549663" y="86.011765" style="fill: #000000; stroke: #000000"/>
     <use xlink:href="#mf1e76fba54" x="119.175538" y="97.870588" style="fill: #000000; stroke: #000000"/>
     <use xlink:href="#mf1e76fba54" x="120.801412" y="108.741176" style="fill: #000000; stroke: #000000"/>
     <use xlink:href="#mf1e76fba54" x="122.427286" y="118.623529" style="fill: #000000; stroke: #000000"/>
     <use xlink:href="#mf1e76fba54" x="124.05316" y="129.494118" style="fill: #000000; stroke: #000000"/>
     <use xlink:href="#mf1e76fba54" x="125.679034" y="138.388235" style="fill: #000000; stroke: #000000"/>
     <use xlink:href="#mf1e76fba54" x="127.304908" y="146.294118" style="fill: #000000; stroke: #000000"/>
     <use xlink:href="#mf1e76fba54" x="128.930782" y="156.176471" style="fill: #000000; stroke: #000000"/>
     <use xlink:href="#mf1e76fba54" x="130.556656" y="164.082353" style="fill: #000000; stroke: #000000"/>
     <use xlink:href="#mf1e76fba54" x="132.182531" y="171" style="fill: #000000; stroke: #000000"/>
     <use xlink:href="#mf1e76fba54" x="133.808405" y="178.905882" style="fill: #000000; stroke: #000000"/>
     <use xlink:href="#mf1e76fba54" x="135.434279" y="185.823529" style="fill: #000000; stroke: #000000"/>
     <use xlink:href="#mf1e76fba54" x="137.060153" y="192.741176" style="fill: #000000; stroke: #000000"/>
     <use xlink:href="#mf1e76fba54" x="138.686027" y="199.658824" style="fill: #000000; stroke: #000000"/>
     <use xlink:href="#mf1e76fba54" x="140.311901" y="205.588235" style="fill: #000000; stroke: #000000"/>
     <use xlink:href="#mf1e76fba54" x="141.937775" y="211.517647" style="fill: #000000; stroke: #000000"/>
     <use xlink:href="#mf1e76fba54" x="143.563649" y="218.435294" style="fill: #000000; stroke: #000000"/>
     <use xlink:href="#mf1e76fba54" x="145.189524" y="223.376471" style="fill: #000000; stroke: #000000"/>
     <use xlink:href="#mf1e76fba54" x="146.815398" y="229.305882" style="fill: #000000; stroke: #000000"/>
     <use xlink:href="#mf1e76fba54" x="148.441272" y="234.247059" style="fill: #000000; stroke: #000000"/>
     <use xlink:href="#mf1e76fba54" x="150.067146" y="239.188235" style="fill: #000000; stroke: #000000"/>
     <use xlink:href="#mf1e76fba54" x="151.69302" y="244.129412" style="fill: #000000; stroke: #000000"/>
     <use xlink:href="#mf1e76fba54" x="153.318894" y="248.082353" style="fill: #000000; stroke: #000000"/>
     <use xlink:href="#mf1e76fba54" x="154.944768" y="253.023529" style="fill: #000000; stroke: #000000"/>
     <use xlink:href="#mf1e76fba54" x="156.570642" y="257.964706" style="fill: #000000; stroke: #000000"/>
     <use xlink:href="#mf1e76fba54" x="158.196517" y="262.905882" style="fill: #000000; stroke: #000000"/>
     <use xlink:href="#mf1e76fba54" x="159.822391" y="266.858824" style="fill: #000000; stroke: #000000"/>
     <use xlink:href="#mf1e76fba54" x="161.448265" y="270.811765" style="fill: #000000; stroke: #000000"/>
     <use xlink:href="#mf1e76fba54" x="163.074139" y="21.776471" style="fill: #000000; stroke: #000000"/>
     <use xlink:href="#mf1e76fba54" x="164.700013" y="28.694118" style="fill: #000000; stroke: #000000"/>
     <use xlink:href="#mf1e76fba54" x="166.325887" y="35.611765" style="fill: #000000; stroke: #000000"/>
     <use xlink:href="#mf1e76fba54" x="167.951761" y="42.529412" style="fill: #000000; stroke: #000000"/>
     <use xlink:href="#mf1e76fba54" x="169.577635" y="49.447059" style="fill: #000000; stroke: #000000"/>
     <use xlink:href="#mf1e76fba54" x="171.20351" y="56.364706" style="fill: #000000; stroke: #000000"/>
     <use xlink:href="#mf1e76fba54" x="172.829384" y="63.282353" style="fill: #000000; stroke: #000000"/>
     <use xlink:href="#mf1e76fba54" x="174.455258" y="70.2" style="fill: #000000; stroke: #000000"/>
     <use xlink:href="#mf1e76fba54" x="176.081132" y="75.141176" style="fill: #000000; stroke: #000000"/>
     <use xlink:href="#mf1e76fba54" x="177.707006" y="82.058824" style="fill: #000000; stroke: #000000"/>
     <use xlink:href="#mf1e76fba54" x="179.33288" y="88.976471" style="fill: #000000; stroke: #000000"/>
     <use xlink:href="#mf1e76fba54" x="180.958754" y="93.917647" style="fill: #000000; stroke: #000000"/>
     <use xlink:href="#mf1e76fba54" x="182.584628" y="97.870588" style="fill: #000000; stroke: #000000"/>
     <use xlink:href="#mf1e76fba54" x="184.210503" y="104.788235" style="fill: #000000; stroke: #000000"/>
     <use xlink:href="#mf1e76fba54" x="185.836377" y="109.729412" style="fill: #000000; stroke: #000000"/>
     <use xlink:href="#mf1e76fba54" x="187.462251" y="114.670588" style="fill: #000000; stroke: #000000"/>
     <use xlink:href="#mf1e76fba54" x="189.088125" y="121.588235" style="fill: #000000; stroke: #000000"/>
     <use xlink:href="#mf1e76fba54" x="190.713999" y="125.541176" style="fill: #000000; stroke: #000000"/>
     <use xlink:href="#mf1e76fba54" x="192.339873" y="130.482353" style="fill: #000000; stroke: #000000"/>
     <use xlink:href="#mf1e76fba54" x="193.965747" y="135.423529" style="fill: #000000; stroke: #000000"/>
     <use xlink:href="#mf1e76fba54" x="195.591622" y="139.376471" style="fill: #000000; stroke: #000000"/>
     <use xlink:href="#mf1e76fba54" x="197.217496" y="144.317647" style="fill: #000000; stroke: #000000"/>
     <use xlink:href="#mf1e76fba54" x="198.84337" y="149.258824" style="fill: #000000; stroke: #000000"/>
     <use xlink:href="#mf1e76fba54" x="200.469244" y="151.235294" style="fill: #000000; stroke: #000000"/>
     <use xlink:href="#mf1e76fba54" x="202.095118" y="156.176471" style="fill: #000000; stroke: #000000"/>
     <use xlink:href="#mf1e76fba54" x="203.720992" y="160.129412" style="fill: #000000; stroke: #000000"/>
     <use xlink:href="#mf1e76fba54" x="205.346866" y="165.070588" style="fill: #000000; stroke: #000000"/>
     <use xlink:href="#mf1e76fba54" x="206.97274" y="170.011765" style="fill: #000000; stroke: #000000"/>
     <use xlink:href="#mf1e76fba54" x="208.598615" y="171.988235" style="fill: #000000; stroke: #000000"/>
     <use xlink:href="#mf1e76fba54" x="210.224489" y="176.929412" style="fill: #000000; stroke: #000000"/>
     <use xlink:href="#mf1e76fba54" x="211.850363" y="178.905882" style="fill: #000000; stroke: #000000"/>
     <use xlink:href="#mf1e76fba54" x="213.476237" y="183.847059" style="fill: #000000; stroke: #000000"/>
     <use xlink:href="#mf1e76fba54" x="215.102111" y="185.823529" style="fill: #000000; stroke: #000000"/>
     <use xlink:href="#mf1e76fba54" x="216.727985" y="190.764706" style="fill: #000000; stroke: #000000"/>
     <use xlink:href="#mf1e76fba54" x="218.353859" y="192.741176" style="fill: #000000; stroke: #000000"/>
     <use xlink:href="#mf1e76fba54" x="219.979733" y="197.682353" style="fill: #000000; stroke: #000000"/>
     <use xlink:href="#mf1e76fba54" x="221.605608" y="199.658824" style="fill: #000000; stroke: #000000"/>
     <use xlink:href="#mf1e76fba54" x="223.231482" y="204.6" style="fill: #000000; stroke: #000000"/>
     <use xlink:href="#mf1e76fba54" x="224.857356" y="206.576471" style="fill: #000000; stroke: #000000"/>
     <use xlink:href="#mf1e76fba54" x="226.48323" y="208.552941" style="fill: #000000; stroke: #000000"/>
     <use xlink:href="#mf1e76fba54" x="228.109104" y="214.482353" style="fill: #000000; stroke: #000000"/>
     <use xlink:href="#mf1e76fba54" x="229.734978" y="216.458824" style="fill: #000000; stroke: #000000"/>
     <use xlink:href="#mf1e76fba54" x="231.360852" y="218.435294" style="fill: #000000; stroke: #000000"/>
     <use xlink:href="#mf1e76fba54" x="232.986726" y="220.411765" style="fill: #000000; stroke: #000000"/>
     <use xlink:href="#mf1e76fba54" x="234.612601" y="225.352941" style="fill: #000000; stroke: #000000"/>
     <use xlink:href="#mf1e76fba54" x="236.238475" y="227.329412" style="fill: #000000; stroke: #000000"/>
     <use xlink:href="#mf1e76fba54" x="237.864349" y="230.294118" style="fill: #000000; stroke: #000000"/>
     <use xlink:href="#mf1e76fba54" x="239.490223" y="232.270588" style="fill: #000000; stroke: #000000"/>
     <use xlink:href="#mf1e76fba54" x="241.116097" y="234.247059" style="fill: #000000; stroke: #000000"/>
     <use xlink:href="#mf1e76fba54" x="242.741971" y="237.211765" style="fill: #000000; stroke: #000000"/>
     <use xlink:href="#mf1e76fba54" x="244.367845" y="241.164706" style="fill: #000000; stroke: #000000"/>
     <use xlink:href="#mf1e76fba54" x="245.993719" y="244.129412" style="fill: #000000; stroke: #000000"/>
     <use xlink:href="#mf1e76fba54" x="247.619594" y="246.105882" style="fill: #000000; stroke: #000000"/>
     <use xlink:href="#mf1e76fba54" x="249.245468" y="248.082353" style="fill: #000000; stroke: #000000"/>
     <use xlink:href="#mf1e76fba54" x="250.871342" y="251.047059" style="fill: #000000; stroke: #000000"/>
     <use xlink:href="#mf1e76fba54" x="252.497216" y="253.023529" style="fill: #000000; stroke: #000000"/>
     <use xlink:href="#mf1e76fba54" x="254.12309" y="255" style="fill: #000000; stroke: #000000"/>
     <use xlink:href="#mf1e76fba54" x="255.748964" y="257.964706" style="fill: #000000; stroke: #000000"/>
     <use xlink:href="#mf1e76fba54" x="257.374838" y="259.941176" style="fill: #000000; stroke: #000000"/>
     <use xlink:href="#mf1e76fba54" x="259.000712" y="261.917647" style="fill: #000000; stroke: #000000"/>
     <use xlink:href="#mf1e76fba54" x="260.626587" y="261.917647" style="fill: #000000; stroke: #000000"/>
     <use xlink:href="#mf1e76fba54" x="262.252461" y="264.882353" style="fill: #000000; stroke: #000000"/>
     <use xlink:href="#mf1e76fba54" x="263.878335" y="266.858824" style="fill: #000000; stroke: #000000"/>
     <use xlink:href="#mf1e76fba54" x="265.504209" y="268.835294" style="fill: #000000; stroke: #000000"/>
     <use xlink:href="#mf1e76fba54" x="267.130083" y="271.8" style="fill: #000000; stroke: #000000"/>
     <use xlink:href="#mf1e76fba54" x="268.755957" y="146.294118" style="fill: #000000; stroke: #000000"/>
     <use xlink:href="#mf1e76fba54" x="270.381831" y="150.247059" style="fill: #000000; stroke: #000000"/>
     <use xlink:href="#mf1e76fba54" x="272.007705" y="153.211765" style="fill: #000000; stroke: #000000"/>
     <use xlink:href="#mf1e76fba54" x="273.63358" y="153.211765" style="fill: #000000; stroke: #000000"/>
     <use xlink:href="#mf1e76fba54" x="275.259454" y="157.164706" style="fill: #000000; stroke: #000000"/>
     <use xlink:href="#mf1e76fba54" x="276.885328" y="160.129412" style="fill: #000000; stroke: #000000"/>
     <use xlink:href="#mf1e76fba54" x="278.511202" y="164.082353" style="fill: #000000; stroke: #000000"/>
     <use xlink:href="#mf1e76fba54" x="280.137076" y="167.047059" style="fill: #000000; stroke: #000000"/>
     <use xlink:href="#mf1e76fba54" x="281.76295" y="167.047059" style="fill: #000000; stroke: #000000"/>
     <use xlink:href="#mf1e76fba54" x="283.388824" y="171" style="fill: #000000; stroke: #000000"/>
     <use xlink:href="#mf1e76fba54" x="285.014698" y="173.964706" style="fill: #000000; stroke: #000000"/>
     <use xlink:href="#mf1e76fba54" x="286.640573" y="173.964706" style="fill: #000000; stroke: #000000"/>
     <use xlink:href="#mf1e76fba54" x="288.266447" y="177.917647" style="fill: #000000; stroke: #000000"/>
     <use xlink:href="#mf1e76fba54" x="289.892321" y="180.882353" style="fill: #000000; stroke: #000000"/>
     <use xlink:href="#mf1e76fba54" x="291.518195" y="184.835294" style="fill: #000000; stroke: #000000"/>
     <use xlink:href="#mf1e76fba54" x="293.144069" y="184.835294" style="fill: #000000; stroke: #000000"/>
     <use xlink:href="#mf1e76fba54" x="294.769943" y="187.8" style="fill: #000000; stroke: #000000"/>
     <use xlink:href="#mf1e76fba54" x="296.395817" y="191.752941" style="fill: #000000; stroke: #000000"/>
     <use xlink:href="#mf1e76fba54" x="298.021691" y="191.752941" style="fill: #000000; stroke: #000000"/>
     <use xlink:href="#mf1e76fba54" x="299.647566" y="194.717647" style="fill: #000000; stroke: #000000"/>
     <use xlink:href="#mf1e76fba54" x="301.27344" y="198.670588" style="fill: #000000; stroke: #000000"/>
     <use xlink:href="#mf1e76fba54" x="302.899314" y="198.670588" style="fill: #000000; stroke: #000000"/>
     <use xlink:href="#mf1e76fba54" x="304.525188" y="201.635294" style="fill: #000000; stroke: #000000"/>
     <use xlink:href="#mf1e76fba54" x="306.151062" y="201.635294" style="fill: #000000; stroke: #000000"/>
     <use xlink:href="#mf1e76fba54" x="307.776936" y="205.588235" style="fill: #000000; stroke: #000000"/>
     <use xlink:href="#mf1e76fba54" x="309.40281" y="208.552941" style="fill: #000000; stroke: #000000"/>
     <use xlink:href="#mf1e76fba54" x="311.028684" y="208.552941" style="fill: #000000; stroke: #000000"/>
     <use xlink:href="#mf1e76fba54" x="312.654559" y="212.505882" style="fill: #000000; stroke: #000000"/>
     <use xlink:href="#mf1e76fba54" x="314.280433" y="212.505882" style="fill: #000000; stroke: #000000"/>
     <use xlink:href="#mf1e76fba54" x="315.906307" y="215.470588" style="fill: #000000; stroke: #000000"/>
    </g>
   </g>
   <g id="patch_3">
    <path d="M 49.588125 284.4 
L 49.588125 7.2 
" style="fill: none; stroke: #000000; stroke-width: 0.8; stroke-linejoin: miter; stroke-linecap: square"/>
   </g>
   <g id="patch_4">
    <path d="M 328.588125 284.4 
L 328.588125 7.2 
" style="fill: none; stroke: #000000; stroke-width: 0.8; stroke-linejoin: miter; stroke-linecap: square"/>
   </g>
   <g id="patch_5">
    <path d="M 49.588125 284.4 
L 328.588125 284.4 
" style="fill: none; stroke: #000000; stroke-width: 0.8; stroke-linejoin: miter; stroke-linecap: square"/>
   </g>
   <g id="patch_6">
    <path d="M 49.588125 7.2 
L 328.588125 7.2 
" style="fill: none; stroke: #000000; stroke-width: 0.8; stroke-linejoin: miter; stroke-linecap: square"/>
   </g>
   <g id="legend_1">
    <g id="patch_7">
     <path d="M 199.655625 43.485 
L 317.388125 43.485 
Q 320.588125 43.485 320.588125 40.285 
L 320.588125 18.4 
Q 320.588125 15.2 317.388125 15.2 
L 199.655625 15.2 
Q 196.455625 15.2 196.455625 18.4 
L 196.455625 40.285 
Q 196.455625 43.485 199.655625 43.485 
z
" style="fill: #ffffff; opacity: 0.8; stroke: #cccccc; stroke-linejoin: miter"/>
    </g>
    <g id="line2d_32">
     <path d="M 202.855625 28.1575 
L 218.855625 28.1575 
L 234.855625 28.1575 
" style="fill: none; stroke: #000000; stroke-width: 1.5; stroke-linecap: square"/>
     <g>
      <use xlink:href="#mf1e76fba54" x="218.855625" y="28.1575" style="fill: #000000; stroke: #000000"/>
     </g>
    </g>
    <g id="text_18">
     <!-- mariadb -->
     <g transform="translate(247.655625 33.7575) scale(0.16 -0.16)">
      <defs>
       <path id="DejaVuSans-6d" d="M 3328 2828 
Q 3544 3216 3844 3400 
Q 4144 3584 4550 3584 
Q 5097 3584 5394 3201 
Q 5691 2819 5691 2113 
L 5691 0 
L 5113 0 
L 5113 2094 
Q 5113 2597 4934 2840 
Q 4756 3084 4391 3084 
Q 3944 3084 3684 2787 
Q 3425 2491 3425 1978 
L 3425 0 
L 2847 0 
L 2847 2094 
Q 2847 2600 2669 2842 
Q 2491 3084 2119 3084 
Q 1678 3084 1418 2786 
Q 1159 2488 1159 1978 
L 1159 0 
L 581 0 
L 581 3500 
L 1159 3500 
L 1159 2956 
Q 1356 3278 1631 3431 
Q 1906 3584 2284 3584 
Q 2666 3584 2933 3390 
Q 3200 3197 3328 2828 
z
" transform="scale(0.015625)"/>
       <path id="DejaVuSans-64" d="M 2906 2969 
L 2906 4863 
L 3481 4863 
L 3481 0 
L 2906 0 
L 2906 525 
Q 2725 213 2448 61 
Q 2172 -91 1784 -91 
Q 1150 -91 751 415 
Q 353 922 353 1747 
Q 353 2572 751 3078 
Q 1150 3584 1784 3584 
Q 2172 3584 2448 3432 
Q 2725 3281 2906 2969 
z
M 947 1747 
Q 947 1113 1208 752 
Q 1469 391 1925 391 
Q 2381 391 2643 752 
Q 2906 1113 2906 1747 
Q 2906 2381 2643 2742 
Q 2381 3103 1925 3103 
Q 1469 3103 1208 2742 
Q 947 2381 947 1747 
z
" transform="scale(0.015625)"/>
      </defs>
      <use xlink:href="#DejaVuSans-6d"/>
      <use xlink:href="#DejaVuSans-61" transform="translate(97.412109 0)"/>
      <use xlink:href="#DejaVuSans-72" transform="translate(158.691406 0)"/>
      <use xlink:href="#DejaVuSans-69" transform="translate(199.804688 0)"/>
      <use xlink:href="#DejaVuSans-61" transform="translate(227.587891 0)"/>
      <use xlink:href="#DejaVuSans-64" transform="translate(288.867188 0)"/>
      <use xlink:href="#DejaVuSans-62" transform="translate(352.34375 0)"/>
     </g>
    </g>
   </g>
  </g>
 </g>
 <defs>
  <clipPath id="pede6adcda6">
   <rect x="49.588125" y="7.2" width="279" height="277.2"/>
  </clipPath>
 </defs>
</svg>
