<?xml version="1.0" encoding="utf-8" standalone="no"?>
<!DOCTYPE svg PUBLIC "-//W3C//DTD SVG 1.1//EN"
  "http://www.w3.org/Graphics/SVG/1.1/DTD/svg11.dtd">
<svg xmlns:xlink="http://www.w3.org/1999/xlink" width="335.788125pt" height="327.763125pt" viewBox="0 0 335.788125 327.763125" xmlns="http://www.w3.org/2000/svg" version="1.1">
 <metadata>
  <rdf:RDF xmlns:dc="http://purl.org/dc/elements/1.1/" xmlns:cc="http://creativecommons.org/ns#" xmlns:rdf="http://www.w3.org/1999/02/22-rdf-syntax-ns#">
   <cc:Work>
    <dc:type rdf:resource="http://purl.org/dc/dcmitype/StillImage"/>
    <dc:date>2025-07-23T21:25:58.436942</dc:date>
    <dc:format>image/svg+xml</dc:format>
    <dc:creator>
     <cc:Agent>
      <dc:title>Matplotlib v3.10.3, https://matplotlib.org/</dc:title>
     </cc:Agent>
    </dc:creator>
   </cc:Work>
  </rdf:RDF>
 </metadata>
 <defs>
  <style type="text/css">*{stroke-linejoin: round; stroke-linecap: butt}</style>
 </defs>
 <g id="figure_1">
  <g id="patch_1">
   <path d="M 0 327.763125 
L 335.788125 327.763125 
L 335.788125 0 
L 0 0 
z
" style="fill: #ffffff"/>
  </g>
  <g id="axes_1">
   <g id="patch_2">
    <path d="M 49.588125 284.4 
L 328.588125 284.4 
L 328.588125 7.2 
L 49.588125 7.2 
z
" style="fill: #ffffff"/>
   </g>
   <g id="matplotlib.axis_1">
    <g id="xtick_1">
     <g id="line2d_1">
      <path d="M 53.523862 284.4 
L 53.523862 7.2 
" clip-path="url(#pf9d058aff1)" style="fill: none; stroke-dasharray: 3.7,1.6; stroke-dashoffset: 0; stroke: #b0b0b0"/>
     </g>
     <g id="line2d_2">
      <defs>
       <path id="m23eb0693f4" d="M 0 0 
L 0 3.5 
" style="stroke: #000000; stroke-width: 0.8"/>
      </defs>
      <g>
       <use xlink:href="#m23eb0693f4" x="53.523862" y="284.4" style="stroke: #000000; stroke-width: 0.8"/>
      </g>
     </g>
     <g id="text_1">
      <!-- 0 -->
      <g transform="translate(50.342612 298.998438) scale(0.1 -0.1)">
       <defs>
        <path id="DejaVuSans-30" d="M 2034 4250 
Q 1547 4250 1301 3770 
Q 1056 3291 1056 2328 
Q 1056 1369 1301 889 
Q 1547 409 2034 409 
Q 2525 409 2770 889 
Q 3016 1369 3016 2328 
Q 3016 3291 2770 3770 
Q 2525 4250 2034 4250 
z
M 2034 4750 
Q 2819 4750 3233 4129 
Q 3647 3509 3647 2328 
Q 3647 1150 3233 529 
Q 2819 -91 2034 -91 
Q 1250 -91 836 529 
Q 422 1150 422 2328 
Q 422 3509 836 4129 
Q 1250 4750 2034 4750 
z
" transform="scale(0.015625)"/>
       </defs>
       <use xlink:href="#DejaVuSans-30"/>
      </g>
     </g>
    </g>
    <g id="xtick_2">
     <g id="line2d_3">
      <path d="M 88.508188 284.4 
L 88.508188 7.2 
" clip-path="url(#pf9d058aff1)" style="fill: none; stroke-dasharray: 3.7,1.6; stroke-dashoffset: 0; stroke: #b0b0b0"/>
     </g>
     <g id="line2d_4">
      <g>
       <use xlink:href="#m23eb0693f4" x="88.508188" y="284.4" style="stroke: #000000; stroke-width: 0.8"/>
      </g>
     </g>
     <g id="text_2">
      <!-- 2000 -->
      <g transform="translate(75.783188 298.998438) scale(0.1 -0.1)">
       <defs>
        <path id="DejaVuSans-32" d="M 1228 531 
L 3431 531 
L 3431 0 
L 469 0 
L 469 531 
Q 828 903 1448 1529 
Q 2069 2156 2228 2338 
Q 2531 2678 2651 2914 
Q 2772 3150 2772 3378 
Q 2772 3750 2511 3984 
Q 2250 4219 1831 4219 
Q 1534 4219 1204 4116 
Q 875 4013 500 3803 
L 500 4441 
Q 881 4594 1212 4672 
Q 1544 4750 1819 4750 
Q 2544 4750 2975 4387 
Q 3406 4025 3406 3419 
Q 3406 3131 3298 2873 
Q 3191 2616 2906 2266 
Q 2828 2175 2409 1742 
Q 1991 1309 1228 531 
z
" transform="scale(0.015625)"/>
       </defs>
       <use xlink:href="#DejaVuSans-32"/>
       <use xlink:href="#DejaVuSans-30" transform="translate(63.623047 0)"/>
       <use xlink:href="#DejaVuSans-30" transform="translate(127.246094 0)"/>
       <use xlink:href="#DejaVuSans-30" transform="translate(190.869141 0)"/>
      </g>
     </g>
    </g>
    <g id="xtick_3">
     <g id="line2d_5">
      <path d="M 123.492514 284.4 
L 123.492514 7.2 
" clip-path="url(#pf9d058aff1)" style="fill: none; stroke-dasharray: 3.7,1.6; stroke-dashoffset: 0; stroke: #b0b0b0"/>
     </g>
     <g id="line2d_6">
      <g>
       <use xlink:href="#m23eb0693f4" x="123.492514" y="284.4" style="stroke: #000000; stroke-width: 0.8"/>
      </g>
     </g>
     <g id="text_3">
      <!-- 4000 -->
      <g transform="translate(110.767514 298.998438) scale(0.1 -0.1)">
       <defs>
        <path id="DejaVuSans-34" d="M 2419 4116 
L 825 1625 
L 2419 1625 
L 2419 4116 
z
M 2253 4666 
L 3047 4666 
L 3047 1625 
L 3713 1625 
L 3713 1100 
L 3047 1100 
L 3047 0 
L 2419 0 
L 2419 1100 
L 313 1100 
L 313 1709 
L 2253 4666 
z
" transform="scale(0.015625)"/>
       </defs>
       <use xlink:href="#DejaVuSans-34"/>
       <use xlink:href="#DejaVuSans-30" transform="translate(63.623047 0)"/>
       <use xlink:href="#DejaVuSans-30" transform="translate(127.246094 0)"/>
       <use xlink:href="#DejaVuSans-30" transform="translate(190.869141 0)"/>
      </g>
     </g>
    </g>
    <g id="xtick_4">
     <g id="line2d_7">
      <path d="M 158.47684 284.4 
L 158.47684 7.2 
" clip-path="url(#pf9d058aff1)" style="fill: none; stroke-dasharray: 3.7,1.6; stroke-dashoffset: 0; stroke: #b0b0b0"/>
     </g>
     <g id="line2d_8">
      <g>
       <use xlink:href="#m23eb0693f4" x="158.47684" y="284.4" style="stroke: #000000; stroke-width: 0.8"/>
      </g>
     </g>
     <g id="text_4">
      <!-- 6000 -->
      <g transform="translate(145.75184 298.998438) scale(0.1 -0.1)">
       <defs>
        <path id="DejaVuSans-36" d="M 2113 2584 
Q 1688 2584 1439 2293 
Q 1191 2003 1191 1497 
Q 1191 994 1439 701 
Q 1688 409 2113 409 
Q 2538 409 2786 701 
Q 3034 994 3034 1497 
Q 3034 2003 2786 2293 
Q 2538 2584 2113 2584 
z
M 3366 4563 
L 3366 3988 
Q 3128 4100 2886 4159 
Q 2644 4219 2406 4219 
Q 1781 4219 1451 3797 
Q 1122 3375 1075 2522 
Q 1259 2794 1537 2939 
Q 1816 3084 2150 3084 
Q 2853 3084 3261 2657 
Q 3669 2231 3669 1497 
Q 3669 778 3244 343 
Q 2819 -91 2113 -91 
Q 1303 -91 875 529 
Q 447 1150 447 2328 
Q 447 3434 972 4092 
Q 1497 4750 2381 4750 
Q 2619 4750 2861 4703 
Q 3103 4656 3366 4563 
z
" transform="scale(0.015625)"/>
       </defs>
       <use xlink:href="#DejaVuSans-36"/>
       <use xlink:href="#DejaVuSans-30" transform="translate(63.623047 0)"/>
       <use xlink:href="#DejaVuSans-30" transform="translate(127.246094 0)"/>
       <use xlink:href="#DejaVuSans-30" transform="translate(190.869141 0)"/>
      </g>
     </g>
    </g>
    <g id="xtick_5">
     <g id="line2d_9">
      <path d="M 193.461166 284.4 
L 193.461166 7.2 
" clip-path="url(#pf9d058aff1)" style="fill: none; stroke-dasharray: 3.7,1.6; stroke-dashoffset: 0; stroke: #b0b0b0"/>
     </g>
     <g id="line2d_10">
      <g>
       <use xlink:href="#m23eb0693f4" x="193.461166" y="284.4" style="stroke: #000000; stroke-width: 0.8"/>
      </g>
     </g>
     <g id="text_5">
      <!-- 8000 -->
      <g transform="translate(180.736166 298.998438) scale(0.1 -0.1)">
       <defs>
        <path id="DejaVuSans-38" d="M 2034 2216 
Q 1584 2216 1326 1975 
Q 1069 1734 1069 1313 
Q 1069 891 1326 650 
Q 1584 409 2034 409 
Q 2484 409 2743 651 
Q 3003 894 3003 1313 
Q 3003 1734 2745 1975 
Q 2488 2216 2034 2216 
z
M 1403 2484 
Q 997 2584 770 2862 
Q 544 3141 544 3541 
Q 544 4100 942 4425 
Q 1341 4750 2034 4750 
Q 2731 4750 3128 4425 
Q 3525 4100 3525 3541 
Q 3525 3141 3298 2862 
Q 3072 2584 2669 2484 
Q 3125 2378 3379 2068 
Q 3634 1759 3634 1313 
Q 3634 634 3220 271 
Q 2806 -91 2034 -91 
Q 1263 -91 848 271 
Q 434 634 434 1313 
Q 434 1759 690 2068 
Q 947 2378 1403 2484 
z
M 1172 3481 
Q 1172 3119 1398 2916 
Q 1625 2713 2034 2713 
Q 2441 2713 2670 2916 
Q 2900 3119 2900 3481 
Q 2900 3844 2670 4047 
Q 2441 4250 2034 4250 
Q 1625 4250 1398 4047 
Q 1172 3844 1172 3481 
z
" transform="scale(0.015625)"/>
       </defs>
       <use xlink:href="#DejaVuSans-38"/>
       <use xlink:href="#DejaVuSans-30" transform="translate(63.623047 0)"/>
       <use xlink:href="#DejaVuSans-30" transform="translate(127.246094 0)"/>
       <use xlink:href="#DejaVuSans-30" transform="translate(190.869141 0)"/>
      </g>
     </g>
    </g>
    <g id="xtick_6">
     <g id="line2d_11">
      <path d="M 228.445492 284.4 
L 228.445492 7.2 
" clip-path="url(#pf9d058aff1)" style="fill: none; stroke-dasharray: 3.7,1.6; stroke-dashoffset: 0; stroke: #b0b0b0"/>
     </g>
     <g id="line2d_12">
      <g>
       <use xlink:href="#m23eb0693f4" x="228.445492" y="284.4" style="stroke: #000000; stroke-width: 0.8"/>
      </g>
     </g>
     <g id="text_6">
      <!-- 10000 -->
      <g transform="translate(212.539242 298.998438) scale(0.1 -0.1)">
       <defs>
        <path id="DejaVuSans-31" d="M 794 531 
L 1825 531 
L 1825 4091 
L 703 3866 
L 703 4441 
L 1819 4666 
L 2450 4666 
L 2450 531 
L 3481 531 
L 3481 0 
L 794 0 
L 794 531 
z
" transform="scale(0.015625)"/>
       </defs>
       <use xlink:href="#DejaVuSans-31"/>
       <use xlink:href="#DejaVuSans-30" transform="translate(63.623047 0)"/>
       <use xlink:href="#DejaVuSans-30" transform="translate(127.246094 0)"/>
       <use xlink:href="#DejaVuSans-30" transform="translate(190.869141 0)"/>
       <use xlink:href="#DejaVuSans-30" transform="translate(254.492188 0)"/>
      </g>
     </g>
    </g>
    <g id="xtick_7">
     <g id="line2d_13">
      <path d="M 263.429818 284.4 
L 263.429818 7.2 
" clip-path="url(#pf9d058aff1)" style="fill: none; stroke-dasharray: 3.7,1.6; stroke-dashoffset: 0; stroke: #b0b0b0"/>
     </g>
     <g id="line2d_14">
      <g>
       <use xlink:href="#m23eb0693f4" x="263.429818" y="284.4" style="stroke: #000000; stroke-width: 0.8"/>
      </g>
     </g>
     <g id="text_7">
      <!-- 12000 -->
      <g transform="translate(247.523568 298.998438) scale(0.1 -0.1)">
       <use xlink:href="#DejaVuSans-31"/>
       <use xlink:href="#DejaVuSans-32" transform="translate(63.623047 0)"/>
       <use xlink:href="#DejaVuSans-30" transform="translate(127.246094 0)"/>
       <use xlink:href="#DejaVuSans-30" transform="translate(190.869141 0)"/>
       <use xlink:href="#DejaVuSans-30" transform="translate(254.492188 0)"/>
      </g>
     </g>
    </g>
    <g id="xtick_8">
     <g id="line2d_15">
      <path d="M 298.414144 284.4 
L 298.414144 7.2 
" clip-path="url(#pf9d058aff1)" style="fill: none; stroke-dasharray: 3.7,1.6; stroke-dashoffset: 0; stroke: #b0b0b0"/>
     </g>
     <g id="line2d_16">
      <g>
       <use xlink:href="#m23eb0693f4" x="298.414144" y="284.4" style="stroke: #000000; stroke-width: 0.8"/>
      </g>
     </g>
     <g id="text_8">
      <!-- 14000 -->
      <g transform="translate(282.507894 298.998438) scale(0.1 -0.1)">
       <use xlink:href="#DejaVuSans-31"/>
       <use xlink:href="#DejaVuSans-34" transform="translate(63.623047 0)"/>
       <use xlink:href="#DejaVuSans-30" transform="translate(127.246094 0)"/>
       <use xlink:href="#DejaVuSans-30" transform="translate(190.869141 0)"/>
       <use xlink:href="#DejaVuSans-30" transform="translate(254.492188 0)"/>
      </g>
     </g>
    </g>
    <g id="text_9">
     <!-- Blob size (Bytes) -->
     <g transform="translate(122.114375 317.235625) scale(0.16 -0.16)">
      <defs>
       <path id="DejaVuSans-42" d="M 1259 2228 
L 1259 519 
L 2272 519 
Q 2781 519 3026 730 
Q 3272 941 3272 1375 
Q 3272 1813 3026 2020 
Q 2781 2228 2272 2228 
L 1259 2228 
z
M 1259 4147 
L 1259 2741 
L 2194 2741 
Q 2656 2741 2882 2914 
Q 3109 3088 3109 3444 
Q 3109 3797 2882 3972 
Q 2656 4147 2194 4147 
L 1259 4147 
z
M 628 4666 
L 2241 4666 
Q 2963 4666 3353 4366 
Q 3744 4066 3744 3513 
Q 3744 3084 3544 2831 
Q 3344 2578 2956 2516 
Q 3422 2416 3680 2098 
Q 3938 1781 3938 1306 
Q 3938 681 3513 340 
Q 3088 0 2303 0 
L 628 0 
L 628 4666 
z
" transform="scale(0.015625)"/>
       <path id="DejaVuSans-6c" d="M 603 4863 
L 1178 4863 
L 1178 0 
L 603 0 
L 603 4863 
z
" transform="scale(0.015625)"/>
       <path id="DejaVuSans-6f" d="M 1959 3097 
Q 1497 3097 1228 2736 
Q 959 2375 959 1747 
Q 959 1119 1226 758 
Q 1494 397 1959 397 
Q 2419 397 2687 759 
Q 2956 1122 2956 1747 
Q 2956 2369 2687 2733 
Q 2419 3097 1959 3097 
z
M 1959 3584 
Q 2709 3584 3137 3096 
Q 3566 2609 3566 1747 
Q 3566 888 3137 398 
Q 2709 -91 1959 -91 
Q 1206 -91 779 398 
Q 353 888 353 1747 
Q 353 2609 779 3096 
Q 1206 3584 1959 3584 
z
" transform="scale(0.015625)"/>
       <path id="DejaVuSans-62" d="M 3116 1747 
Q 3116 2381 2855 2742 
Q 2594 3103 2138 3103 
Q 1681 3103 1420 2742 
Q 1159 2381 1159 1747 
Q 1159 1113 1420 752 
Q 1681 391 2138 391 
Q 2594 391 2855 752 
Q 3116 1113 3116 1747 
z
M 1159 2969 
Q 1341 3281 1617 3432 
Q 1894 3584 2278 3584 
Q 2916 3584 3314 3078 
Q 3713 2572 3713 1747 
Q 3713 922 3314 415 
Q 2916 -91 2278 -91 
Q 1894 -91 1617 61 
Q 1341 213 1159 525 
L 1159 0 
L 581 0 
L 581 4863 
L 1159 4863 
L 1159 2969 
z
" transform="scale(0.015625)"/>
       <path id="DejaVuSans-20" transform="scale(0.015625)"/>
       <path id="DejaVuSans-73" d="M 2834 3397 
L 2834 2853 
Q 2591 2978 2328 3040 
Q 2066 3103 1784 3103 
Q 1356 3103 1142 2972 
Q 928 2841 928 2578 
Q 928 2378 1081 2264 
Q 1234 2150 1697 2047 
L 1894 2003 
Q 2506 1872 2764 1633 
Q 3022 1394 3022 966 
Q 3022 478 2636 193 
Q 2250 -91 1575 -91 
Q 1294 -91 989 -36 
Q 684 19 347 128 
L 347 722 
Q 666 556 975 473 
Q 1284 391 1588 391 
Q 1994 391 2212 530 
Q 2431 669 2431 922 
Q 2431 1156 2273 1281 
Q 2116 1406 1581 1522 
L 1381 1569 
Q 847 1681 609 1914 
Q 372 2147 372 2553 
Q 372 3047 722 3315 
Q 1072 3584 1716 3584 
Q 2034 3584 2315 3537 
Q 2597 3491 2834 3397 
z
" transform="scale(0.015625)"/>
       <path id="DejaVuSans-69" d="M 603 3500 
L 1178 3500 
L 1178 0 
L 603 0 
L 603 3500 
z
M 603 4863 
L 1178 4863 
L 1178 4134 
L 603 4134 
L 603 4863 
z
" transform="scale(0.015625)"/>
       <path id="DejaVuSans-7a" d="M 353 3500 
L 3084 3500 
L 3084 2975 
L 922 459 
L 3084 459 
L 3084 0 
L 275 0 
L 275 525 
L 2438 3041 
L 353 3041 
L 353 3500 
z
" transform="scale(0.015625)"/>
       <path id="DejaVuSans-65" d="M 3597 1894 
L 3597 1613 
L 953 1613 
Q 991 1019 1311 708 
Q 1631 397 2203 397 
Q 2534 397 2845 478 
Q 3156 559 3463 722 
L 3463 178 
Q 3153 47 2828 -22 
Q 2503 -91 2169 -91 
Q 1331 -91 842 396 
Q 353 884 353 1716 
Q 353 2575 817 3079 
Q 1281 3584 2069 3584 
Q 2775 3584 3186 3129 
Q 3597 2675 3597 1894 
z
M 3022 2063 
Q 3016 2534 2758 2815 
Q 2500 3097 2075 3097 
Q 1594 3097 1305 2825 
Q 1016 2553 972 2059 
L 3022 2063 
z
" transform="scale(0.015625)"/>
       <path id="DejaVuSans-28" d="M 1984 4856 
Q 1566 4138 1362 3434 
Q 1159 2731 1159 2009 
Q 1159 1288 1364 580 
Q 1569 -128 1984 -844 
L 1484 -844 
Q 1016 -109 783 600 
Q 550 1309 550 2009 
Q 550 2706 781 3412 
Q 1013 4119 1484 4856 
L 1984 4856 
z
" transform="scale(0.015625)"/>
       <path id="DejaVuSans-79" d="M 2059 -325 
Q 1816 -950 1584 -1140 
Q 1353 -1331 966 -1331 
L 506 -1331 
L 506 -850 
L 844 -850 
Q 1081 -850 1212 -737 
Q 1344 -625 1503 -206 
L 1606 56 
L 191 3500 
L 800 3500 
L 1894 763 
L 2988 3500 
L 3597 3500 
L 2059 -325 
z
" transform="scale(0.015625)"/>
       <path id="DejaVuSans-74" d="M 1172 4494 
L 1172 3500 
L 2356 3500 
L 2356 3053 
L 1172 3053 
L 1172 1153 
Q 1172 725 1289 603 
Q 1406 481 1766 481 
L 2356 481 
L 2356 0 
L 1766 0 
Q 1100 0 847 248 
Q 594 497 594 1153 
L 594 3053 
L 172 3053 
L 172 3500 
L 594 3500 
L 594 4494 
L 1172 4494 
z
" transform="scale(0.015625)"/>
       <path id="DejaVuSans-29" d="M 513 4856 
L 1013 4856 
Q 1481 4119 1714 3412 
Q 1947 2706 1947 2009 
Q 1947 1309 1714 600 
Q 1481 -109 1013 -844 
L 513 -844 
Q 928 -128 1133 580 
Q 1338 1288 1338 2009 
Q 1338 2731 1133 3434 
Q 928 4138 513 4856 
z
" transform="scale(0.015625)"/>
      </defs>
      <use xlink:href="#DejaVuSans-42"/>
      <use xlink:href="#DejaVuSans-6c" transform="translate(68.603516 0)"/>
      <use xlink:href="#DejaVuSans-6f" transform="translate(96.386719 0)"/>
      <use xlink:href="#DejaVuSans-62" transform="translate(157.568359 0)"/>
      <use xlink:href="#DejaVuSans-20" transform="translate(221.044922 0)"/>
      <use xlink:href="#DejaVuSans-73" transform="translate(252.832031 0)"/>
      <use xlink:href="#DejaVuSans-69" transform="translate(304.931641 0)"/>
      <use xlink:href="#DejaVuSans-7a" transform="translate(332.714844 0)"/>
      <use xlink:href="#DejaVuSans-65" transform="translate(385.205078 0)"/>
      <use xlink:href="#DejaVuSans-20" transform="translate(446.728516 0)"/>
      <use xlink:href="#DejaVuSans-28" transform="translate(478.515625 0)"/>
      <use xlink:href="#DejaVuSans-42" transform="translate(517.529297 0)"/>
      <use xlink:href="#DejaVuSans-79" transform="translate(586.132812 0)"/>
      <use xlink:href="#DejaVuSans-74" transform="translate(645.3125 0)"/>
      <use xlink:href="#DejaVuSans-65" transform="translate(684.521484 0)"/>
      <use xlink:href="#DejaVuSans-73" transform="translate(746.044922 0)"/>
      <use xlink:href="#DejaVuSans-29" transform="translate(798.144531 0)"/>
     </g>
    </g>
   </g>
   <g id="matplotlib.axis_2">
    <g id="ytick_1">
     <g id="line2d_17">
      <path d="M 49.588125 281.714965 
L 328.588125 281.714965 
" clip-path="url(#pf9d058aff1)" style="fill: none; stroke-dasharray: 3.7,1.6; stroke-dashoffset: 0; stroke: #b0b0b0"/>
     </g>
     <g id="line2d_18">
      <defs>
       <path id="m3ef1b93b83" d="M 0 0 
L -3.5 0 
" style="stroke: #000000; stroke-width: 0.8"/>
      </defs>
      <g>
       <use xlink:href="#m3ef1b93b83" x="49.588125" y="281.714965" style="stroke: #000000; stroke-width: 0.8"/>
      </g>
     </g>
     <g id="text_10">
      <!-- 1.0 -->
      <g transform="translate(26.685 285.514184) scale(0.1 -0.1)">
       <defs>
        <path id="DejaVuSans-2e" d="M 684 794 
L 1344 794 
L 1344 0 
L 684 0 
L 684 794 
z
" transform="scale(0.015625)"/>
       </defs>
       <use xlink:href="#DejaVuSans-31"/>
       <use xlink:href="#DejaVuSans-2e" transform="translate(63.623047 0)"/>
       <use xlink:href="#DejaVuSans-30" transform="translate(95.410156 0)"/>
      </g>
     </g>
    </g>
    <g id="ytick_2">
     <g id="line2d_19">
      <path d="M 49.588125 239.412014 
L 328.588125 239.412014 
" clip-path="url(#pf9d058aff1)" style="fill: none; stroke-dasharray: 3.7,1.6; stroke-dashoffset: 0; stroke: #b0b0b0"/>
     </g>
     <g id="line2d_20">
      <g>
       <use xlink:href="#m3ef1b93b83" x="49.588125" y="239.412014" style="stroke: #000000; stroke-width: 0.8"/>
      </g>
     </g>
     <g id="text_11">
      <!-- 1.2 -->
      <g transform="translate(26.685 243.211233) scale(0.1 -0.1)">
       <use xlink:href="#DejaVuSans-31"/>
       <use xlink:href="#DejaVuSans-2e" transform="translate(63.623047 0)"/>
       <use xlink:href="#DejaVuSans-32" transform="translate(95.410156 0)"/>
      </g>
     </g>
    </g>
    <g id="ytick_3">
     <g id="line2d_21">
      <path d="M 49.588125 197.109062 
L 328.588125 197.109062 
" clip-path="url(#pf9d058aff1)" style="fill: none; stroke-dasharray: 3.7,1.6; stroke-dashoffset: 0; stroke: #b0b0b0"/>
     </g>
     <g id="line2d_22">
      <g>
       <use xlink:href="#m3ef1b93b83" x="49.588125" y="197.109062" style="stroke: #000000; stroke-width: 0.8"/>
      </g>
     </g>
     <g id="text_12">
      <!-- 1.4 -->
      <g transform="translate(26.685 200.908281) scale(0.1 -0.1)">
       <use xlink:href="#DejaVuSans-31"/>
       <use xlink:href="#DejaVuSans-2e" transform="translate(63.623047 0)"/>
       <use xlink:href="#DejaVuSans-34" transform="translate(95.410156 0)"/>
      </g>
     </g>
    </g>
    <g id="ytick_4">
     <g id="line2d_23">
      <path d="M 49.588125 154.806111 
L 328.588125 154.806111 
" clip-path="url(#pf9d058aff1)" style="fill: none; stroke-dasharray: 3.7,1.6; stroke-dashoffset: 0; stroke: #b0b0b0"/>
     </g>
     <g id="line2d_24">
      <g>
       <use xlink:href="#m3ef1b93b83" x="49.588125" y="154.806111" style="stroke: #000000; stroke-width: 0.8"/>
      </g>
     </g>
     <g id="text_13">
      <!-- 1.6 -->
      <g transform="translate(26.685 158.60533) scale(0.1 -0.1)">
       <use xlink:href="#DejaVuSans-31"/>
       <use xlink:href="#DejaVuSans-2e" transform="translate(63.623047 0)"/>
       <use xlink:href="#DejaVuSans-36" transform="translate(95.410156 0)"/>
      </g>
     </g>
    </g>
    <g id="ytick_5">
     <g id="line2d_25">
      <path d="M 49.588125 112.50316 
L 328.588125 112.50316 
" clip-path="url(#pf9d058aff1)" style="fill: none; stroke-dasharray: 3.7,1.6; stroke-dashoffset: 0; stroke: #b0b0b0"/>
     </g>
     <g id="line2d_26">
      <g>
       <use xlink:href="#m3ef1b93b83" x="49.588125" y="112.50316" style="stroke: #000000; stroke-width: 0.8"/>
      </g>
     </g>
     <g id="text_14">
      <!-- 1.8 -->
      <g transform="translate(26.685 116.302378) scale(0.1 -0.1)">
       <use xlink:href="#DejaVuSans-31"/>
       <use xlink:href="#DejaVuSans-2e" transform="translate(63.623047 0)"/>
       <use xlink:href="#DejaVuSans-38" transform="translate(95.410156 0)"/>
      </g>
     </g>
    </g>
    <g id="ytick_6">
     <g id="line2d_27">
      <path d="M 49.588125 70.200208 
L 328.588125 70.200208 
" clip-path="url(#pf9d058aff1)" style="fill: none; stroke-dasharray: 3.7,1.6; stroke-dashoffset: 0; stroke: #b0b0b0"/>
     </g>
     <g id="line2d_28">
      <g>
       <use xlink:href="#m3ef1b93b83" x="49.588125" y="70.200208" style="stroke: #000000; stroke-width: 0.8"/>
      </g>
     </g>
     <g id="text_15">
      <!-- 2.0 -->
      <g transform="translate(26.685 73.999427) scale(0.1 -0.1)">
       <use xlink:href="#DejaVuSans-32"/>
       <use xlink:href="#DejaVuSans-2e" transform="translate(63.623047 0)"/>
       <use xlink:href="#DejaVuSans-30" transform="translate(95.410156 0)"/>
      </g>
     </g>
    </g>
    <g id="ytick_7">
     <g id="line2d_29">
      <path d="M 49.588125 27.897257 
L 328.588125 27.897257 
" clip-path="url(#pf9d058aff1)" style="fill: none; stroke-dasharray: 3.7,1.6; stroke-dashoffset: 0; stroke: #b0b0b0"/>
     </g>
     <g id="line2d_30">
      <g>
       <use xlink:href="#m3ef1b93b83" x="49.588125" y="27.897257" style="stroke: #000000; stroke-width: 0.8"/>
      </g>
     </g>
     <g id="text_16">
      <!-- 2.2 -->
      <g transform="translate(26.685 31.696476) scale(0.1 -0.1)">
       <use xlink:href="#DejaVuSans-32"/>
       <use xlink:href="#DejaVuSans-2e" transform="translate(63.623047 0)"/>
       <use xlink:href="#DejaVuSans-32" transform="translate(95.410156 0)"/>
      </g>
     </g>
    </g>
    <g id="text_17">
     <!-- Disk footprint (Gigabyte) -->
     <g transform="translate(19.3575 245.12375) rotate(-90) scale(0.16 -0.16)">
      <defs>
       <path id="DejaVuSans-44" d="M 1259 4147 
L 1259 519 
L 2022 519 
Q 2988 519 3436 956 
Q 3884 1394 3884 2338 
Q 3884 3275 3436 3711 
Q 2988 4147 2022 4147 
L 1259 4147 
z
M 628 4666 
L 1925 4666 
Q 3281 4666 3915 4102 
Q 4550 3538 4550 2338 
Q 4550 1131 3912 565 
Q 3275 0 1925 0 
L 628 0 
L 628 4666 
z
" transform="scale(0.015625)"/>
       <path id="DejaVuSans-6b" d="M 581 4863 
L 1159 4863 
L 1159 1991 
L 2875 3500 
L 3609 3500 
L 1753 1863 
L 3688 0 
L 2938 0 
L 1159 1709 
L 1159 0 
L 581 0 
L 581 4863 
z
" transform="scale(0.015625)"/>
       <path id="DejaVuSans-66" d="M 2375 4863 
L 2375 4384 
L 1825 4384 
Q 1516 4384 1395 4259 
Q 1275 4134 1275 3809 
L 1275 3500 
L 2222 3500 
L 2222 3053 
L 1275 3053 
L 1275 0 
L 697 0 
L 697 3053 
L 147 3053 
L 147 3500 
L 697 3500 
L 697 3744 
Q 697 4328 969 4595 
Q 1241 4863 1831 4863 
L 2375 4863 
z
" transform="scale(0.015625)"/>
       <path id="DejaVuSans-70" d="M 1159 525 
L 1159 -1331 
L 581 -1331 
L 581 3500 
L 1159 3500 
L 1159 2969 
Q 1341 3281 1617 3432 
Q 1894 3584 2278 3584 
Q 2916 3584 3314 3078 
Q 3713 2572 3713 1747 
Q 3713 922 3314 415 
Q 2916 -91 2278 -91 
Q 1894 -91 1617 61 
Q 1341 213 1159 525 
z
M 3116 1747 
Q 3116 2381 2855 2742 
Q 2594 3103 2138 3103 
Q 1681 3103 1420 2742 
Q 1159 2381 1159 1747 
Q 1159 1113 1420 752 
Q 1681 391 2138 391 
Q 2594 391 2855 752 
Q 3116 1113 3116 1747 
z
" transform="scale(0.015625)"/>
       <path id="DejaVuSans-72" d="M 2631 2963 
Q 2534 3019 2420 3045 
Q 2306 3072 2169 3072 
Q 1681 3072 1420 2755 
Q 1159 2438 1159 1844 
L 1159 0 
L 581 0 
L 581 3500 
L 1159 3500 
L 1159 2956 
Q 1341 3275 1631 3429 
Q 1922 3584 2338 3584 
Q 2397 3584 2469 3576 
Q 2541 3569 2628 3553 
L 2631 2963 
z
" transform="scale(0.015625)"/>
       <path id="DejaVuSans-6e" d="M 3513 2113 
L 3513 0 
L 2938 0 
L 2938 2094 
Q 2938 2591 2744 2837 
Q 2550 3084 2163 3084 
Q 1697 3084 1428 2787 
Q 1159 2491 1159 1978 
L 1159 0 
L 581 0 
L 581 3500 
L 1159 3500 
L 1159 2956 
Q 1366 3272 1645 3428 
Q 1925 3584 2291 3584 
Q 2894 3584 3203 3211 
Q 3513 2838 3513 2113 
z
" transform="scale(0.015625)"/>
       <path id="DejaVuSans-47" d="M 3809 666 
L 3809 1919 
L 2778 1919 
L 2778 2438 
L 4434 2438 
L 4434 434 
Q 4069 175 3628 42 
Q 3188 -91 2688 -91 
Q 1594 -91 976 548 
Q 359 1188 359 2328 
Q 359 3472 976 4111 
Q 1594 4750 2688 4750 
Q 3144 4750 3555 4637 
Q 3966 4525 4313 4306 
L 4313 3634 
Q 3963 3931 3569 4081 
Q 3175 4231 2741 4231 
Q 1884 4231 1454 3753 
Q 1025 3275 1025 2328 
Q 1025 1384 1454 906 
Q 1884 428 2741 428 
Q 3075 428 3337 486 
Q 3600 544 3809 666 
z
" transform="scale(0.015625)"/>
       <path id="DejaVuSans-67" d="M 2906 1791 
Q 2906 2416 2648 2759 
Q 2391 3103 1925 3103 
Q 1463 3103 1205 2759 
Q 947 2416 947 1791 
Q 947 1169 1205 825 
Q 1463 481 1925 481 
Q 2391 481 2648 825 
Q 2906 1169 2906 1791 
z
M 3481 434 
Q 3481 -459 3084 -895 
Q 2688 -1331 1869 -1331 
Q 1566 -1331 1297 -1286 
Q 1028 -1241 775 -1147 
L 775 -588 
Q 1028 -725 1275 -790 
Q 1522 -856 1778 -856 
Q 2344 -856 2625 -561 
Q 2906 -266 2906 331 
L 2906 616 
Q 2728 306 2450 153 
Q 2172 0 1784 0 
Q 1141 0 747 490 
Q 353 981 353 1791 
Q 353 2603 747 3093 
Q 1141 3584 1784 3584 
Q 2172 3584 2450 3431 
Q 2728 3278 2906 2969 
L 2906 3500 
L 3481 3500 
L 3481 434 
z
" transform="scale(0.015625)"/>
       <path id="DejaVuSans-61" d="M 2194 1759 
Q 1497 1759 1228 1600 
Q 959 1441 959 1056 
Q 959 750 1161 570 
Q 1363 391 1709 391 
Q 2188 391 2477 730 
Q 2766 1069 2766 1631 
L 2766 1759 
L 2194 1759 
z
M 3341 1997 
L 3341 0 
L 2766 0 
L 2766 531 
Q 2569 213 2275 61 
Q 1981 -91 1556 -91 
Q 1019 -91 701 211 
Q 384 513 384 1019 
Q 384 1609 779 1909 
Q 1175 2209 1959 2209 
L 2766 2209 
L 2766 2266 
Q 2766 2663 2505 2880 
Q 2244 3097 1772 3097 
Q 1472 3097 1187 3025 
Q 903 2953 641 2809 
L 641 3341 
Q 956 3463 1253 3523 
Q 1550 3584 1831 3584 
Q 2591 3584 2966 3190 
Q 3341 2797 3341 1997 
z
" transform="scale(0.015625)"/>
      </defs>
      <use xlink:href="#DejaVuSans-44"/>
      <use xlink:href="#DejaVuSans-69" transform="translate(77.001953 0)"/>
      <use xlink:href="#DejaVuSans-73" transform="translate(104.785156 0)"/>
      <use xlink:href="#DejaVuSans-6b" transform="translate(156.884766 0)"/>
      <use xlink:href="#DejaVuSans-20" transform="translate(214.794922 0)"/>
      <use xlink:href="#DejaVuSans-66" transform="translate(246.582031 0)"/>
      <use xlink:href="#DejaVuSans-6f" transform="translate(281.787109 0)"/>
      <use xlink:href="#DejaVuSans-6f" transform="translate(342.96875 0)"/>
      <use xlink:href="#DejaVuSans-74" transform="translate(404.150391 0)"/>
      <use xlink:href="#DejaVuSans-70" transform="translate(443.359375 0)"/>
      <use xlink:href="#DejaVuSans-72" transform="translate(506.835938 0)"/>
      <use xlink:href="#DejaVuSans-69" transform="translate(547.949219 0)"/>
      <use xlink:href="#DejaVuSans-6e" transform="translate(575.732422 0)"/>
      <use xlink:href="#DejaVuSans-74" transform="translate(639.111328 0)"/>
      <use xlink:href="#DejaVuSans-20" transform="translate(678.320312 0)"/>
      <use xlink:href="#DejaVuSans-28" transform="translate(710.107422 0)"/>
      <use xlink:href="#DejaVuSans-47" transform="translate(749.121094 0)"/>
      <use xlink:href="#DejaVuSans-69" transform="translate(826.611328 0)"/>
      <use xlink:href="#DejaVuSans-67" transform="translate(854.394531 0)"/>
      <use xlink:href="#DejaVuSans-61" transform="translate(917.871094 0)"/>
      <use xlink:href="#DejaVuSans-62" transform="translate(979.150391 0)"/>
      <use xlink:href="#DejaVuSans-79" transform="translate(1042.626953 0)"/>
      <use xlink:href="#DejaVuSans-74" transform="translate(1101.806641 0)"/>
      <use xlink:href="#DejaVuSans-65" transform="translate(1141.015625 0)"/>
      <use xlink:href="#DejaVuSans-29" transform="translate(1202.539062 0)"/>
     </g>
    </g>
   </g>
   <g id="line2d_31">
    <path d="M 62.269943 184.219674 
L 71.016025 181.740986 
L 75.389065 118.947542 
L 79.762106 180.088527 
L 84.135147 225.53115 
L 88.508188 19.8 
L 92.881228 72.678689 
L 97.254269 113.990165 
L 101.62731 148.691805 
L 106.000351 176.783609 
L 110.373391 200.744265 
L 114.746432 221.400003 
L 119.119473 239.577052 
L 123.492514 255.275413 
L 127.865554 49.544263 
L 132.238595 74.331148 
L 136.611636 95.813116 
L 140.984677 115.642624 
L 145.357717 133.819674 
L 149.730758 150.344264 
L 154.103799 165.216395 
L 158.47684 178.436068 
L 162.84988 190.82951 
L 167.222921 202.396724 
L 171.595962 213.137707 
L 175.969003 223.052462 
L 180.342043 232.140986 
L 184.715084 241.229511 
L 189.088125 248.665577 
L 193.461166 256.927872 
L 197.834207 150.344264 
L 202.207247 159.432789 
L 206.580288 169.347543 
L 210.953329 178.436068 
L 215.32637 186.698363 
L 219.69941 194.960658 
L 224.072451 202.396724 
L 228.445492 209.832789 
L 232.818533 216.442626 
L 237.191573 223.052462 
L 241.564614 229.662298 
L 245.937655 235.445905 
L 250.310696 241.229511 
L 254.683736 246.186888 
L 259.056777 251.144265 
L 263.429818 256.927872 
L 267.802859 185.045904 
L 272.175899 190.82951 
L 276.54894 196.613117 
L 280.921981 202.396724 
L 285.295022 208.18033 
L 289.668062 213.137707 
L 294.041103 218.095085 
L 298.414144 223.052462 
L 302.787185 228.009839 
L 307.160225 232.140986 
L 311.533266 237.098364 
L 315.906307 241.229511 
" clip-path="url(#pf9d058aff1)" style="fill: none; stroke: #000000; stroke-width: 1.5; stroke-linecap: square"/>
    <defs>
     <path id="m8265e0e6ec" d="M 0 1.5 
C 0.397805 1.5 0.77937 1.341951 1.06066 1.06066 
C 1.341951 0.77937 1.5 0.397805 1.5 0 
C 1.5 -0.397805 1.341951 -0.77937 1.06066 -1.06066 
C 0.77937 -1.341951 0.397805 -1.5 0 -1.5 
C -0.397805 -1.5 -0.77937 -1.341951 -1.06066 -1.06066 
C -1.341951 -0.77937 -1.5 -0.397805 -1.5 0 
C -1.5 0.397805 -1.341951 0.77937 -1.06066 1.06066 
C -0.77937 1.341951 -0.397805 1.5 0 1.5 
z
" style="stroke: #000000"/>
    </defs>
    <g clip-path="url(#pf9d058aff1)">
     <use xlink:href="#m8265e0e6ec" x="62.269943" y="184.219674" style="stroke: #000000"/>
     <use xlink:href="#m8265e0e6ec" x="71.016025" y="181.740986" style="stroke: #000000"/>
     <use xlink:href="#m8265e0e6ec" x="75.389065" y="118.947542" style="stroke: #000000"/>
     <use xlink:href="#m8265e0e6ec" x="79.762106" y="180.088527" style="stroke: #000000"/>
     <use xlink:href="#m8265e0e6ec" x="84.135147" y="225.53115" style="stroke: #000000"/>
     <use xlink:href="#m8265e0e6ec" x="88.508188" y="19.8" style="stroke: #000000"/>
     <use xlink:href="#m8265e0e6ec" x="92.881228" y="72.678689" style="stroke: #000000"/>
     <use xlink:href="#m8265e0e6ec" x="97.254269" y="113.990165" style="stroke: #000000"/>
     <use xlink:href="#m8265e0e6ec" x="101.62731" y="148.691805" style="stroke: #000000"/>
     <use xlink:href="#m8265e0e6ec" x="106.000351" y="176.783609" style="stroke: #000000"/>
     <use xlink:href="#m8265e0e6ec" x="110.373391" y="200.744265" style="stroke: #000000"/>
     <use xlink:href="#m8265e0e6ec" x="114.746432" y="221.400003" style="stroke: #000000"/>
     <use xlink:href="#m8265e0e6ec" x="119.119473" y="239.577052" style="stroke: #000000"/>
     <use xlink:href="#m8265e0e6ec" x="123.492514" y="255.275413" style="stroke: #000000"/>
     <use xlink:href="#m8265e0e6ec" x="127.865554" y="49.544263" style="stroke: #000000"/>
     <use xlink:href="#m8265e0e6ec" x="132.238595" y="74.331148" style="stroke: #000000"/>
     <use xlink:href="#m8265e0e6ec" x="136.611636" y="95.813116" style="stroke: #000000"/>
     <use xlink:href="#m8265e0e6ec" x="140.984677" y="115.642624" style="stroke: #000000"/>
     <use xlink:href="#m8265e0e6ec" x="145.357717" y="133.819674" style="stroke: #000000"/>
     <use xlink:href="#m8265e0e6ec" x="149.730758" y="150.344264" style="stroke: #000000"/>
     <use xlink:href="#m8265e0e6ec" x="154.103799" y="165.216395" style="stroke: #000000"/>
     <use xlink:href="#m8265e0e6ec" x="158.47684" y="178.436068" style="stroke: #000000"/>
     <use xlink:href="#m8265e0e6ec" x="162.84988" y="190.82951" style="stroke: #000000"/>
     <use xlink:href="#m8265e0e6ec" x="167.222921" y="202.396724" style="stroke: #000000"/>
     <use xlink:href="#m8265e0e6ec" x="171.595962" y="213.137707" style="stroke: #000000"/>
     <use xlink:href="#m8265e0e6ec" x="175.969003" y="223.052462" style="stroke: #000000"/>
     <use xlink:href="#m8265e0e6ec" x="180.342043" y="232.140986" style="stroke: #000000"/>
     <use xlink:href="#m8265e0e6ec" x="184.715084" y="241.229511" style="stroke: #000000"/>
     <use xlink:href="#m8265e0e6ec" x="189.088125" y="248.665577" style="stroke: #000000"/>
     <use xlink:href="#m8265e0e6ec" x="193.461166" y="256.927872" style="stroke: #000000"/>
     <use xlink:href="#m8265e0e6ec" x="197.834207" y="150.344264" style="stroke: #000000"/>
     <use xlink:href="#m8265e0e6ec" x="202.207247" y="159.432789" style="stroke: #000000"/>
     <use xlink:href="#m8265e0e6ec" x="206.580288" y="169.347543" style="stroke: #000000"/>
     <use xlink:href="#m8265e0e6ec" x="210.953329" y="178.436068" style="stroke: #000000"/>
     <use xlink:href="#m8265e0e6ec" x="215.32637" y="186.698363" style="stroke: #000000"/>
     <use xlink:href="#m8265e0e6ec" x="219.69941" y="194.960658" style="stroke: #000000"/>
     <use xlink:href="#m8265e0e6ec" x="224.072451" y="202.396724" style="stroke: #000000"/>
     <use xlink:href="#m8265e0e6ec" x="228.445492" y="209.832789" style="stroke: #000000"/>
     <use xlink:href="#m8265e0e6ec" x="232.818533" y="216.442626" style="stroke: #000000"/>
     <use xlink:href="#m8265e0e6ec" x="237.191573" y="223.052462" style="stroke: #000000"/>
     <use xlink:href="#m8265e0e6ec" x="241.564614" y="229.662298" style="stroke: #000000"/>
     <use xlink:href="#m8265e0e6ec" x="245.937655" y="235.445905" style="stroke: #000000"/>
     <use xlink:href="#m8265e0e6ec" x="250.310696" y="241.229511" style="stroke: #000000"/>
     <use xlink:href="#m8265e0e6ec" x="254.683736" y="246.186888" style="stroke: #000000"/>
     <use xlink:href="#m8265e0e6ec" x="259.056777" y="251.144265" style="stroke: #000000"/>
     <use xlink:href="#m8265e0e6ec" x="263.429818" y="256.927872" style="stroke: #000000"/>
     <use xlink:href="#m8265e0e6ec" x="267.802859" y="185.045904" style="stroke: #000000"/>
     <use xlink:href="#m8265e0e6ec" x="272.175899" y="190.82951" style="stroke: #000000"/>
     <use xlink:href="#m8265e0e6ec" x="276.54894" y="196.613117" style="stroke: #000000"/>
     <use xlink:href="#m8265e0e6ec" x="280.921981" y="202.396724" style="stroke: #000000"/>
     <use xlink:href="#m8265e0e6ec" x="285.295022" y="208.18033" style="stroke: #000000"/>
     <use xlink:href="#m8265e0e6ec" x="289.668062" y="213.137707" style="stroke: #000000"/>
     <use xlink:href="#m8265e0e6ec" x="294.041103" y="218.095085" style="stroke: #000000"/>
     <use xlink:href="#m8265e0e6ec" x="298.414144" y="223.052462" style="stroke: #000000"/>
     <use xlink:href="#m8265e0e6ec" x="302.787185" y="228.009839" style="stroke: #000000"/>
     <use xlink:href="#m8265e0e6ec" x="307.160225" y="232.140986" style="stroke: #000000"/>
     <use xlink:href="#m8265e0e6ec" x="311.533266" y="237.098364" style="stroke: #000000"/>
     <use xlink:href="#m8265e0e6ec" x="315.906307" y="241.229511" style="stroke: #000000"/>
    </g>
   </g>
   <g id="line2d_32">
    <path d="M 62.269943 241.229511 
L 71.016025 239.577052 
L 75.389065 208.18033 
L 79.762106 195.786888 
L 84.135147 238.750823 
L 88.508188 195.786888 
L 92.881228 228.836068 
L 97.254269 136.298362 
L 101.62731 168.521313 
L 106.000351 194.960658 
L 110.373391 218.095085 
L 114.746432 237.924593 
L 119.119473 254.449183 
L 123.492514 45.413115 
L 127.865554 71.02623 
L 132.238595 94.986886 
L 136.611636 115.642624 
L 140.984677 133.819674 
L 145.357717 151.170494 
L 149.730758 166.868854 
L 154.103799 180.914756 
L 158.47684 194.134429 
L 162.84988 205.701642 
L 167.222921 216.442626 
L 171.595962 227.183609 
L 175.969003 236.272134 
L 180.342043 244.534429 
L 184.715084 253.622954 
L 189.088125 261.05902 
L 193.461166 268.495085 
L 197.834207 59.459017 
L 202.207247 72.678689 
L 206.580288 84.245902 
L 210.953329 95.813116 
L 215.32637 106.5541 
L 219.69941 116.468854 
L 224.072451 126.383608 
L 228.445492 135.472133 
L 232.818533 143.734428 
L 237.191573 151.996723 
L 241.564614 160.259018 
L 245.937655 167.695084 
L 250.310696 175.13115 
L 254.683736 181.740986 
L 259.056777 188.350822 
L 263.429818 194.960658 
L 267.802859 200.744265 
L 272.175899 206.527871 
L 276.54894 212.311478 
L 280.921981 217.268855 
L 285.295022 222.226232 
L 289.668062 228.009839 
L 294.041103 232.140986 
L 298.414144 237.098364 
L 302.787185 242.055741 
L 307.160225 245.360659 
L 311.533266 250.318036 
L 315.906307 254.449183 
" clip-path="url(#pf9d058aff1)" style="fill: none; stroke: #0343df; stroke-width: 1.5; stroke-linecap: square"/>
    <defs>
     <path id="m779bd6d889" d="M 0 1.5 
C 0.397805 1.5 0.77937 1.341951 1.06066 1.06066 
C 1.341951 0.77937 1.5 0.397805 1.5 0 
C 1.5 -0.397805 1.341951 -0.77937 1.06066 -1.06066 
C 0.77937 -1.341951 0.397805 -1.5 0 -1.5 
C -0.397805 -1.5 -0.77937 -1.341951 -1.06066 -1.06066 
C -1.341951 -0.77937 -1.5 -0.397805 -1.5 0 
C -1.5 0.397805 -1.341951 0.77937 -1.06066 1.06066 
C -0.77937 1.341951 -0.397805 1.5 0 1.5 
z
" style="stroke: #0343df"/>
    </defs>
    <g clip-path="url(#pf9d058aff1)">
     <use xlink:href="#m779bd6d889" x="62.269943" y="241.229511" style="fill: #0343df; stroke: #0343df"/>
     <use xlink:href="#m779bd6d889" x="71.016025" y="239.577052" style="fill: #0343df; stroke: #0343df"/>
     <use xlink:href="#m779bd6d889" x="75.389065" y="208.18033" style="fill: #0343df; stroke: #0343df"/>
     <use xlink:href="#m779bd6d889" x="79.762106" y="195.786888" style="fill: #0343df; stroke: #0343df"/>
     <use xlink:href="#m779bd6d889" x="84.135147" y="238.750823" style="fill: #0343df; stroke: #0343df"/>
     <use xlink:href="#m779bd6d889" x="88.508188" y="195.786888" style="fill: #0343df; stroke: #0343df"/>
     <use xlink:href="#m779bd6d889" x="92.881228" y="228.836068" style="fill: #0343df; stroke: #0343df"/>
     <use xlink:href="#m779bd6d889" x="97.254269" y="136.298362" style="fill: #0343df; stroke: #0343df"/>
     <use xlink:href="#m779bd6d889" x="101.62731" y="168.521313" style="fill: #0343df; stroke: #0343df"/>
     <use xlink:href="#m779bd6d889" x="106.000351" y="194.960658" style="fill: #0343df; stroke: #0343df"/>
     <use xlink:href="#m779bd6d889" x="110.373391" y="218.095085" style="fill: #0343df; stroke: #0343df"/>
     <use xlink:href="#m779bd6d889" x="114.746432" y="237.924593" style="fill: #0343df; stroke: #0343df"/>
     <use xlink:href="#m779bd6d889" x="119.119473" y="254.449183" style="fill: #0343df; stroke: #0343df"/>
     <use xlink:href="#m779bd6d889" x="123.492514" y="45.413115" style="fill: #0343df; stroke: #0343df"/>
     <use xlink:href="#m779bd6d889" x="127.865554" y="71.02623" style="fill: #0343df; stroke: #0343df"/>
     <use xlink:href="#m779bd6d889" x="132.238595" y="94.986886" style="fill: #0343df; stroke: #0343df"/>
     <use xlink:href="#m779bd6d889" x="136.611636" y="115.642624" style="fill: #0343df; stroke: #0343df"/>
     <use xlink:href="#m779bd6d889" x="140.984677" y="133.819674" style="fill: #0343df; stroke: #0343df"/>
     <use xlink:href="#m779bd6d889" x="145.357717" y="151.170494" style="fill: #0343df; stroke: #0343df"/>
     <use xlink:href="#m779bd6d889" x="149.730758" y="166.868854" style="fill: #0343df; stroke: #0343df"/>
     <use xlink:href="#m779bd6d889" x="154.103799" y="180.914756" style="fill: #0343df; stroke: #0343df"/>
     <use xlink:href="#m779bd6d889" x="158.47684" y="194.134429" style="fill: #0343df; stroke: #0343df"/>
     <use xlink:href="#m779bd6d889" x="162.84988" y="205.701642" style="fill: #0343df; stroke: #0343df"/>
     <use xlink:href="#m779bd6d889" x="167.222921" y="216.442626" style="fill: #0343df; stroke: #0343df"/>
     <use xlink:href="#m779bd6d889" x="171.595962" y="227.183609" style="fill: #0343df; stroke: #0343df"/>
     <use xlink:href="#m779bd6d889" x="175.969003" y="236.272134" style="fill: #0343df; stroke: #0343df"/>
     <use xlink:href="#m779bd6d889" x="180.342043" y="244.534429" style="fill: #0343df; stroke: #0343df"/>
     <use xlink:href="#m779bd6d889" x="184.715084" y="253.622954" style="fill: #0343df; stroke: #0343df"/>
     <use xlink:href="#m779bd6d889" x="189.088125" y="261.05902" style="fill: #0343df; stroke: #0343df"/>
     <use xlink:href="#m779bd6d889" x="193.461166" y="268.495085" style="fill: #0343df; stroke: #0343df"/>
     <use xlink:href="#m779bd6d889" x="197.834207" y="59.459017" style="fill: #0343df; stroke: #0343df"/>
     <use xlink:href="#m779bd6d889" x="202.207247" y="72.678689" style="fill: #0343df; stroke: #0343df"/>
     <use xlink:href="#m779bd6d889" x="206.580288" y="84.245902" style="fill: #0343df; stroke: #0343df"/>
     <use xlink:href="#m779bd6d889" x="210.953329" y="95.813116" style="fill: #0343df; stroke: #0343df"/>
     <use xlink:href="#m779bd6d889" x="215.32637" y="106.5541" style="fill: #0343df; stroke: #0343df"/>
     <use xlink:href="#m779bd6d889" x="219.69941" y="116.468854" style="fill: #0343df; stroke: #0343df"/>
     <use xlink:href="#m779bd6d889" x="224.072451" y="126.383608" style="fill: #0343df; stroke: #0343df"/>
     <use xlink:href="#m779bd6d889" x="228.445492" y="135.472133" style="fill: #0343df; stroke: #0343df"/>
     <use xlink:href="#m779bd6d889" x="232.818533" y="143.734428" style="fill: #0343df; stroke: #0343df"/>
     <use xlink:href="#m779bd6d889" x="237.191573" y="151.996723" style="fill: #0343df; stroke: #0343df"/>
     <use xlink:href="#m779bd6d889" x="241.564614" y="160.259018" style="fill: #0343df; stroke: #0343df"/>
     <use xlink:href="#m779bd6d889" x="245.937655" y="167.695084" style="fill: #0343df; stroke: #0343df"/>
     <use xlink:href="#m779bd6d889" x="250.310696" y="175.13115" style="fill: #0343df; stroke: #0343df"/>
     <use xlink:href="#m779bd6d889" x="254.683736" y="181.740986" style="fill: #0343df; stroke: #0343df"/>
     <use xlink:href="#m779bd6d889" x="259.056777" y="188.350822" style="fill: #0343df; stroke: #0343df"/>
     <use xlink:href="#m779bd6d889" x="263.429818" y="194.960658" style="fill: #0343df; stroke: #0343df"/>
     <use xlink:href="#m779bd6d889" x="267.802859" y="200.744265" style="fill: #0343df; stroke: #0343df"/>
     <use xlink:href="#m779bd6d889" x="272.175899" y="206.527871" style="fill: #0343df; stroke: #0343df"/>
     <use xlink:href="#m779bd6d889" x="276.54894" y="212.311478" style="fill: #0343df; stroke: #0343df"/>
     <use xlink:href="#m779bd6d889" x="280.921981" y="217.268855" style="fill: #0343df; stroke: #0343df"/>
     <use xlink:href="#m779bd6d889" x="285.295022" y="222.226232" style="fill: #0343df; stroke: #0343df"/>
     <use xlink:href="#m779bd6d889" x="289.668062" y="228.009839" style="fill: #0343df; stroke: #0343df"/>
     <use xlink:href="#m779bd6d889" x="294.041103" y="232.140986" style="fill: #0343df; stroke: #0343df"/>
     <use xlink:href="#m779bd6d889" x="298.414144" y="237.098364" style="fill: #0343df; stroke: #0343df"/>
     <use xlink:href="#m779bd6d889" x="302.787185" y="242.055741" style="fill: #0343df; stroke: #0343df"/>
     <use xlink:href="#m779bd6d889" x="307.160225" y="245.360659" style="fill: #0343df; stroke: #0343df"/>
     <use xlink:href="#m779bd6d889" x="311.533266" y="250.318036" style="fill: #0343df; stroke: #0343df"/>
     <use xlink:href="#m779bd6d889" x="315.906307" y="254.449183" style="fill: #0343df; stroke: #0343df"/>
    </g>
   </g>
   <g id="line2d_33">
    <path d="M 62.269943 244.534426 
L 71.016025 242.055737 
L 75.389065 237.92459 
L 79.762106 232.967213 
L 84.135147 241.229508 
L 88.508188 241.229508 
L 92.881228 232.140983 
L 97.254269 257.754098 
L 101.62731 236.272131 
L 106.000351 257.754098 
L 110.373391 221.399999 
L 114.746432 241.229508 
L 119.119473 257.754098 
L 123.492514 199.091802 
L 127.865554 216.442622 
L 132.238595 231.314754 
L 136.611636 245.360655 
L 140.984677 257.754098 
L 145.357717 156.954097 
L 149.730758 172.652458 
L 154.103799 185.87213 
L 158.47684 199.091802 
L 162.84988 210.659016 
L 167.222921 221.399999 
L 171.595962 231.314754 
L 175.969003 240.403278 
L 180.342043 249.491803 
L 184.715084 256.927869 
L 189.088125 264.363934 
L 193.461166 271.8 
L 197.834207 65.24262 
L 202.207247 77.636063 
L 206.580288 89.203276 
L 210.953329 100.77049 
L 215.32637 111.511473 
L 219.69941 120.599998 
L 224.072451 130.514752 
L 228.445492 139.603277 
L 232.818533 147.865572 
L 237.191573 156.954097 
L 241.564614 164.390163 
L 245.937655 170.999999 
L 250.310696 179.262294 
L 254.683736 185.87213 
L 259.056777 191.655737 
L 263.429818 198.265573 
L 267.802859 204.049179 
L 272.175899 209.832786 
L 276.54894 215.616393 
L 280.921981 220.57377 
L 285.295022 225.531147 
L 289.668062 231.314754 
L 294.041103 235.445901 
L 298.414144 240.403278 
L 302.787185 244.534426 
L 307.160225 248.665573 
L 311.533266 252.796721 
L 315.906307 256.101639 
" clip-path="url(#pf9d058aff1)" style="fill: none; stroke: #15b01a; stroke-width: 1.5; stroke-linecap: square"/>
    <defs>
     <path id="m4aeba1c80b" d="M 0 1.5 
C 0.397805 1.5 0.77937 1.341951 1.06066 1.06066 
C 1.341951 0.77937 1.5 0.397805 1.5 0 
C 1.5 -0.397805 1.341951 -0.77937 1.06066 -1.06066 
C 0.77937 -1.341951 0.397805 -1.5 0 -1.5 
C -0.397805 -1.5 -0.77937 -1.341951 -1.06066 -1.06066 
C -1.341951 -0.77937 -1.5 -0.397805 -1.5 0 
C -1.5 0.397805 -1.341951 0.77937 -1.06066 1.06066 
C -0.77937 1.341951 -0.397805 1.5 0 1.5 
z
" style="stroke: #15b01a"/>
    </defs>
    <g clip-path="url(#pf9d058aff1)">
     <use xlink:href="#m4aeba1c80b" x="62.269943" y="244.534426" style="fill: #15b01a; stroke: #15b01a"/>
     <use xlink:href="#m4aeba1c80b" x="71.016025" y="242.055737" style="fill: #15b01a; stroke: #15b01a"/>
     <use xlink:href="#m4aeba1c80b" x="75.389065" y="237.92459" style="fill: #15b01a; stroke: #15b01a"/>
     <use xlink:href="#m4aeba1c80b" x="79.762106" y="232.967213" style="fill: #15b01a; stroke: #15b01a"/>
     <use xlink:href="#m4aeba1c80b" x="84.135147" y="241.229508" style="fill: #15b01a; stroke: #15b01a"/>
     <use xlink:href="#m4aeba1c80b" x="88.508188" y="241.229508" style="fill: #15b01a; stroke: #15b01a"/>
     <use xlink:href="#m4aeba1c80b" x="92.881228" y="232.140983" style="fill: #15b01a; stroke: #15b01a"/>
     <use xlink:href="#m4aeba1c80b" x="97.254269" y="257.754098" style="fill: #15b01a; stroke: #15b01a"/>
     <use xlink:href="#m4aeba1c80b" x="101.62731" y="236.272131" style="fill: #15b01a; stroke: #15b01a"/>
     <use xlink:href="#m4aeba1c80b" x="106.000351" y="257.754098" style="fill: #15b01a; stroke: #15b01a"/>
     <use xlink:href="#m4aeba1c80b" x="110.373391" y="221.399999" style="fill: #15b01a; stroke: #15b01a"/>
     <use xlink:href="#m4aeba1c80b" x="114.746432" y="241.229508" style="fill: #15b01a; stroke: #15b01a"/>
     <use xlink:href="#m4aeba1c80b" x="119.119473" y="257.754098" style="fill: #15b01a; stroke: #15b01a"/>
     <use xlink:href="#m4aeba1c80b" x="123.492514" y="199.091802" style="fill: #15b01a; stroke: #15b01a"/>
     <use xlink:href="#m4aeba1c80b" x="127.865554" y="216.442622" style="fill: #15b01a; stroke: #15b01a"/>
     <use xlink:href="#m4aeba1c80b" x="132.238595" y="231.314754" style="fill: #15b01a; stroke: #15b01a"/>
     <use xlink:href="#m4aeba1c80b" x="136.611636" y="245.360655" style="fill: #15b01a; stroke: #15b01a"/>
     <use xlink:href="#m4aeba1c80b" x="140.984677" y="257.754098" style="fill: #15b01a; stroke: #15b01a"/>
     <use xlink:href="#m4aeba1c80b" x="145.357717" y="156.954097" style="fill: #15b01a; stroke: #15b01a"/>
     <use xlink:href="#m4aeba1c80b" x="149.730758" y="172.652458" style="fill: #15b01a; stroke: #15b01a"/>
     <use xlink:href="#m4aeba1c80b" x="154.103799" y="185.87213" style="fill: #15b01a; stroke: #15b01a"/>
     <use xlink:href="#m4aeba1c80b" x="158.47684" y="199.091802" style="fill: #15b01a; stroke: #15b01a"/>
     <use xlink:href="#m4aeba1c80b" x="162.84988" y="210.659016" style="fill: #15b01a; stroke: #15b01a"/>
     <use xlink:href="#m4aeba1c80b" x="167.222921" y="221.399999" style="fill: #15b01a; stroke: #15b01a"/>
     <use xlink:href="#m4aeba1c80b" x="171.595962" y="231.314754" style="fill: #15b01a; stroke: #15b01a"/>
     <use xlink:href="#m4aeba1c80b" x="175.969003" y="240.403278" style="fill: #15b01a; stroke: #15b01a"/>
     <use xlink:href="#m4aeba1c80b" x="180.342043" y="249.491803" style="fill: #15b01a; stroke: #15b01a"/>
     <use xlink:href="#m4aeba1c80b" x="184.715084" y="256.927869" style="fill: #15b01a; stroke: #15b01a"/>
     <use xlink:href="#m4aeba1c80b" x="189.088125" y="264.363934" style="fill: #15b01a; stroke: #15b01a"/>
     <use xlink:href="#m4aeba1c80b" x="193.461166" y="271.8" style="fill: #15b01a; stroke: #15b01a"/>
     <use xlink:href="#m4aeba1c80b" x="197.834207" y="65.24262" style="fill: #15b01a; stroke: #15b01a"/>
     <use xlink:href="#m4aeba1c80b" x="202.207247" y="77.636063" style="fill: #15b01a; stroke: #15b01a"/>
     <use xlink:href="#m4aeba1c80b" x="206.580288" y="89.203276" style="fill: #15b01a; stroke: #15b01a"/>
     <use xlink:href="#m4aeba1c80b" x="210.953329" y="100.77049" style="fill: #15b01a; stroke: #15b01a"/>
     <use xlink:href="#m4aeba1c80b" x="215.32637" y="111.511473" style="fill: #15b01a; stroke: #15b01a"/>
     <use xlink:href="#m4aeba1c80b" x="219.69941" y="120.599998" style="fill: #15b01a; stroke: #15b01a"/>
     <use xlink:href="#m4aeba1c80b" x="224.072451" y="130.514752" style="fill: #15b01a; stroke: #15b01a"/>
     <use xlink:href="#m4aeba1c80b" x="228.445492" y="139.603277" style="fill: #15b01a; stroke: #15b01a"/>
     <use xlink:href="#m4aeba1c80b" x="232.818533" y="147.865572" style="fill: #15b01a; stroke: #15b01a"/>
     <use xlink:href="#m4aeba1c80b" x="237.191573" y="156.954097" style="fill: #15b01a; stroke: #15b01a"/>
     <use xlink:href="#m4aeba1c80b" x="241.564614" y="164.390163" style="fill: #15b01a; stroke: #15b01a"/>
     <use xlink:href="#m4aeba1c80b" x="245.937655" y="170.999999" style="fill: #15b01a; stroke: #15b01a"/>
     <use xlink:href="#m4aeba1c80b" x="250.310696" y="179.262294" style="fill: #15b01a; stroke: #15b01a"/>
     <use xlink:href="#m4aeba1c80b" x="254.683736" y="185.87213" style="fill: #15b01a; stroke: #15b01a"/>
     <use xlink:href="#m4aeba1c80b" x="259.056777" y="191.655737" style="fill: #15b01a; stroke: #15b01a"/>
     <use xlink:href="#m4aeba1c80b" x="263.429818" y="198.265573" style="fill: #15b01a; stroke: #15b01a"/>
     <use xlink:href="#m4aeba1c80b" x="267.802859" y="204.049179" style="fill: #15b01a; stroke: #15b01a"/>
     <use xlink:href="#m4aeba1c80b" x="272.175899" y="209.832786" style="fill: #15b01a; stroke: #15b01a"/>
     <use xlink:href="#m4aeba1c80b" x="276.54894" y="215.616393" style="fill: #15b01a; stroke: #15b01a"/>
     <use xlink:href="#m4aeba1c80b" x="280.921981" y="220.57377" style="fill: #15b01a; stroke: #15b01a"/>
     <use xlink:href="#m4aeba1c80b" x="285.295022" y="225.531147" style="fill: #15b01a; stroke: #15b01a"/>
     <use xlink:href="#m4aeba1c80b" x="289.668062" y="231.314754" style="fill: #15b01a; stroke: #15b01a"/>
     <use xlink:href="#m4aeba1c80b" x="294.041103" y="235.445901" style="fill: #15b01a; stroke: #15b01a"/>
     <use xlink:href="#m4aeba1c80b" x="298.414144" y="240.403278" style="fill: #15b01a; stroke: #15b01a"/>
     <use xlink:href="#m4aeba1c80b" x="302.787185" y="244.534426" style="fill: #15b01a; stroke: #15b01a"/>
     <use xlink:href="#m4aeba1c80b" x="307.160225" y="248.665573" style="fill: #15b01a; stroke: #15b01a"/>
     <use xlink:href="#m4aeba1c80b" x="311.533266" y="252.796721" style="fill: #15b01a; stroke: #15b01a"/>
     <use xlink:href="#m4aeba1c80b" x="315.906307" y="256.101639" style="fill: #15b01a; stroke: #15b01a"/>
    </g>
   </g>
   <g id="line2d_34">
    <path d="M 62.269943 248.665577 
L 71.016025 250.318036 
L 75.389065 247.013118 
L 79.762106 245.360659 
L 84.135147 255.275413 
L 88.508188 256.927872 
L 92.881228 250.318036 
L 97.254269 256.927872 
L 101.62731 258.580331 
L 106.000351 256.927872 
L 110.373391 250.318036 
L 114.746432 238.750823 
L 119.119473 256.927872 
L 123.492514 238.750823 
L 127.865554 253.622954 
L 132.238595 230.488527 
L 136.611636 243.7082 
L 140.984677 256.927872 
L 145.357717 222.226232 
L 149.730758 235.445905 
L 154.103799 245.360659 
L 158.47684 256.927872 
L 162.84988 209.00656 
L 167.222921 220.573773 
L 171.595962 230.488527 
L 175.969003 238.750823 
L 180.342043 248.665577 
L 184.715084 255.275413 
L 189.088125 187.524592 
L 193.461166 197.439347 
L 197.834207 207.354101 
L 202.207247 215.616396 
L 206.580288 222.226232 
L 210.953329 230.488527 
L 215.32637 237.098364 
L 219.69941 243.7082 
L 224.072451 250.318036 
L 228.445492 255.275413 
L 232.818533 147.865575 
L 237.191573 156.127871 
L 241.564614 164.390166 
L 245.937655 171.000002 
L 250.310696 177.609838 
L 254.683736 184.219674 
L 259.056777 190.82951 
L 263.429818 197.439347 
L 267.802859 204.049183 
L 272.175899 209.00656 
L 276.54894 215.616396 
L 280.921981 220.573773 
L 285.295022 225.53115 
L 289.668062 230.488527 
L 294.041103 233.793445 
L 298.414144 238.750823 
L 302.787185 243.7082 
L 307.160225 248.665577 
L 311.533266 251.970495 
L 315.906307 255.275413 
" clip-path="url(#pf9d058aff1)" style="fill: none; stroke: #e50000; stroke-width: 1.5; stroke-linecap: square"/>
    <defs>
     <path id="mad3a0c2486" d="M 0 1.5 
C 0.397805 1.5 0.77937 1.341951 1.06066 1.06066 
C 1.341951 0.77937 1.5 0.397805 1.5 0 
C 1.5 -0.397805 1.341951 -0.77937 1.06066 -1.06066 
C 0.77937 -1.341951 0.397805 -1.5 0 -1.5 
C -0.397805 -1.5 -0.77937 -1.341951 -1.06066 -1.06066 
C -1.341951 -0.77937 -1.5 -0.397805 -1.5 0 
C -1.5 0.397805 -1.341951 0.77937 -1.06066 1.06066 
C -0.77937 1.341951 -0.397805 1.5 0 1.5 
z
" style="stroke: #e50000"/>
    </defs>
    <g clip-path="url(#pf9d058aff1)">
     <use xlink:href="#mad3a0c2486" x="62.269943" y="248.665577" style="fill: #e50000; stroke: #e50000"/>
     <use xlink:href="#mad3a0c2486" x="71.016025" y="250.318036" style="fill: #e50000; stroke: #e50000"/>
     <use xlink:href="#mad3a0c2486" x="75.389065" y="247.013118" style="fill: #e50000; stroke: #e50000"/>
     <use xlink:href="#mad3a0c2486" x="79.762106" y="245.360659" style="fill: #e50000; stroke: #e50000"/>
     <use xlink:href="#mad3a0c2486" x="84.135147" y="255.275413" style="fill: #e50000; stroke: #e50000"/>
     <use xlink:href="#mad3a0c2486" x="88.508188" y="256.927872" style="fill: #e50000; stroke: #e50000"/>
     <use xlink:href="#mad3a0c2486" x="92.881228" y="250.318036" style="fill: #e50000; stroke: #e50000"/>
     <use xlink:href="#mad3a0c2486" x="97.254269" y="256.927872" style="fill: #e50000; stroke: #e50000"/>
     <use xlink:href="#mad3a0c2486" x="101.62731" y="258.580331" style="fill: #e50000; stroke: #e50000"/>
     <use xlink:href="#mad3a0c2486" x="106.000351" y="256.927872" style="fill: #e50000; stroke: #e50000"/>
     <use xlink:href="#mad3a0c2486" x="110.373391" y="250.318036" style="fill: #e50000; stroke: #e50000"/>
     <use xlink:href="#mad3a0c2486" x="114.746432" y="238.750823" style="fill: #e50000; stroke: #e50000"/>
     <use xlink:href="#mad3a0c2486" x="119.119473" y="256.927872" style="fill: #e50000; stroke: #e50000"/>
     <use xlink:href="#mad3a0c2486" x="123.492514" y="238.750823" style="fill: #e50000; stroke: #e50000"/>
     <use xlink:href="#mad3a0c2486" x="127.865554" y="253.622954" style="fill: #e50000; stroke: #e50000"/>
     <use xlink:href="#mad3a0c2486" x="132.238595" y="230.488527" style="fill: #e50000; stroke: #e50000"/>
     <use xlink:href="#mad3a0c2486" x="136.611636" y="243.7082" style="fill: #e50000; stroke: #e50000"/>
     <use xlink:href="#mad3a0c2486" x="140.984677" y="256.927872" style="fill: #e50000; stroke: #e50000"/>
     <use xlink:href="#mad3a0c2486" x="145.357717" y="222.226232" style="fill: #e50000; stroke: #e50000"/>
     <use xlink:href="#mad3a0c2486" x="149.730758" y="235.445905" style="fill: #e50000; stroke: #e50000"/>
     <use xlink:href="#mad3a0c2486" x="154.103799" y="245.360659" style="fill: #e50000; stroke: #e50000"/>
     <use xlink:href="#mad3a0c2486" x="158.47684" y="256.927872" style="fill: #e50000; stroke: #e50000"/>
     <use xlink:href="#mad3a0c2486" x="162.84988" y="209.00656" style="fill: #e50000; stroke: #e50000"/>
     <use xlink:href="#mad3a0c2486" x="167.222921" y="220.573773" style="fill: #e50000; stroke: #e50000"/>
     <use xlink:href="#mad3a0c2486" x="171.595962" y="230.488527" style="fill: #e50000; stroke: #e50000"/>
     <use xlink:href="#mad3a0c2486" x="175.969003" y="238.750823" style="fill: #e50000; stroke: #e50000"/>
     <use xlink:href="#mad3a0c2486" x="180.342043" y="248.665577" style="fill: #e50000; stroke: #e50000"/>
     <use xlink:href="#mad3a0c2486" x="184.715084" y="255.275413" style="fill: #e50000; stroke: #e50000"/>
     <use xlink:href="#mad3a0c2486" x="189.088125" y="187.524592" style="fill: #e50000; stroke: #e50000"/>
     <use xlink:href="#mad3a0c2486" x="193.461166" y="197.439347" style="fill: #e50000; stroke: #e50000"/>
     <use xlink:href="#mad3a0c2486" x="197.834207" y="207.354101" style="fill: #e50000; stroke: #e50000"/>
     <use xlink:href="#mad3a0c2486" x="202.207247" y="215.616396" style="fill: #e50000; stroke: #e50000"/>
     <use xlink:href="#mad3a0c2486" x="206.580288" y="222.226232" style="fill: #e50000; stroke: #e50000"/>
     <use xlink:href="#mad3a0c2486" x="210.953329" y="230.488527" style="fill: #e50000; stroke: #e50000"/>
     <use xlink:href="#mad3a0c2486" x="215.32637" y="237.098364" style="fill: #e50000; stroke: #e50000"/>
     <use xlink:href="#mad3a0c2486" x="219.69941" y="243.7082" style="fill: #e50000; stroke: #e50000"/>
     <use xlink:href="#mad3a0c2486" x="224.072451" y="250.318036" style="fill: #e50000; stroke: #e50000"/>
     <use xlink:href="#mad3a0c2486" x="228.445492" y="255.275413" style="fill: #e50000; stroke: #e50000"/>
     <use xlink:href="#mad3a0c2486" x="232.818533" y="147.865575" style="fill: #e50000; stroke: #e50000"/>
     <use xlink:href="#mad3a0c2486" x="237.191573" y="156.127871" style="fill: #e50000; stroke: #e50000"/>
     <use xlink:href="#mad3a0c2486" x="241.564614" y="164.390166" style="fill: #e50000; stroke: #e50000"/>
     <use xlink:href="#mad3a0c2486" x="245.937655" y="171.000002" style="fill: #e50000; stroke: #e50000"/>
     <use xlink:href="#mad3a0c2486" x="250.310696" y="177.609838" style="fill: #e50000; stroke: #e50000"/>
     <use xlink:href="#mad3a0c2486" x="254.683736" y="184.219674" style="fill: #e50000; stroke: #e50000"/>
     <use xlink:href="#mad3a0c2486" x="259.056777" y="190.82951" style="fill: #e50000; stroke: #e50000"/>
     <use xlink:href="#mad3a0c2486" x="263.429818" y="197.439347" style="fill: #e50000; stroke: #e50000"/>
     <use xlink:href="#mad3a0c2486" x="267.802859" y="204.049183" style="fill: #e50000; stroke: #e50000"/>
     <use xlink:href="#mad3a0c2486" x="272.175899" y="209.00656" style="fill: #e50000; stroke: #e50000"/>
     <use xlink:href="#mad3a0c2486" x="276.54894" y="215.616396" style="fill: #e50000; stroke: #e50000"/>
     <use xlink:href="#mad3a0c2486" x="280.921981" y="220.573773" style="fill: #e50000; stroke: #e50000"/>
     <use xlink:href="#mad3a0c2486" x="285.295022" y="225.53115" style="fill: #e50000; stroke: #e50000"/>
     <use xlink:href="#mad3a0c2486" x="289.668062" y="230.488527" style="fill: #e50000; stroke: #e50000"/>
     <use xlink:href="#mad3a0c2486" x="294.041103" y="233.793445" style="fill: #e50000; stroke: #e50000"/>
     <use xlink:href="#mad3a0c2486" x="298.414144" y="238.750823" style="fill: #e50000; stroke: #e50000"/>
     <use xlink:href="#mad3a0c2486" x="302.787185" y="243.7082" style="fill: #e50000; stroke: #e50000"/>
     <use xlink:href="#mad3a0c2486" x="307.160225" y="248.665577" style="fill: #e50000; stroke: #e50000"/>
     <use xlink:href="#mad3a0c2486" x="311.533266" y="251.970495" style="fill: #e50000; stroke: #e50000"/>
     <use xlink:href="#mad3a0c2486" x="315.906307" y="255.275413" style="fill: #e50000; stroke: #e50000"/>
    </g>
   </g>
   <g id="line2d_35">
    <path d="M 62.269943 245.360659 
L 71.016025 251.970495 
L 75.389065 248.665577 
L 79.762106 255.275413 
L 84.135147 251.970495 
L 88.508188 255.275413 
L 92.881228 248.665577 
L 97.254269 251.970495 
L 101.62731 255.275413 
L 106.000351 251.970495 
L 110.373391 248.665577 
L 114.746432 251.970495 
L 119.119473 251.970495 
L 123.492514 251.970495 
L 127.865554 251.970495 
L 132.238595 248.665577 
L 136.611636 238.750823 
L 140.984677 251.970495 
L 145.357717 242.055741 
L 149.730758 255.275413 
L 154.103799 242.055741 
L 158.47684 251.970495 
L 162.84988 235.445905 
L 167.222921 248.665577 
L 171.595962 255.275413 
L 175.969003 235.445905 
L 180.342043 245.360659 
L 184.715084 251.970495 
L 189.088125 228.836068 
L 193.461166 235.445905 
L 197.834207 242.055741 
L 202.207247 251.970495 
L 206.580288 218.921314 
L 210.953329 225.53115 
L 215.32637 232.140986 
L 219.69941 238.750823 
L 224.072451 245.360659 
L 228.445492 251.970495 
L 232.818533 212.311478 
L 237.191573 218.921314 
L 241.564614 225.53115 
L 245.937655 232.140986 
L 250.310696 235.445905 
L 254.683736 242.055741 
L 259.056777 248.665577 
L 263.429818 251.970495 
L 267.802859 199.091806 
L 272.175899 205.701642 
L 276.54894 212.311478 
L 280.921981 215.616396 
L 285.295022 222.226232 
L 289.668062 225.53115 
L 294.041103 232.140986 
L 298.414144 235.445905 
L 302.787185 238.750823 
L 307.160225 245.360659 
L 311.533266 248.665577 
L 315.906307 251.970495 
" clip-path="url(#pf9d058aff1)" style="fill: none; stroke: #653700; stroke-width: 1.5; stroke-linecap: square"/>
    <defs>
     <path id="mf1d2afd000" d="M 0 1.5 
C 0.397805 1.5 0.77937 1.341951 1.06066 1.06066 
C 1.341951 0.77937 1.5 0.397805 1.5 0 
C 1.5 -0.397805 1.341951 -0.77937 1.06066 -1.06066 
C 0.77937 -1.341951 0.397805 -1.5 0 -1.5 
C -0.397805 -1.5 -0.77937 -1.341951 -1.06066 -1.06066 
C -1.341951 -0.77937 -1.5 -0.397805 -1.5 0 
C -1.5 0.397805 -1.341951 0.77937 -1.06066 1.06066 
C -0.77937 1.341951 -0.397805 1.5 0 1.5 
z
" style="stroke: #653700"/>
    </defs>
    <g clip-path="url(#pf9d058aff1)">
     <use xlink:href="#mf1d2afd000" x="62.269943" y="245.360659" style="fill: #653700; stroke: #653700"/>
     <use xlink:href="#mf1d2afd000" x="71.016025" y="251.970495" style="fill: #653700; stroke: #653700"/>
     <use xlink:href="#mf1d2afd000" x="75.389065" y="248.665577" style="fill: #653700; stroke: #653700"/>
     <use xlink:href="#mf1d2afd000" x="79.762106" y="255.275413" style="fill: #653700; stroke: #653700"/>
     <use xlink:href="#mf1d2afd000" x="84.135147" y="251.970495" style="fill: #653700; stroke: #653700"/>
     <use xlink:href="#mf1d2afd000" x="88.508188" y="255.275413" style="fill: #653700; stroke: #653700"/>
     <use xlink:href="#mf1d2afd000" x="92.881228" y="248.665577" style="fill: #653700; stroke: #653700"/>
     <use xlink:href="#mf1d2afd000" x="97.254269" y="251.970495" style="fill: #653700; stroke: #653700"/>
     <use xlink:href="#mf1d2afd000" x="101.62731" y="255.275413" style="fill: #653700; stroke: #653700"/>
     <use xlink:href="#mf1d2afd000" x="106.000351" y="251.970495" style="fill: #653700; stroke: #653700"/>
     <use xlink:href="#mf1d2afd000" x="110.373391" y="248.665577" style="fill: #653700; stroke: #653700"/>
     <use xlink:href="#mf1d2afd000" x="114.746432" y="251.970495" style="fill: #653700; stroke: #653700"/>
     <use xlink:href="#mf1d2afd000" x="119.119473" y="251.970495" style="fill: #653700; stroke: #653700"/>
     <use xlink:href="#mf1d2afd000" x="123.492514" y="251.970495" style="fill: #653700; stroke: #653700"/>
     <use xlink:href="#mf1d2afd000" x="127.865554" y="251.970495" style="fill: #653700; stroke: #653700"/>
     <use xlink:href="#mf1d2afd000" x="132.238595" y="248.665577" style="fill: #653700; stroke: #653700"/>
     <use xlink:href="#mf1d2afd000" x="136.611636" y="238.750823" style="fill: #653700; stroke: #653700"/>
     <use xlink:href="#mf1d2afd000" x="140.984677" y="251.970495" style="fill: #653700; stroke: #653700"/>
     <use xlink:href="#mf1d2afd000" x="145.357717" y="242.055741" style="fill: #653700; stroke: #653700"/>
     <use xlink:href="#mf1d2afd000" x="149.730758" y="255.275413" style="fill: #653700; stroke: #653700"/>
     <use xlink:href="#mf1d2afd000" x="154.103799" y="242.055741" style="fill: #653700; stroke: #653700"/>
     <use xlink:href="#mf1d2afd000" x="158.47684" y="251.970495" style="fill: #653700; stroke: #653700"/>
     <use xlink:href="#mf1d2afd000" x="162.84988" y="235.445905" style="fill: #653700; stroke: #653700"/>
     <use xlink:href="#mf1d2afd000" x="167.222921" y="248.665577" style="fill: #653700; stroke: #653700"/>
     <use xlink:href="#mf1d2afd000" x="171.595962" y="255.275413" style="fill: #653700; stroke: #653700"/>
     <use xlink:href="#mf1d2afd000" x="175.969003" y="235.445905" style="fill: #653700; stroke: #653700"/>
     <use xlink:href="#mf1d2afd000" x="180.342043" y="245.360659" style="fill: #653700; stroke: #653700"/>
     <use xlink:href="#mf1d2afd000" x="184.715084" y="251.970495" style="fill: #653700; stroke: #653700"/>
     <use xlink:href="#mf1d2afd000" x="189.088125" y="228.836068" style="fill: #653700; stroke: #653700"/>
     <use xlink:href="#mf1d2afd000" x="193.461166" y="235.445905" style="fill: #653700; stroke: #653700"/>
     <use xlink:href="#mf1d2afd000" x="197.834207" y="242.055741" style="fill: #653700; stroke: #653700"/>
     <use xlink:href="#mf1d2afd000" x="202.207247" y="251.970495" style="fill: #653700; stroke: #653700"/>
     <use xlink:href="#mf1d2afd000" x="206.580288" y="218.921314" style="fill: #653700; stroke: #653700"/>
     <use xlink:href="#mf1d2afd000" x="210.953329" y="225.53115" style="fill: #653700; stroke: #653700"/>
     <use xlink:href="#mf1d2afd000" x="215.32637" y="232.140986" style="fill: #653700; stroke: #653700"/>
     <use xlink:href="#mf1d2afd000" x="219.69941" y="238.750823" style="fill: #653700; stroke: #653700"/>
     <use xlink:href="#mf1d2afd000" x="224.072451" y="245.360659" style="fill: #653700; stroke: #653700"/>
     <use xlink:href="#mf1d2afd000" x="228.445492" y="251.970495" style="fill: #653700; stroke: #653700"/>
     <use xlink:href="#mf1d2afd000" x="232.818533" y="212.311478" style="fill: #653700; stroke: #653700"/>
     <use xlink:href="#mf1d2afd000" x="237.191573" y="218.921314" style="fill: #653700; stroke: #653700"/>
     <use xlink:href="#mf1d2afd000" x="241.564614" y="225.53115" style="fill: #653700; stroke: #653700"/>
     <use xlink:href="#mf1d2afd000" x="245.937655" y="232.140986" style="fill: #653700; stroke: #653700"/>
     <use xlink:href="#mf1d2afd000" x="250.310696" y="235.445905" style="fill: #653700; stroke: #653700"/>
     <use xlink:href="#mf1d2afd000" x="254.683736" y="242.055741" style="fill: #653700; stroke: #653700"/>
     <use xlink:href="#mf1d2afd000" x="259.056777" y="248.665577" style="fill: #653700; stroke: #653700"/>
     <use xlink:href="#mf1d2afd000" x="263.429818" y="251.970495" style="fill: #653700; stroke: #653700"/>
     <use xlink:href="#mf1d2afd000" x="267.802859" y="199.091806" style="fill: #653700; stroke: #653700"/>
     <use xlink:href="#mf1d2afd000" x="272.175899" y="205.701642" style="fill: #653700; stroke: #653700"/>
     <use xlink:href="#mf1d2afd000" x="276.54894" y="212.311478" style="fill: #653700; stroke: #653700"/>
     <use xlink:href="#mf1d2afd000" x="280.921981" y="215.616396" style="fill: #653700; stroke: #653700"/>
     <use xlink:href="#mf1d2afd000" x="285.295022" y="222.226232" style="fill: #653700; stroke: #653700"/>
     <use xlink:href="#mf1d2afd000" x="289.668062" y="225.53115" style="fill: #653700; stroke: #653700"/>
     <use xlink:href="#mf1d2afd000" x="294.041103" y="232.140986" style="fill: #653700; stroke: #653700"/>
     <use xlink:href="#mf1d2afd000" x="298.414144" y="235.445905" style="fill: #653700; stroke: #653700"/>
     <use xlink:href="#mf1d2afd000" x="302.787185" y="238.750823" style="fill: #653700; stroke: #653700"/>
     <use xlink:href="#mf1d2afd000" x="307.160225" y="245.360659" style="fill: #653700; stroke: #653700"/>
     <use xlink:href="#mf1d2afd000" x="311.533266" y="248.665577" style="fill: #653700; stroke: #653700"/>
     <use xlink:href="#mf1d2afd000" x="315.906307" y="251.970495" style="fill: #653700; stroke: #653700"/>
    </g>
   </g>
   <g id="patch_3">
    <path d="M 49.588125 284.4 
L 49.588125 7.2 
" style="fill: none; stroke: #000000; stroke-width: 0.8; stroke-linejoin: miter; stroke-linecap: square"/>
   </g>
   <g id="patch_4">
    <path d="M 328.588125 284.4 
L 328.588125 7.2 
" style="fill: none; stroke: #000000; stroke-width: 0.8; stroke-linejoin: miter; stroke-linecap: square"/>
   </g>
   <g id="patch_5">
    <path d="M 49.588125 284.4 
L 328.588125 284.4 
" style="fill: none; stroke: #000000; stroke-width: 0.8; stroke-linejoin: miter; stroke-linecap: square"/>
   </g>
   <g id="patch_6">
    <path d="M 49.588125 7.2 
L 328.588125 7.2 
" style="fill: none; stroke: #000000; stroke-width: 0.8; stroke-linejoin: miter; stroke-linecap: square"/>
   </g>
   <g id="legend_1">
    <g id="patch_7">
     <path d="M 245.828125 137.425 
L 317.388125 137.425 
Q 320.588125 137.425 320.588125 134.225 
L 320.588125 18.4 
Q 320.588125 15.2 317.388125 15.2 
L 245.828125 15.2 
Q 242.628125 15.2 242.628125 18.4 
L 242.628125 134.225 
Q 242.628125 137.425 245.828125 137.425 
z
" style="fill: #ffffff; opacity: 0.8; stroke: #cccccc; stroke-linejoin: miter"/>
    </g>
    <g id="line2d_36">
     <path d="M 249.028125 28.1575 
L 265.028125 28.1575 
L 281.028125 28.1575 
" style="fill: none; stroke: #000000; stroke-width: 1.5; stroke-linecap: square"/>
     <g>
      <use xlink:href="#m8265e0e6ec" x="265.028125" y="28.1575" style="stroke: #000000"/>
     </g>
    </g>
    <g id="text_18">
     <!-- 4 -->
     <g transform="translate(293.828125 33.7575) scale(0.16 -0.16)">
      <use xlink:href="#DejaVuSans-34"/>
     </g>
    </g>
    <g id="line2d_37">
     <path d="M 249.028125 51.6425 
L 265.028125 51.6425 
L 281.028125 51.6425 
" style="fill: none; stroke: #0343df; stroke-width: 1.5; stroke-linecap: square"/>
     <g>
      <use xlink:href="#m779bd6d889" x="265.028125" y="51.6425" style="fill: #0343df; stroke: #0343df"/>
     </g>
    </g>
    <g id="text_19">
     <!-- 8 -->
     <g transform="translate(293.828125 57.2425) scale(0.16 -0.16)">
      <use xlink:href="#DejaVuSans-38"/>
     </g>
    </g>
    <g id="line2d_38">
     <path d="M 249.028125 75.1275 
L 265.028125 75.1275 
L 281.028125 75.1275 
" style="fill: none; stroke: #15b01a; stroke-width: 1.5; stroke-linecap: square"/>
     <g>
      <use xlink:href="#m4aeba1c80b" x="265.028125" y="75.1275" style="fill: #15b01a; stroke: #15b01a"/>
     </g>
    </g>
    <g id="text_20">
     <!-- 16 -->
     <g transform="translate(293.828125 80.7275) scale(0.16 -0.16)">
      <use xlink:href="#DejaVuSans-31"/>
      <use xlink:href="#DejaVuSans-36" transform="translate(63.623047 0)"/>
     </g>
    </g>
    <g id="line2d_39">
     <path d="M 249.028125 98.6125 
L 265.028125 98.6125 
L 281.028125 98.6125 
" style="fill: none; stroke: #e50000; stroke-width: 1.5; stroke-linecap: square"/>
     <g>
      <use xlink:href="#mad3a0c2486" x="265.028125" y="98.6125" style="fill: #e50000; stroke: #e50000"/>
     </g>
    </g>
    <g id="text_21">
     <!-- 32 -->
     <g transform="translate(293.828125 104.2125) scale(0.16 -0.16)">
      <defs>
       <path id="DejaVuSans-33" d="M 2597 2516 
Q 3050 2419 3304 2112 
Q 3559 1806 3559 1356 
Q 3559 666 3084 287 
Q 2609 -91 1734 -91 
Q 1441 -91 1130 -33 
Q 819 25 488 141 
L 488 750 
Q 750 597 1062 519 
Q 1375 441 1716 441 
Q 2309 441 2620 675 
Q 2931 909 2931 1356 
Q 2931 1769 2642 2001 
Q 2353 2234 1838 2234 
L 1294 2234 
L 1294 2753 
L 1863 2753 
Q 2328 2753 2575 2939 
Q 2822 3125 2822 3475 
Q 2822 3834 2567 4026 
Q 2313 4219 1838 4219 
Q 1578 4219 1281 4162 
Q 984 4106 628 3988 
L 628 4550 
Q 988 4650 1302 4700 
Q 1616 4750 1894 4750 
Q 2613 4750 3031 4423 
Q 3450 4097 3450 3541 
Q 3450 3153 3228 2886 
Q 3006 2619 2597 2516 
z
" transform="scale(0.015625)"/>
      </defs>
      <use xlink:href="#DejaVuSans-33"/>
      <use xlink:href="#DejaVuSans-32" transform="translate(63.623047 0)"/>
     </g>
    </g>
    <g id="line2d_40">
     <path d="M 249.028125 122.0975 
L 265.028125 122.0975 
L 281.028125 122.0975 
" style="fill: none; stroke: #653700; stroke-width: 1.5; stroke-linecap: square"/>
     <g>
      <use xlink:href="#mf1d2afd000" x="265.028125" y="122.0975" style="fill: #653700; stroke: #653700"/>
     </g>
    </g>
    <g id="text_22">
     <!-- 64 -->
     <g transform="translate(293.828125 127.6975) scale(0.16 -0.16)">
      <use xlink:href="#DejaVuSans-36"/>
      <use xlink:href="#DejaVuSans-34" transform="translate(63.623047 0)"/>
     </g>
    </g>
   </g>
  </g>
 </g>
 <defs>
  <clipPath id="pf9d058aff1">
   <rect x="49.588125" y="7.2" width="279" height="277.2"/>
  </clipPath>
 </defs>
</svg>
