<?xml version="1.0" encoding="UTF-8" standalone="no"?>
<svg
   width="335.788125pt"
   height="338.361562pt"
   viewBox="0 0 335.788125 338.361562"
   version="1.1"
   id="svg159"
   sodipodi:docname="dynamic-mairadb-1Go.svg"
   inkscape:version="1.4.2 (f4327f4, 2025-05-13)"
   xmlns:inkscape="http://www.inkscape.org/namespaces/inkscape"
   xmlns:sodipodi="http://sodipodi.sourceforge.net/DTD/sodipodi-0.dtd"
   xmlns:xlink="http://www.w3.org/1999/xlink"
   xmlns="http://www.w3.org/2000/svg"
   xmlns:svg="http://www.w3.org/2000/svg"
   xmlns:rdf="http://www.w3.org/1999/02/22-rdf-syntax-ns#"
   xmlns:cc="http://creativecommons.org/ns#"
   xmlns:dc="http://purl.org/dc/elements/1.1/">
  <sodipodi:namedview
     id="namedview159"
     pagecolor="#505050"
     bordercolor="#eeeeee"
     borderopacity="1"
     inkscape:showpageshadow="0"
     inkscape:pageopacity="0"
     inkscape:pagecheckerboard="0"
     inkscape:deskcolor="#505050"
     inkscape:document-units="pt"
     inkscape:zoom="1.8375314"
     inkscape:cx="223.66965"
     inkscape:cy="225.57438"
     inkscape:window-width="1920"
     inkscape:window-height="1009"
     inkscape:window-x="-8"
     inkscape:window-y="-8"
     inkscape:window-maximized="1"
     inkscape:current-layer="legend_1" />
  <metadata
     id="metadata1">
    <rdf:RDF>
      <cc:Work>
        <dc:type
           rdf:resource="http://purl.org/dc/dcmitype/StillImage" />
        <dc:date>2025-07-25T00:00:57.541966</dc:date>
        <dc:format>image/svg+xml</dc:format>
        <dc:creator>
          <cc:Agent>
            <dc:title>Matplotlib v3.10.3, https://matplotlib.org/</dc:title>
          </cc:Agent>
        </dc:creator>
      </cc:Work>
    </rdf:RDF>
  </metadata>
  <defs
     id="defs1">
    <style
       type="text/css"
       id="style1">*{stroke-linejoin: round; stroke-linecap: butt}</style>
  </defs>
  <g
     id="figure_1">
    <g
       id="patch_1">
      <path
         d="M 0 338.361562  L 335.788125 338.361562  L 335.788125 0  L 0 0  z "
         style="fill: #ffffff"
         id="path1" />
    </g>
    <g
       id="axes_1">
      <g
         id="patch_2">
        <path
           d="M 49.588125 294.998437  L 328.588125 294.998437  L 328.588125 17.798437  L 49.588125 17.798437  z "
           style="fill: #ffffff"
           id="path2" />
      </g>
      <g
         id="matplotlib.axis_1">
        <g
           id="xtick_1">
          <g
             id="line2d_1">
            <path
               d="M 62.269943 294.998437  L 62.269943 17.798437  "
               clip-path="url(#pa7b799a36a)"
               style="fill: none; stroke-dasharray: 3.7,1.6; stroke-dashoffset: 0; stroke: #b0b0b0"
               id="path3" />
          </g>
          <g
             id="line2d_2">
            <defs
               id="defs3">
              <path
                 id="m9771d8ef9e"
                 d="M 0 0  L 0 3.5  "
                 style="stroke: #000000; stroke-width: 0.8" />
            </defs>
            <g
               id="g3">
              <use
                 xlink:href="#m9771d8ef9e"
                 x="62.269943"
                 y="294.998437"
                 style="stroke: #000000; stroke-width: 0.8"
                 id="use3" />
            </g>
          </g>
          <g
             id="text_1">
            <!-- 0.0 -->
            <g
               transform="translate(54.318381 309.596875) scale(0.1 -0.1)"
               id="g6">
              <defs
                 id="defs4">
                <path
                   id="DejaVuSans-30"
                   d="M 2034 4250  Q 1547 4250 1301 3770  Q 1056 3291 1056 2328  Q 1056 1369 1301 889  Q 1547 409 2034 409  Q 2525 409 2770 889  Q 3016 1369 3016 2328  Q 3016 3291 2770 3770  Q 2525 4250 2034 4250  z M 2034 4750  Q 2819 4750 3233 4129  Q 3647 3509 3647 2328  Q 3647 1150 3233 529  Q 2819 -91 2034 -91  Q 1250 -91 836 529  Q 422 1150 422 2328  Q 422 3509 836 4129  Q 1250 4750 2034 4750  z "
                   transform="scale(0.015625)" />
                <path
                   id="DejaVuSans-2e"
                   d="M 684 794  L 1344 794  L 1344 0  L 684 0  L 684 794  z "
                   transform="scale(0.015625)" />
              </defs>
              <use
                 xlink:href="#DejaVuSans-30"
                 id="use4" />
              <use
                 xlink:href="#DejaVuSans-2e"
                 transform="translate(63.623047 0)"
                 id="use5" />
              <use
                 xlink:href="#DejaVuSans-30"
                 transform="translate(95.410156 0)"
                 id="use6" />
            </g>
          </g>
        </g>
        <g
           id="xtick_2">
          <g
             id="line2d_3">
            <path
               d="M 109.513359 294.998437  L 109.513359 17.798437  "
               clip-path="url(#pa7b799a36a)"
               style="fill: none; stroke-dasharray: 3.7,1.6; stroke-dashoffset: 0; stroke: #b0b0b0"
               id="path6" />
          </g>
          <g
             id="line2d_4">
            <g
               id="g7">
              <use
                 xlink:href="#m9771d8ef9e"
                 x="109.513359"
                 y="294.998437"
                 style="stroke: #000000; stroke-width: 0.8"
                 id="use7" />
            </g>
          </g>
          <g
             id="text_2">
            <!-- 0.2 -->
            <g
               transform="translate(101.561797 309.596875) scale(0.1 -0.1)"
               id="g10">
              <defs
                 id="defs7">
                <path
                   id="DejaVuSans-32"
                   d="M 1228 531  L 3431 531  L 3431 0  L 469 0  L 469 531  Q 828 903 1448 1529  Q 2069 2156 2228 2338  Q 2531 2678 2651 2914  Q 2772 3150 2772 3378  Q 2772 3750 2511 3984  Q 2250 4219 1831 4219  Q 1534 4219 1204 4116  Q 875 4013 500 3803  L 500 4441  Q 881 4594 1212 4672  Q 1544 4750 1819 4750  Q 2544 4750 2975 4387  Q 3406 4025 3406 3419  Q 3406 3131 3298 2873  Q 3191 2616 2906 2266  Q 2828 2175 2409 1742  Q 1991 1309 1228 531  z "
                   transform="scale(0.015625)" />
              </defs>
              <use
                 xlink:href="#DejaVuSans-30"
                 id="use8" />
              <use
                 xlink:href="#DejaVuSans-2e"
                 transform="translate(63.623047 0)"
                 id="use9" />
              <use
                 xlink:href="#DejaVuSans-32"
                 transform="translate(95.410156 0)"
                 id="use10" />
            </g>
          </g>
        </g>
        <g
           id="xtick_3">
          <g
             id="line2d_5">
            <path
               d="M 156.756776 294.998437  L 156.756776 17.798437  "
               clip-path="url(#pa7b799a36a)"
               style="fill: none; stroke-dasharray: 3.7,1.6; stroke-dashoffset: 0; stroke: #b0b0b0"
               id="path10" />
          </g>
          <g
             id="line2d_6">
            <g
               id="g11">
              <use
                 xlink:href="#m9771d8ef9e"
                 x="156.756776"
                 y="294.998437"
                 style="stroke: #000000; stroke-width: 0.8"
                 id="use11" />
            </g>
          </g>
          <g
             id="text_3">
            <!-- 0.4 -->
            <g
               transform="translate(148.805213 309.596875) scale(0.1 -0.1)"
               id="g14">
              <defs
                 id="defs11">
                <path
                   id="DejaVuSans-34"
                   d="M 2419 4116  L 825 1625  L 2419 1625  L 2419 4116  z M 2253 4666  L 3047 4666  L 3047 1625  L 3713 1625  L 3713 1100  L 3047 1100  L 3047 0  L 2419 0  L 2419 1100  L 313 1100  L 313 1709  L 2253 4666  z "
                   transform="scale(0.015625)" />
              </defs>
              <use
                 xlink:href="#DejaVuSans-30"
                 id="use12" />
              <use
                 xlink:href="#DejaVuSans-2e"
                 transform="translate(63.623047 0)"
                 id="use13" />
              <use
                 xlink:href="#DejaVuSans-34"
                 transform="translate(95.410156 0)"
                 id="use14" />
            </g>
          </g>
        </g>
        <g
           id="xtick_4">
          <g
             id="line2d_7">
            <path
               d="M 204.000192 294.998437  L 204.000192 17.798437  "
               clip-path="url(#pa7b799a36a)"
               style="fill: none; stroke-dasharray: 3.7,1.6; stroke-dashoffset: 0; stroke: #b0b0b0"
               id="path14" />
          </g>
          <g
             id="line2d_8">
            <g
               id="g15">
              <use
                 xlink:href="#m9771d8ef9e"
                 x="204.000192"
                 y="294.998437"
                 style="stroke: #000000; stroke-width: 0.8"
                 id="use15" />
            </g>
          </g>
          <g
             id="text_4">
            <!-- 0.6 -->
            <g
               transform="translate(196.048629 309.596875) scale(0.1 -0.1)"
               id="g18">
              <defs
                 id="defs15">
                <path
                   id="DejaVuSans-36"
                   d="M 2113 2584  Q 1688 2584 1439 2293  Q 1191 2003 1191 1497  Q 1191 994 1439 701  Q 1688 409 2113 409  Q 2538 409 2786 701  Q 3034 994 3034 1497  Q 3034 2003 2786 2293  Q 2538 2584 2113 2584  z M 3366 4563  L 3366 3988  Q 3128 4100 2886 4159  Q 2644 4219 2406 4219  Q 1781 4219 1451 3797  Q 1122 3375 1075 2522  Q 1259 2794 1537 2939  Q 1816 3084 2150 3084  Q 2853 3084 3261 2657  Q 3669 2231 3669 1497  Q 3669 778 3244 343  Q 2819 -91 2113 -91  Q 1303 -91 875 529  Q 447 1150 447 2328  Q 447 3434 972 4092  Q 1497 4750 2381 4750  Q 2619 4750 2861 4703  Q 3103 4656 3366 4563  z "
                   transform="scale(0.015625)" />
              </defs>
              <use
                 xlink:href="#DejaVuSans-30"
                 id="use16" />
              <use
                 xlink:href="#DejaVuSans-2e"
                 transform="translate(63.623047 0)"
                 id="use17" />
              <use
                 xlink:href="#DejaVuSans-36"
                 transform="translate(95.410156 0)"
                 id="use18" />
            </g>
          </g>
        </g>
        <g
           id="xtick_5">
          <g
             id="line2d_9">
            <path
               d="M 251.243608 294.998437  L 251.243608 17.798437  "
               clip-path="url(#pa7b799a36a)"
               style="fill: none; stroke-dasharray: 3.7,1.6; stroke-dashoffset: 0; stroke: #b0b0b0"
               id="path18" />
          </g>
          <g
             id="line2d_10">
            <g
               id="g19">
              <use
                 xlink:href="#m9771d8ef9e"
                 x="251.243608"
                 y="294.998437"
                 style="stroke: #000000; stroke-width: 0.8"
                 id="use19" />
            </g>
          </g>
          <g
             id="text_5">
            <!-- 0.8 -->
            <g
               transform="translate(243.292045 309.596875) scale(0.1 -0.1)"
               id="g22">
              <defs
                 id="defs19">
                <path
                   id="DejaVuSans-38"
                   d="M 2034 2216  Q 1584 2216 1326 1975  Q 1069 1734 1069 1313  Q 1069 891 1326 650  Q 1584 409 2034 409  Q 2484 409 2743 651  Q 3003 894 3003 1313  Q 3003 1734 2745 1975  Q 2488 2216 2034 2216  z M 1403 2484  Q 997 2584 770 2862  Q 544 3141 544 3541  Q 544 4100 942 4425  Q 1341 4750 2034 4750  Q 2731 4750 3128 4425  Q 3525 4100 3525 3541  Q 3525 3141 3298 2862  Q 3072 2584 2669 2484  Q 3125 2378 3379 2068  Q 3634 1759 3634 1313  Q 3634 634 3220 271  Q 2806 -91 2034 -91  Q 1263 -91 848 271  Q 434 634 434 1313  Q 434 1759 690 2068  Q 947 2378 1403 2484  z M 1172 3481  Q 1172 3119 1398 2916  Q 1625 2713 2034 2713  Q 2441 2713 2670 2916  Q 2900 3119 2900 3481  Q 2900 3844 2670 4047  Q 2441 4250 2034 4250  Q 1625 4250 1398 4047  Q 1172 3844 1172 3481  z "
                   transform="scale(0.015625)" />
              </defs>
              <use
                 xlink:href="#DejaVuSans-30"
                 id="use20" />
              <use
                 xlink:href="#DejaVuSans-2e"
                 transform="translate(63.623047 0)"
                 id="use21" />
              <use
                 xlink:href="#DejaVuSans-38"
                 transform="translate(95.410156 0)"
                 id="use22" />
            </g>
          </g>
        </g>
        <g
           id="xtick_6">
          <g
             id="line2d_11">
            <path
               d="M 298.487024 294.998437  L 298.487024 17.798437  "
               clip-path="url(#pa7b799a36a)"
               style="fill: none; stroke-dasharray: 3.7,1.6; stroke-dashoffset: 0; stroke: #b0b0b0"
               id="path22" />
          </g>
          <g
             id="line2d_12">
            <g
               id="g23">
              <use
                 xlink:href="#m9771d8ef9e"
                 x="298.487024"
                 y="294.998437"
                 style="stroke: #000000; stroke-width: 0.8"
                 id="use23" />
            </g>
          </g>
          <g
             id="text_6">
            <!-- 1.0 -->
            <g
               transform="translate(290.535462 309.596875) scale(0.1 -0.1)"
               id="g26">
              <defs
                 id="defs23">
                <path
                   id="DejaVuSans-31"
                   d="M 794 531  L 1825 531  L 1825 4091  L 703 3866  L 703 4441  L 1819 4666  L 2450 4666  L 2450 531  L 3481 531  L 3481 0  L 794 0  L 794 531  z "
                   transform="scale(0.015625)" />
              </defs>
              <use
                 xlink:href="#DejaVuSans-31"
                 id="use24" />
              <use
                 xlink:href="#DejaVuSans-2e"
                 transform="translate(63.623047 0)"
                 id="use25" />
              <use
                 xlink:href="#DejaVuSans-30"
                 transform="translate(95.410156 0)"
                 id="use26" />
            </g>
          </g>
        </g>
        <g
           id="text_7">
          <!-- Data Size (Bytes) -->
          <g
             transform="translate(119.786875 327.834063) scale(0.16 -0.16)"
             id="g43">
            <defs
               id="defs26">
              <path
                 id="DejaVuSans-44"
                 d="M 1259 4147  L 1259 519  L 2022 519  Q 2988 519 3436 956  Q 3884 1394 3884 2338  Q 3884 3275 3436 3711  Q 2988 4147 2022 4147  L 1259 4147  z M 628 4666  L 1925 4666  Q 3281 4666 3915 4102  Q 4550 3538 4550 2338  Q 4550 1131 3912 565  Q 3275 0 1925 0  L 628 0  L 628 4666  z "
                 transform="scale(0.015625)" />
              <path
                 id="DejaVuSans-61"
                 d="M 2194 1759  Q 1497 1759 1228 1600  Q 959 1441 959 1056  Q 959 750 1161 570  Q 1363 391 1709 391  Q 2188 391 2477 730  Q 2766 1069 2766 1631  L 2766 1759  L 2194 1759  z M 3341 1997  L 3341 0  L 2766 0  L 2766 531  Q 2569 213 2275 61  Q 1981 -91 1556 -91  Q 1019 -91 701 211  Q 384 513 384 1019  Q 384 1609 779 1909  Q 1175 2209 1959 2209  L 2766 2209  L 2766 2266  Q 2766 2663 2505 2880  Q 2244 3097 1772 3097  Q 1472 3097 1187 3025  Q 903 2953 641 2809  L 641 3341  Q 956 3463 1253 3523  Q 1550 3584 1831 3584  Q 2591 3584 2966 3190  Q 3341 2797 3341 1997  z "
                 transform="scale(0.015625)" />
              <path
                 id="DejaVuSans-74"
                 d="M 1172 4494  L 1172 3500  L 2356 3500  L 2356 3053  L 1172 3053  L 1172 1153  Q 1172 725 1289 603  Q 1406 481 1766 481  L 2356 481  L 2356 0  L 1766 0  Q 1100 0 847 248  Q 594 497 594 1153  L 594 3053  L 172 3053  L 172 3500  L 594 3500  L 594 4494  L 1172 4494  z "
                 transform="scale(0.015625)" />
              <path
                 id="DejaVuSans-20"
                 transform="scale(0.015625)" />
              <path
                 id="DejaVuSans-53"
                 d="M 3425 4513  L 3425 3897  Q 3066 4069 2747 4153  Q 2428 4238 2131 4238  Q 1616 4238 1336 4038  Q 1056 3838 1056 3469  Q 1056 3159 1242 3001  Q 1428 2844 1947 2747  L 2328 2669  Q 3034 2534 3370 2195  Q 3706 1856 3706 1288  Q 3706 609 3251 259  Q 2797 -91 1919 -91  Q 1588 -91 1214 -16  Q 841 59 441 206  L 441 856  Q 825 641 1194 531  Q 1563 422 1919 422  Q 2459 422 2753 634  Q 3047 847 3047 1241  Q 3047 1584 2836 1778  Q 2625 1972 2144 2069  L 1759 2144  Q 1053 2284 737 2584  Q 422 2884 422 3419  Q 422 4038 858 4394  Q 1294 4750 2059 4750  Q 2388 4750 2728 4690  Q 3069 4631 3425 4513  z "
                 transform="scale(0.015625)" />
              <path
                 id="DejaVuSans-69"
                 d="M 603 3500  L 1178 3500  L 1178 0  L 603 0  L 603 3500  z M 603 4863  L 1178 4863  L 1178 4134  L 603 4134  L 603 4863  z "
                 transform="scale(0.015625)" />
              <path
                 id="DejaVuSans-7a"
                 d="M 353 3500  L 3084 3500  L 3084 2975  L 922 459  L 3084 459  L 3084 0  L 275 0  L 275 525  L 2438 3041  L 353 3041  L 353 3500  z "
                 transform="scale(0.015625)" />
              <path
                 id="DejaVuSans-65"
                 d="M 3597 1894  L 3597 1613  L 953 1613  Q 991 1019 1311 708  Q 1631 397 2203 397  Q 2534 397 2845 478  Q 3156 559 3463 722  L 3463 178  Q 3153 47 2828 -22  Q 2503 -91 2169 -91  Q 1331 -91 842 396  Q 353 884 353 1716  Q 353 2575 817 3079  Q 1281 3584 2069 3584  Q 2775 3584 3186 3129  Q 3597 2675 3597 1894  z M 3022 2063  Q 3016 2534 2758 2815  Q 2500 3097 2075 3097  Q 1594 3097 1305 2825  Q 1016 2553 972 2059  L 3022 2063  z "
                 transform="scale(0.015625)" />
              <path
                 id="DejaVuSans-28"
                 d="M 1984 4856  Q 1566 4138 1362 3434  Q 1159 2731 1159 2009  Q 1159 1288 1364 580  Q 1569 -128 1984 -844  L 1484 -844  Q 1016 -109 783 600  Q 550 1309 550 2009  Q 550 2706 781 3412  Q 1013 4119 1484 4856  L 1984 4856  z "
                 transform="scale(0.015625)" />
              <path
                 id="DejaVuSans-42"
                 d="M 1259 2228  L 1259 519  L 2272 519  Q 2781 519 3026 730  Q 3272 941 3272 1375  Q 3272 1813 3026 2020  Q 2781 2228 2272 2228  L 1259 2228  z M 1259 4147  L 1259 2741  L 2194 2741  Q 2656 2741 2882 2914  Q 3109 3088 3109 3444  Q 3109 3797 2882 3972  Q 2656 4147 2194 4147  L 1259 4147  z M 628 4666  L 2241 4666  Q 2963 4666 3353 4366  Q 3744 4066 3744 3513  Q 3744 3084 3544 2831  Q 3344 2578 2956 2516  Q 3422 2416 3680 2098  Q 3938 1781 3938 1306  Q 3938 681 3513 340  Q 3088 0 2303 0  L 628 0  L 628 4666  z "
                 transform="scale(0.015625)" />
              <path
                 id="DejaVuSans-79"
                 d="M 2059 -325  Q 1816 -950 1584 -1140  Q 1353 -1331 966 -1331  L 506 -1331  L 506 -850  L 844 -850  Q 1081 -850 1212 -737  Q 1344 -625 1503 -206  L 1606 56  L 191 3500  L 800 3500  L 1894 763  L 2988 3500  L 3597 3500  L 2059 -325  z "
                 transform="scale(0.015625)" />
              <path
                 id="DejaVuSans-73"
                 d="M 2834 3397  L 2834 2853  Q 2591 2978 2328 3040  Q 2066 3103 1784 3103  Q 1356 3103 1142 2972  Q 928 2841 928 2578  Q 928 2378 1081 2264  Q 1234 2150 1697 2047  L 1894 2003  Q 2506 1872 2764 1633  Q 3022 1394 3022 966  Q 3022 478 2636 193  Q 2250 -91 1575 -91  Q 1294 -91 989 -36  Q 684 19 347 128  L 347 722  Q 666 556 975 473  Q 1284 391 1588 391  Q 1994 391 2212 530  Q 2431 669 2431 922  Q 2431 1156 2273 1281  Q 2116 1406 1581 1522  L 1381 1569  Q 847 1681 609 1914  Q 372 2147 372 2553  Q 372 3047 722 3315  Q 1072 3584 1716 3584  Q 2034 3584 2315 3537  Q 2597 3491 2834 3397  z "
                 transform="scale(0.015625)" />
              <path
                 id="DejaVuSans-29"
                 d="M 513 4856  L 1013 4856  Q 1481 4119 1714 3412  Q 1947 2706 1947 2009  Q 1947 1309 1714 600  Q 1481 -109 1013 -844  L 513 -844  Q 928 -128 1133 580  Q 1338 1288 1338 2009  Q 1338 2731 1133 3434  Q 928 4138 513 4856  z "
                 transform="scale(0.015625)" />
            </defs>
            <use
               xlink:href="#DejaVuSans-44"
               id="use27" />
            <use
               xlink:href="#DejaVuSans-61"
               transform="translate(77.001953 0)"
               id="use28" />
            <use
               xlink:href="#DejaVuSans-74"
               transform="translate(138.28125 0)"
               id="use29" />
            <use
               xlink:href="#DejaVuSans-61"
               transform="translate(177.490234 0)"
               id="use30" />
            <use
               xlink:href="#DejaVuSans-20"
               transform="translate(238.769531 0)"
               id="use31" />
            <use
               xlink:href="#DejaVuSans-53"
               transform="translate(270.556641 0)"
               id="use32" />
            <use
               xlink:href="#DejaVuSans-69"
               transform="translate(334.033203 0)"
               id="use33" />
            <use
               xlink:href="#DejaVuSans-7a"
               transform="translate(361.816406 0)"
               id="use34" />
            <use
               xlink:href="#DejaVuSans-65"
               transform="translate(414.306641 0)"
               id="use35" />
            <use
               xlink:href="#DejaVuSans-20"
               transform="translate(475.830078 0)"
               id="use36" />
            <use
               xlink:href="#DejaVuSans-28"
               transform="translate(507.617188 0)"
               id="use37" />
            <use
               xlink:href="#DejaVuSans-42"
               transform="translate(546.630859 0)"
               id="use38" />
            <use
               xlink:href="#DejaVuSans-79"
               transform="translate(615.234375 0)"
               id="use39" />
            <use
               xlink:href="#DejaVuSans-74"
               transform="translate(674.414062 0)"
               id="use40" />
            <use
               xlink:href="#DejaVuSans-65"
               transform="translate(713.623047 0)"
               id="use41" />
            <use
               xlink:href="#DejaVuSans-73"
               transform="translate(775.146484 0)"
               id="use42" />
            <use
               xlink:href="#DejaVuSans-29"
               transform="translate(827.246094 0)"
               id="use43" />
          </g>
        </g>
        <g
           id="text_8">
          <!-- 1e9 -->
          <g
             transform="translate(309.71 322.275) scale(0.1 -0.1)"
             id="g46">
            <defs
               id="defs43">
              <path
                 id="DejaVuSans-39"
                 d="M 703 97  L 703 672  Q 941 559 1184 500  Q 1428 441 1663 441  Q 2288 441 2617 861  Q 2947 1281 2994 2138  Q 2813 1869 2534 1725  Q 2256 1581 1919 1581  Q 1219 1581 811 2004  Q 403 2428 403 3163  Q 403 3881 828 4315  Q 1253 4750 1959 4750  Q 2769 4750 3195 4129  Q 3622 3509 3622 2328  Q 3622 1225 3098 567  Q 2575 -91 1691 -91  Q 1453 -91 1209 -44  Q 966 3 703 97  z M 1959 2075  Q 2384 2075 2632 2365  Q 2881 2656 2881 3163  Q 2881 3666 2632 3958  Q 2384 4250 1959 4250  Q 1534 4250 1286 3958  Q 1038 3666 1038 3163  Q 1038 2656 1286 2365  Q 1534 2075 1959 2075  z "
                 transform="scale(0.015625)" />
            </defs>
            <use
               xlink:href="#DejaVuSans-31"
               id="use44" />
            <use
               xlink:href="#DejaVuSans-65"
               transform="translate(63.623047 0)"
               id="use45" />
            <use
               xlink:href="#DejaVuSans-39"
               transform="translate(125.146484 0)"
               id="use46" />
          </g>
        </g>
      </g>
      <g
         id="matplotlib.axis_2">
        <g
           id="ytick_1">
          <g
             id="line2d_13">
            <path
               d="M 49.588125 282.409462  L 328.588125 282.409462  "
               clip-path="url(#pa7b799a36a)"
               style="fill: none; stroke-dasharray: 3.7,1.6; stroke-dashoffset: 0; stroke: #b0b0b0"
               id="path46" />
          </g>
          <g
             id="line2d_14">
            <defs
               id="defs46">
              <path
                 id="m9118375344"
                 d="M 0 0  L -3.5 0  "
                 style="stroke: #000000; stroke-width: 0.8" />
            </defs>
            <g
               id="g47">
              <use
                 xlink:href="#m9118375344"
                 x="49.588125"
                 y="282.409462"
                 style="stroke: #000000; stroke-width: 0.8"
                 id="use47" />
            </g>
          </g>
          <g
             id="text_9">
            <!-- 0.0 -->
            <g
               transform="translate(26.685 286.208681) scale(0.1 -0.1)"
               id="g50">
              <use
                 xlink:href="#DejaVuSans-30"
                 id="use48" />
              <use
                 xlink:href="#DejaVuSans-2e"
                 transform="translate(63.623047 0)"
                 id="use49" />
              <use
                 xlink:href="#DejaVuSans-30"
                 transform="translate(95.410156 0)"
                 id="use50" />
            </g>
          </g>
        </g>
        <g
           id="ytick_2">
          <g
             id="line2d_15">
            <path
               d="M 49.588125 249.305293  L 328.588125 249.305293  "
               clip-path="url(#pa7b799a36a)"
               style="fill: none; stroke-dasharray: 3.7,1.6; stroke-dashoffset: 0; stroke: #b0b0b0"
               id="path50" />
          </g>
          <g
             id="line2d_16">
            <g
               id="g51">
              <use
                 xlink:href="#m9118375344"
                 x="49.588125"
                 y="249.305293"
                 style="stroke: #000000; stroke-width: 0.8"
                 id="use51" />
            </g>
          </g>
          <g
             id="text_10">
            <!-- 0.2 -->
            <g
               transform="translate(26.685 253.104511) scale(0.1 -0.1)"
               id="g54">
              <use
                 xlink:href="#DejaVuSans-30"
                 id="use52" />
              <use
                 xlink:href="#DejaVuSans-2e"
                 transform="translate(63.623047 0)"
                 id="use53" />
              <use
                 xlink:href="#DejaVuSans-32"
                 transform="translate(95.410156 0)"
                 id="use54" />
            </g>
          </g>
        </g>
        <g
           id="ytick_3">
          <g
             id="line2d_17">
            <path
               d="M 49.588125 216.201123  L 328.588125 216.201123  "
               clip-path="url(#pa7b799a36a)"
               style="fill: none; stroke-dasharray: 3.7,1.6; stroke-dashoffset: 0; stroke: #b0b0b0"
               id="path54" />
          </g>
          <g
             id="line2d_18">
            <g
               id="g55">
              <use
                 xlink:href="#m9118375344"
                 x="49.588125"
                 y="216.201123"
                 style="stroke: #000000; stroke-width: 0.8"
                 id="use55" />
            </g>
          </g>
          <g
             id="text_11">
            <!-- 0.4 -->
            <g
               transform="translate(26.685 220.000341) scale(0.1 -0.1)"
               id="g58">
              <use
                 xlink:href="#DejaVuSans-30"
                 id="use56" />
              <use
                 xlink:href="#DejaVuSans-2e"
                 transform="translate(63.623047 0)"
                 id="use57" />
              <use
                 xlink:href="#DejaVuSans-34"
                 transform="translate(95.410156 0)"
                 id="use58" />
            </g>
          </g>
        </g>
        <g
           id="ytick_4">
          <g
             id="line2d_19">
            <path
               d="M 49.588125 183.096953  L 328.588125 183.096953  "
               clip-path="url(#pa7b799a36a)"
               style="fill: none; stroke-dasharray: 3.7,1.6; stroke-dashoffset: 0; stroke: #b0b0b0"
               id="path58" />
          </g>
          <g
             id="line2d_20">
            <g
               id="g59">
              <use
                 xlink:href="#m9118375344"
                 x="49.588125"
                 y="183.096953"
                 style="stroke: #000000; stroke-width: 0.8"
                 id="use59" />
            </g>
          </g>
          <g
             id="text_12">
            <!-- 0.6 -->
            <g
               transform="translate(26.685 186.896172) scale(0.1 -0.1)"
               id="g62">
              <use
                 xlink:href="#DejaVuSans-30"
                 id="use60" />
              <use
                 xlink:href="#DejaVuSans-2e"
                 transform="translate(63.623047 0)"
                 id="use61" />
              <use
                 xlink:href="#DejaVuSans-36"
                 transform="translate(95.410156 0)"
                 id="use62" />
            </g>
          </g>
        </g>
        <g
           id="ytick_5">
          <g
             id="line2d_21">
            <path
               d="M 49.588125 149.992783  L 328.588125 149.992783  "
               clip-path="url(#pa7b799a36a)"
               style="fill: none; stroke-dasharray: 3.7,1.6; stroke-dashoffset: 0; stroke: #b0b0b0"
               id="path62" />
          </g>
          <g
             id="line2d_22">
            <g
               id="g63">
              <use
                 xlink:href="#m9118375344"
                 x="49.588125"
                 y="149.992783"
                 style="stroke: #000000; stroke-width: 0.8"
                 id="use63" />
            </g>
          </g>
          <g
             id="text_13">
            <!-- 0.8 -->
            <g
               transform="translate(26.685 153.792002) scale(0.1 -0.1)"
               id="g66">
              <use
                 xlink:href="#DejaVuSans-30"
                 id="use64" />
              <use
                 xlink:href="#DejaVuSans-2e"
                 transform="translate(63.623047 0)"
                 id="use65" />
              <use
                 xlink:href="#DejaVuSans-38"
                 transform="translate(95.410156 0)"
                 id="use66" />
            </g>
          </g>
        </g>
        <g
           id="ytick_6">
          <g
             id="line2d_23">
            <path
               d="M 49.588125 116.888613  L 328.588125 116.888613  "
               clip-path="url(#pa7b799a36a)"
               style="fill: none; stroke-dasharray: 3.7,1.6; stroke-dashoffset: 0; stroke: #b0b0b0"
               id="path66" />
          </g>
          <g
             id="line2d_24">
            <g
               id="g67">
              <use
                 xlink:href="#m9118375344"
                 x="49.588125"
                 y="116.888613"
                 style="stroke: #000000; stroke-width: 0.8"
                 id="use67" />
            </g>
          </g>
          <g
             id="text_14">
            <!-- 1.0 -->
            <g
               transform="translate(26.685 120.687832) scale(0.1 -0.1)"
               id="g70">
              <use
                 xlink:href="#DejaVuSans-31"
                 id="use68" />
              <use
                 xlink:href="#DejaVuSans-2e"
                 transform="translate(63.623047 0)"
                 id="use69" />
              <use
                 xlink:href="#DejaVuSans-30"
                 transform="translate(95.410156 0)"
                 id="use70" />
            </g>
          </g>
        </g>
        <g
           id="ytick_7">
          <g
             id="line2d_25">
            <path
               d="M 49.588125 83.784444  L 328.588125 83.784444  "
               clip-path="url(#pa7b799a36a)"
               style="fill: none; stroke-dasharray: 3.7,1.6; stroke-dashoffset: 0; stroke: #b0b0b0"
               id="path70" />
          </g>
          <g
             id="line2d_26">
            <g
               id="g71">
              <use
                 xlink:href="#m9118375344"
                 x="49.588125"
                 y="83.784444"
                 style="stroke: #000000; stroke-width: 0.8"
                 id="use71" />
            </g>
          </g>
          <g
             id="text_15">
            <!-- 1.2 -->
            <g
               transform="translate(26.685 87.583662) scale(0.1 -0.1)"
               id="g74">
              <use
                 xlink:href="#DejaVuSans-31"
                 id="use72" />
              <use
                 xlink:href="#DejaVuSans-2e"
                 transform="translate(63.623047 0)"
                 id="use73" />
              <use
                 xlink:href="#DejaVuSans-32"
                 transform="translate(95.410156 0)"
                 id="use74" />
            </g>
          </g>
        </g>
        <g
           id="ytick_8">
          <g
             id="line2d_27">
            <path
               d="M 49.588125 50.680274  L 328.588125 50.680274  "
               clip-path="url(#pa7b799a36a)"
               style="fill: none; stroke-dasharray: 3.7,1.6; stroke-dashoffset: 0; stroke: #b0b0b0"
               id="path74" />
          </g>
          <g
             id="line2d_28">
            <g
               id="g75">
              <use
                 xlink:href="#m9118375344"
                 x="49.588125"
                 y="50.680274"
                 style="stroke: #000000; stroke-width: 0.8"
                 id="use75" />
            </g>
          </g>
          <g
             id="text_16">
            <!-- 1.4 -->
            <g
               transform="translate(26.685 54.479492) scale(0.1 -0.1)"
               id="g78">
              <use
                 xlink:href="#DejaVuSans-31"
                 id="use76" />
              <use
                 xlink:href="#DejaVuSans-2e"
                 transform="translate(63.623047 0)"
                 id="use77" />
              <use
                 xlink:href="#DejaVuSans-34"
                 transform="translate(95.410156 0)"
                 id="use78" />
            </g>
          </g>
        </g>
        <g
           id="text_17">
          <!-- Disk size (Bytes) -->
          <g
             transform="translate(19.3575 222.869687) rotate(-90) scale(0.16 -0.16)"
             id="g95">
            <defs
               id="defs78">
              <path
                 id="DejaVuSans-6b"
                 d="M 581 4863  L 1159 4863  L 1159 1991  L 2875 3500  L 3609 3500  L 1753 1863  L 3688 0  L 2938 0  L 1159 1709  L 1159 0  L 581 0  L 581 4863  z "
                 transform="scale(0.015625)" />
            </defs>
            <use
               xlink:href="#DejaVuSans-44"
               id="use79" />
            <use
               xlink:href="#DejaVuSans-69"
               transform="translate(77.001953 0)"
               id="use80" />
            <use
               xlink:href="#DejaVuSans-73"
               transform="translate(104.785156 0)"
               id="use81" />
            <use
               xlink:href="#DejaVuSans-6b"
               transform="translate(156.884766 0)"
               id="use82" />
            <use
               xlink:href="#DejaVuSans-20"
               transform="translate(214.794922 0)"
               id="use83" />
            <use
               xlink:href="#DejaVuSans-73"
               transform="translate(246.582031 0)"
               id="use84" />
            <use
               xlink:href="#DejaVuSans-69"
               transform="translate(298.681641 0)"
               id="use85" />
            <use
               xlink:href="#DejaVuSans-7a"
               transform="translate(326.464844 0)"
               id="use86" />
            <use
               xlink:href="#DejaVuSans-65"
               transform="translate(378.955078 0)"
               id="use87" />
            <use
               xlink:href="#DejaVuSans-20"
               transform="translate(440.478516 0)"
               id="use88" />
            <use
               xlink:href="#DejaVuSans-28"
               transform="translate(472.265625 0)"
               id="use89" />
            <use
               xlink:href="#DejaVuSans-42"
               transform="translate(511.279297 0)"
               id="use90" />
            <use
               xlink:href="#DejaVuSans-79"
               transform="translate(579.882812 0)"
               id="use91" />
            <use
               xlink:href="#DejaVuSans-74"
               transform="translate(639.0625 0)"
               id="use92" />
            <use
               xlink:href="#DejaVuSans-65"
               transform="translate(678.271484 0)"
               id="use93" />
            <use
               xlink:href="#DejaVuSans-73"
               transform="translate(739.794922 0)"
               id="use94" />
            <use
               xlink:href="#DejaVuSans-29"
               transform="translate(791.894531 0)"
               id="use95" />
          </g>
        </g>
        <g
           id="text_18">
          <!-- 1e9 -->
          <g
             transform="translate(49.588125 14.798437) scale(0.1 -0.1)"
             id="g98">
            <use
               xlink:href="#DejaVuSans-31"
               id="use96" />
            <use
               xlink:href="#DejaVuSans-65"
               transform="translate(63.623047 0)"
               id="use97" />
            <use
               xlink:href="#DejaVuSans-39"
               transform="translate(125.146484 0)"
               id="use98" />
          </g>
        </g>
      </g>
      <g
         id="line2d_29">
        <path
           d="M 62.269943 282.398438  L 62.35568 282.308945  L 62.47385 280.847234  L 62.529653 280.847234  L 62.641276 280.673673  L 62.706996 280.673673  L 62.818274 280.500112  L 62.884964 280.500112  L 62.996764 280.326551  L 63.062837 280.326551  L 63.174493 280.15299  L 63.238784 280.15299  L 63.350541 279.979428  L 63.415084 279.979428  L 63.527232 279.805867  L 63.593733 279.805867  L 63.705205 279.632306  L 63.770645 279.632306  L 63.882803 279.458745  L 63.948485 279.458745  L 64.061009 279.285184  L 64.129708 279.285184  L 64.241834 279.111622  L 64.309428 279.111622  L 64.421287 278.938061  L 64.489987 278.938061  L 64.601496 278.7645  L 64.671677 278.7645  L 64.783301 278.590939  L 64.848985 278.590939  L 64.961179 278.417378  L 65.02644 278.417378  L 65.138484 278.243817  L 65.203593 278.243817  L 65.315599 278.070255  L 65.382515 278.070255  L 65.494847 277.896694  L 65.563735 277.896694  L 65.67573 277.723133  L 65.738363 277.723133  L 65.849942 277.549572  L 65.914348 277.549572  L 66.025825 277.376011  L 66.093292 277.376011  L 66.204782 277.202449  L 66.271249 277.202449  L 66.383434 277.028888  L 66.45342 277.028888  L 66.564672 276.855327  L 66.635066 276.855327  L 66.746149 276.161082  L 67.348956 276.161082  L 67.460623 275.466837  L 68.054735 275.466837  L 68.166756 274.772593  L 68.76733 274.772593  L 68.879625 274.078348  L 69.475858 274.078348  L 69.588236 273.384103  L 70.172091 273.384103  L 70.283727 272.689858  L 70.892089 272.689858  L 71.00432 271.995614  L 71.610187 271.995614  L 71.722389 271.301369  L 72.312845 271.301369  L 72.42452 270.607124  L 73.010879 270.607124  L 73.12238 269.912879  L 73.716129 269.912879  L 73.828426 269.218635  L 74.432723 269.218635  L 74.5441 268.52439  L 75.141511 268.52439  L 75.253281 267.830145  L 75.847905 267.830145  L 75.959884 267.1359  L 76.563046 267.1359  L 76.67492 266.441656  L 77.2683 266.441656  L 77.380143 265.747411  L 77.980071 265.747411  L 78.091841 265.053166  L 78.507209 265.053166  L 78.619637 264.358921  L 79.219822 264.358921  L 79.331574 263.664677  L 79.931813 263.664677  L 80.043762 262.970432  L 80.642779 262.970432  L 80.754137 262.276187  L 81.363953 262.276187  L 81.476241 261.581942  L 82.0647 261.581942  L 82.176179 260.887698  L 82.777485 260.887698  L 82.888809 260.193453  L 83.488327 260.193453  L 83.59979 259.499208  L 84.211341 259.499208  L 84.322794 258.804963  L 84.920256 258.804963  L 85.031828 258.110719  L 85.626784 258.110719  L 85.738619 257.416474  L 86.345308 257.416474  L 86.45709 256.722229  L 87.06505 256.722229  L 87.176154 256.027984  L 87.784553 256.027984  L 87.897045 255.333739  L 88.511167 255.333739  L 88.623166 254.639495  L 89.223027 254.639495  L 89.334537 253.94525  L 89.943156 253.94525  L 90.055458 253.251005  L 90.669297 253.251005  L 90.781691 252.55676  L 91.386347 252.55676  L 91.497896 251.862516  L 92.102843 251.862516  L 92.214378 251.168271  L 92.810627 251.168271  L 92.922518 250.474026  L 93.525704 250.474026  L 93.636863 249.779781  L 94.232993 249.779781  L 94.344812 249.085537  L 94.935582 249.085537  L 95.047543 248.391292  L 95.64432 248.391292  L 95.756557 247.697047  L 96.183426 247.697047  L 96.294814 247.002802  L 96.901371 247.002802  L 97.013159 246.308558  L 97.618528 246.308558  L 97.730929 245.614313  L 98.331613 245.614313  L 98.443096 244.920068  L 99.032141 244.920068  L 99.143998 244.225823  L 99.746438 244.225823  L 99.858608 243.531579  L 100.460132 243.531579  L 100.572254 242.837334  L 101.180165 242.837334  L 101.291642 242.143089  L 101.901032 242.143089  L 102.013497 241.448844  L 102.604945 241.448844  L 102.716919 240.7546  L 103.304439 240.7546  L 103.416359 240.060355  L 104.019829 240.060355  L 104.131071 239.36611  L 104.730468 239.36611  L 104.842238 238.671865  L 105.450681 238.671865  L 105.562343 237.97762  L 106.168573 237.97762  L 106.280182 237.283376  L 106.888269 237.283376  L 106.999558 236.589131  L 107.41867 236.589131  L 107.529883 235.894886  L 108.118875 235.894886  L 108.23053 235.200641  L 108.822636 235.200641  L 108.933972 234.506397  L 109.542333 234.506397  L 109.654329 233.812152  L 110.264209 233.812152  L 110.376219 233.117907  L 110.975825 233.117907  L 111.086741 232.423662  L 111.700203 232.423662  L 111.811453 231.729418  L 112.405605 231.729418  L 112.51697 231.035173  L 113.115744 231.035173  L 113.227004 230.340928  L 113.655976 230.340928  L 113.767768 229.646683  L 114.35356 229.646683  L 114.465137 228.952439  L 115.070657 228.952439  L 115.182157 228.258194  L 115.785869 228.258194  L 115.897747 227.563949  L 116.499822 227.563949  L 116.611724 226.869704  L 117.195074 226.869704  L 117.306752 226.17546  L 117.908102 226.17546  L 118.020041 225.481215  L 118.62068 225.481215  L 118.732117 224.78697  L 119.336693 224.78697  L 119.448389 224.092725  L 120.049025 224.092725  L 120.160865 223.398481  L 120.76646 223.398481  L 120.877644 222.704236  L 121.495655 222.704236  L 121.607034 222.009991  L 122.201352 222.009991  L 122.313626 221.315746  L 122.923036 221.315746  L 123.034762 220.621502  L 123.633122 220.621502  L 123.745057 219.927257  L 124.344739 219.927257  L 124.455919 219.233012  L 125.057054 219.233012  L 125.168097 218.538767  L 125.761207 218.538767  L 125.872691 217.844522  L 126.467286 217.844522  L 126.579043 217.150278  L 127.176721 217.150278  L 127.289112 216.456033  L 127.892182 216.456033  L 128.003917 215.761788  L 128.603625 215.761788  L 128.71588 215.067543  L 129.318291 215.067543  L 129.42977 214.373299  L 130.035778 214.373299  L 130.147689 213.679054  L 130.753315 213.679054  L 130.864978 212.984809  L 131.287553 212.984809  L 131.399401 212.290564  L 131.999759 212.290564  L 132.111757 211.59632  L 132.716859 211.59632  L 132.8293 210.902075  L 133.429234 210.902075  L 133.540543 210.20783  L 134.144456 210.20783  L 134.256943 209.513585  L 134.859863 209.513585  L 134.972067 208.819341  L 135.564055 208.819341  L 135.675924 208.125096  L 136.28375 208.125096  L 136.395819 207.430851  L 137.005906 207.430851  L 137.118032 206.736606  L 137.715709 206.736606  L 137.827133 206.042362  L 138.421392 206.042362  L 138.532555 205.348117  L 139.147446 205.348117  L 139.25871 204.653872  L 139.858724 204.653872  L 139.970925 203.959627  L 140.559658 203.959627  L 140.671522 203.265383  L 141.274244 203.265383  L 141.386681 202.571138  L 141.98069 202.571138  L 142.092208 201.876893  L 142.700171 201.876893  L 142.811821 201.182648  L 143.405442 201.182648  L 143.517109 200.488403  L 144.125631 200.488403  L 144.237206 199.794159  L 144.840389 199.794159  L 144.951672 199.099914  L 145.556683 199.099914  L 145.668105 198.405669  L 146.278613 198.405669  L 146.390169 197.711424  L 146.984878 197.711424  L 147.096469 197.01718  L 147.694761 197.01718  L 147.807155 196.322935  L 148.4017 196.322935  L 148.513307 195.62869  L 148.933879 195.62869  L 149.046123 194.934445  L 149.638659 194.934445  L 149.750464 194.240201  L 150.344161 194.240201  L 150.456392 193.545956  L 151.062639 193.545956  L 151.173997 192.851711  L 151.78338 192.851711  L 151.89552 192.157466  L 152.484738 192.157466  L 152.596539 191.463222  L 153.0241 191.463222  L 153.136096 190.768977  L 153.737679 190.768977  L 153.849976 190.074732  L 154.454009 190.074732  L 154.566182 189.380487  L 155.179245 189.380487  L 155.29076 188.686243  L 155.88928 188.686243  L 156.001416 187.991998  L 156.593267 187.991998  L 156.704793 187.297753  L 157.306123 187.297753  L 157.41767 186.603508  L 157.842621 186.603508  L 157.954098 185.909264  L 158.558478 185.909264  L 158.670452 185.215019  L 159.269424 185.215019  L 159.381508 184.520774  L 159.973931 184.520774  L 160.085791 183.826529  L 160.675674 183.826529  L 160.787201 183.132285  L 161.384079 183.132285  L 161.496289 182.43804  L 162.097856 182.43804  L 162.209409 181.743795  L 162.819452 181.743795  L 162.931292 181.04955  L 163.51849 181.04955  L 163.630993 180.355305  L 164.239566 180.355305  L 164.350687 179.661061  L 164.964167 179.661061  L 165.075494 178.966816  L 165.675175 178.966816  L 165.787578 178.272571  L 166.201949 178.272571  L 166.314057 177.578326  L 166.916146 177.578326  L 167.028439 176.884082  L 167.621825 176.884082  L 167.733011 176.189837  L 168.339091 176.189837  L 168.450479 175.495592  L 169.050603 175.495592  L 169.161748 174.801347  L 169.764897 174.801347  L 169.876005 174.107103  L 170.479644 174.107103  L 170.591603 173.412858  L 171.184213 173.412858  L 171.29608 172.718613  L 171.894352 172.718613  L 172.005589 172.024368  L 172.602157 172.024368  L 172.713383 171.330124  L 173.307154 171.330124  L 173.418831 170.635879  L 174.031629 170.635879  L 174.143477 169.941634  L 174.7548 169.941634  L 174.866414 169.247389  L 175.466392 169.247389  L 175.578876 168.553145  L 176.175976 168.553145  L 176.288189 167.8589  L 176.887238 167.8589  L 176.998537 167.164655  L 177.602123 167.164655  L 177.713797 166.47041  L 178.312764 166.47041  L 178.424503 165.776166  L 179.036614 165.776166  L 179.148743 165.081921  L 179.748451 165.081921  L 179.86007 164.387676  L 180.465303 164.387676  L 180.577477 163.693431  L 181.175874 163.693431  L 181.287821 162.999186  L 181.888252 162.999186  L 182.000261 162.304942  L 182.599313 162.304942  L 182.710949 161.610697  L 183.321488 161.610697  L 183.433512 160.916452  L 183.84289 160.916452  L 183.954209 160.222207  L 184.551859 160.222207  L 184.663997 159.527963  L 185.263042 159.527963  L 185.374608 158.833718  L 185.975338 158.833718  L 186.087222 158.139473  L 186.686549 158.139473  L 186.798405 157.445228  L 187.398405 157.445228  L 187.510613 156.750984  L 188.112737 156.750984  L 188.224039 156.056739  L 188.822932 156.056739  L 188.934842 155.362494  L 189.537871 155.362494  L 189.649957 154.668249  L 190.254087 154.668249  L 190.365346 153.974005  L 190.968773 153.974005  L 191.08042 153.27976  L 191.679314 153.27976  L 191.791598 152.585515  L 192.390107 152.585515  L 192.501743 151.89127  L 193.109295 151.89127  L 193.221318 151.197026  L 193.823674 151.197026  L 193.935726 150.502781  L 194.527543 150.502781  L 194.63863 149.808536  L 195.23598 149.808536  L 195.348098 149.114291  L 195.954245 149.114291  L 196.065553 148.420047  L 196.65574 148.420047  L 196.767925 147.725802  L 197.37313 147.725802  L 197.485376 147.031557  L 198.106781 147.031557  L 198.21802 146.337312  L 198.648285 146.337312  L 198.760175 145.643068  L 199.366771 145.643068  L 199.479011 144.948823  L 200.068904 144.948823  L 200.180985 144.254578  L 200.773877 144.254578  L 200.886064 143.560333  L 201.310723 143.560333  L 201.422123 142.866088  L 202.024143 142.866088  L 202.135641 142.171844  L 202.73518 142.171844  L 202.847668 141.477599  L 203.442172 141.477599  L 203.553857 140.783354  L 204.159563 140.783354  L 204.271376 140.089109  L 204.871659 140.089109  L 204.983432 139.394865  L 205.582952 139.394865  L 205.695226 138.70062  L 206.304324 138.70062  L 206.416052 138.006375  L 207.021764 138.006375  L 207.133834 137.31213  L 207.730912 137.31213  L 207.842396 136.617886  L 208.441181 136.617886  L 208.552315 135.923641  L 209.144755 135.923641  L 209.256717 135.229396  L 209.855466 135.229396  L 209.967354 134.535151  L 210.558004 134.535151  L 210.669721 133.840907  L 211.273001 133.840907  L 211.384018 133.146662  L 211.988213 133.146662  L 212.099881 132.452417  L 212.695278 132.452417  L 212.807328 131.758172  L 213.406654 131.758172  L 213.518161 131.063928  L 214.124842 131.063928  L 214.236752 130.369683  L 214.837276 130.369683  L 214.949168 129.675438  L 215.558 129.675438  L 215.669209 128.981193  L 216.277732 128.981193  L 216.388854 128.286949  L 216.982097 128.286949  L 217.093176 127.592704  L 217.69165 127.592704  L 217.803687 126.898459  L 218.413891 126.898459  L 218.526118 126.204214  L 218.954854 126.204214  L 219.066934 125.50997  L 219.660905 125.50997  L 219.772434 124.815725  L 220.367456 124.815725  L 220.479197 124.12148  L 221.086509 124.12148  L 221.197849 123.427235  L 221.796444 123.427235  L 221.907798 122.73299  L 222.51371 122.73299  L 222.625463 122.038746  L 223.204647 122.038746  L 223.316521 121.344501  L 223.93606 121.344501  L 224.047418 120.650256  L 224.655969 120.650256  L 224.768225 119.956011  L 225.37509 119.956011  L 225.48605 119.261767  L 226.082855 119.261767  L 226.194748 118.567522  L 226.79126 118.567522  L 226.902729 117.873277  L 227.51493 117.873277  L 227.627399 117.179032  L 228.222982 117.179032  L 228.334106 116.484788  L 228.928216 116.484788  L 229.039383 115.790543  L 229.644578 115.790543  L 229.756341 115.096298  L 230.355231 115.096298  L 230.467554 114.402053  L 231.068918 114.402053  L 231.180714 113.707809  L 231.787536 113.707809  L 231.898829 113.013564  L 232.500218 113.013564  L 232.611626 112.319319  L 233.215084 112.319319  L 233.326494 111.625074  L 233.932837 111.625074  L 234.04432 110.93083  L 234.64811 110.93083  L 234.759451 110.236585  L 235.35939 110.236585  L 235.47126 109.54234  L 236.071142 109.54234  L 236.183175 108.848095  L 236.601022 108.848095  L 236.712743 108.153851  L 237.312061 108.153851  L 237.424234 107.459606  L 238.019322 107.459606  L 238.130798 106.765361  L 238.730635 106.765361  L 238.841996 106.071116  L 239.442589 106.071116  L 239.554027 105.376871  L 240.145787 105.376871  L 240.257646 104.682627  L 240.858017 104.682627  L 240.969924 103.988382  L 241.569435 103.988382  L 241.680918 103.294137  L 242.285621 103.294137  L 242.398135 102.599892  L 243.002131 102.599892  L 243.113812 101.905648  L 243.530731 101.905648  L 243.64205 101.211403  L 244.229871 101.211403  L 244.341084 100.517158  L 244.930039 100.517158  L 245.041923 99.822913  L 245.645311 99.822913  L 245.757353 99.128669  L 246.361887 99.128669  L 246.473062 98.434424  L 247.07521 98.434424  L 247.187072 97.740179  L 247.779778 97.740179  L 247.892049 97.045934  L 248.50064 97.045934  L 248.612575 96.35169  L 249.213186 96.35169  L 249.325196 95.657445  L 249.928689 95.657445  L 250.039883 94.9632  L 250.635549 94.9632  L 250.747015 94.268955  L 251.358232 94.268955  L 251.470194 93.574711  L 252.073662 93.574711  L 252.185544 92.880466  L 252.778703 92.880466  L 252.890028 92.186221  L 253.493111 92.186221  L 253.605065 91.491976  L 254.034708 91.491976  L 254.146284 90.797732  L 254.750634 90.797732  L 254.861762 90.103487  L 255.468998 90.103487  L 255.581117 89.409242  L 256.191213 89.409242  L 256.303361 88.714997  L 256.908316 88.714997  L 257.019759 88.020753  L 257.610516 88.020753  L 257.72226 87.326508  L 258.344217 87.326508  L 258.455817 86.632263  L 259.061 86.632263  L 259.172232 85.938018  L 259.781493 85.938018  L 259.893462 85.243773  L 260.501037 85.243773  L 260.612692 84.549529  L 261.224101 84.549529  L 261.335803 83.855284  L 261.947108 83.855284  L 262.058609 83.161039  L 262.676791 83.161039  L 262.788201 82.466794  L 263.373436 82.466794  L 263.484919 81.77255  L 264.086281 81.77255  L 264.198667 81.078305  L 264.800467 81.078305  L 264.911378 80.38406  L 265.516425 80.38406  L 265.628463 79.689815  L 266.222243 79.689815  L 266.333758 78.995571  L 266.921536 78.995571  L 267.033852 78.301326  L 267.626236 78.301326  L 267.738643 77.607081  L 268.325118 77.607081  L 268.436589 76.912836  L 269.038708 76.912836  L 269.151006 76.218592  L 269.743258 76.218592  L 269.854502 75.524347  L 270.456686 75.524347  L 270.568118 74.830102  L 271.169784 74.830102  L 271.280996 74.135857  L 271.710714 74.135857  L 271.821991 73.441613  L 272.419047 73.441613  L 272.530688 72.747368  L 273.131888 72.747368  L 273.244161 72.053123  L 273.838945 72.053123  L 273.950779 71.358878  L 274.553024 71.358878  L 274.664252 70.664634  L 275.264497 70.664634  L 275.376161 69.970389  L 275.963463 69.970389  L 276.075789 69.276144  L 276.677401 69.276144  L 276.789581 68.581899  L 277.383095 68.581899  L 277.494981 67.887654  L 278.115682 67.887654  L 278.227102 67.19341  L 278.830176 67.19341  L 278.941927 66.499165  L 279.540036 66.499165  L 279.651808 65.80492  L 280.249311 65.80492  L 280.361389 65.110675  L 280.964737 65.110675  L 281.076968 64.416431  L 281.683622 64.416431  L 281.794856 63.722186  L 282.393844 63.722186  L 282.505601 63.027941  L 283.110962 63.027941  L 283.222948 62.333696  L 283.840274 62.333696  L 283.952716 61.639452  L 284.564896 61.639452  L 284.676507 60.945207  L 285.279742 60.945207  L 285.391337 60.250962  L 285.995442 60.250962  L 286.106842 59.556717  L 286.698976 59.556717  L 286.811444 58.862473  L 287.404899 58.862473  L 287.516966 58.168228  L 288.108324 58.168228  L 288.220364 57.473983  L 288.814805 57.473983  L 288.926127 56.779738  L 289.173719 56.779738  L 289.28526 56.085494  L 289.883471 56.085494  L 289.994938 55.391249  L 290.595281 55.391249  L 290.707448 54.697004  L 291.311306 54.697004  L 291.422939 54.002759  L 292.03772 54.002759  L 292.149978 53.308515  L 292.749216 53.308515  L 292.861455 52.61427  L 293.462856 52.61427  L 293.575021 51.920025  L 294.178579 51.920025  L 294.289988 51.22578  L 294.890884 51.22578  L 295.002547 50.531536  L 295.609216 50.531536  L 295.721227 49.837291  L 296.326568 49.837291  L 296.439101 49.143046  L 297.043412 49.143046  L 297.154512 48.448801  L 297.750568 48.448801  L 297.862011 47.754556  L 298.467995 47.754556  L 298.579233 47.060312  L 299.167913 47.060312  L 299.279529 46.366067  L 299.87379 46.366067  L 299.985353 45.671822  L 300.574518 45.671822  L 300.686064 44.977577  L 301.284463 44.977577  L 301.396119 44.283333  L 301.99267 44.283333  L 302.104631 43.589088  L 302.708922 43.589088  L 302.82013 42.894843  L 303.416713 42.894843  L 303.528472 42.200598  L 304.134519 42.200598  L 304.245695 41.506354  L 304.85251 41.506354  L 304.964113 40.812109  L 305.567612 40.812109  L 305.679666 40.117864  L 306.279529 40.117864  L 306.391032 39.423619  L 306.810908 39.423619  L 306.922415 38.729375  L 307.521786 38.729375  L 307.634103 38.03513  L 308.234956 38.03513  L 308.34633 37.340885  L 308.944801 37.340885  L 309.056225 36.64664  L 309.663764 36.64664  L 309.775908 35.952396  L 310.380342 35.952396  L 310.491786 35.258151  L 311.095849 35.258151  L 311.208008 34.563906  L 311.812366 34.563906  L 311.924206 33.869661  L 312.534468 33.869661  L 312.646237 33.175417  L 313.25649 33.175417  L 313.367904 32.481172  L 313.970124 32.481172  L 314.081005 31.786927  L 314.675838 31.786927  L 314.788021 31.092682  L 315.390281 31.092682  L 315.501808 30.398438  L 315.905936 30.398438  L 315.905936 30.398438  "
           clip-path="url(#pa7b799a36a)"
           style="fill: none; stroke: #000000; stroke-width: 1.5; stroke-linecap: square"
           id="path98" />
      </g>
      <g
         id="line2d_30">
        <path
           d="M 62.269943 282.398438  L 62.363506 282.308945  L 62.480235 280.847234  L 62.55975 280.847234  L 62.671499 280.673673  L 62.753065 280.673673  L 62.864867 280.500112  L 62.946472 280.500112  L 63.058322 280.326551  L 63.139964 280.326551  L 63.251866 280.15299  L 63.333545 280.15299  L 63.445501 279.979428  L 63.52722 279.979428  L 63.639224 279.805867  L 63.720979 279.805867  L 63.833036 279.632306  L 63.91483 279.632306  L 64.026939 279.458745  L 64.10877 279.458745  L 64.219916 279.285184  L 64.302789 279.285184  L 64.413985 279.111622  L 64.496895 279.111622  L 64.608141 278.938061  L 64.691085 278.938061  L 64.802379 278.7645  L 64.88536 278.7645  L 64.996701 278.590939  L 65.07972 278.590939  L 65.191111 278.417378  L 65.274169 278.417378  L 65.385608 278.243817  L 65.468702 278.243817  L 65.580192 278.070255  L 65.660281 278.070255  L 65.771821 277.896694  L 65.858029 277.896694  L 65.969617 277.723133  L 66.05282 277.723133  L 66.164461 277.549572  L 66.247701 277.549572  L 66.359385 277.376011  L 66.442658 277.376011  L 66.554393 277.202449  L 66.637704 277.202449  L 66.749492 277.028888  L 66.83284 277.028888  L 66.94468 276.855327  L 67.028068 276.855327  L 67.139955 276.161082  L 67.809801 276.161082  L 67.921877 275.466837  L 68.592895 275.466837  L 68.704145 274.772593  L 69.377322 274.772593  L 69.488762 274.078348  L 70.163098 274.078348  L 70.274734 273.384103  L 70.950225 273.384103  L 71.062057 272.689858  L 71.738766 272.689858  L 71.850796 271.995614  L 72.528687 271.995614  L 72.639877 271.301369  L 73.319941 271.301369  L 73.43132 270.607124  L 74.112578 270.607124  L 74.224149 269.912879  L 74.90658 269.912879  L 75.018344 269.218635  L 75.701936 269.218635  L 75.813888 268.52439  L 76.498562 268.52439  L 76.610694 267.830145  L 77.296507 267.830145  L 77.407784 267.1359  L 78.095765 267.1359  L 78.207222 266.441656  L 78.896337 266.441656  L 79.007987 265.747411  L 79.698304 265.747411  L 79.810149 265.053166  L 80.300695 265.053166  L 80.41268 264.358921  L 81.105053 264.358921  L 81.216177 263.664677  L 81.910789 263.664677  L 82.022117 262.970432  L 82.717961 262.970432  L 82.829478 262.276187  L 83.52653 262.276187  L 83.63824 261.581942  L 84.336519 261.581942  L 84.448426 260.887698  L 85.147898 260.887698  L 85.259991 260.193453  L 85.960657 260.193453  L 86.071885 259.499208  L 86.774759 259.499208  L 86.886164 258.804963  L 87.590191 258.804963  L 87.701774 258.110719  L 88.406931 258.110719  L 88.5187 257.416474  L 89.22502 257.416474  L 89.336976 256.722229  L 90.044471 256.722229  L 90.156615 256.027984  L 90.865263 256.027984  L 90.976513 255.333739  L 91.687384 255.333739  L 91.798816 254.639495  L 92.510838 254.639495  L 92.622452 253.94525  L 93.335639 253.94525  L 93.447434 253.251005  L 94.161795 253.251005  L 94.27377 252.55676  L 94.989275 252.55676  L 95.10143 251.862516  L 95.818144 251.862516  L 95.929415 251.168271  L 96.648429 251.168271  L 96.759894 250.474026  L 97.480117 250.474026  L 97.591768 249.779781  L 98.313236 249.779781  L 98.425075 249.085537  L 99.147726 249.085537  L 99.259743 248.391292  L 99.983565 248.391292  L 100.09576 247.697047  L 100.611306 247.697047  L 100.722547 247.002802  L 101.449466 247.002802  L 101.560888 246.308558  L 102.288993 246.308558  L 102.400601 245.614313  L 103.129927 245.614313  L 103.241713 244.920068  L 103.972198 244.920068  L 104.084164 244.225823  L 104.815816 244.225823  L 104.927956 243.531579  L 105.660766 243.531579  L 105.77199 242.837334  L 106.507103 242.837334  L 106.618502 242.143089  L 107.354753 242.143089  L 107.466324 241.448844  L 108.203729 241.448844  L 108.31549 240.7546  L 109.054141 240.7546  L 109.166078 240.060355  L 109.90589 240.060355  L 110.018007 239.36611  L 110.759014 239.36611  L 110.8702 238.671865  L 111.613462 238.671865  L 111.724814 237.97762  L 112.469254 237.97762  L 112.580789 237.283376  L 113.326435 237.283376  L 113.438148 236.589131  L 113.970218 236.589131  L 114.082073 235.894886  L 114.829845 235.894886  L 114.941877 235.200641  L 115.690812 235.200641  L 115.80301 234.506397  L 116.55306 234.506397  L 116.664304 233.812152  L 117.416617 233.812152  L 117.528032 233.117907  L 118.281523 233.117907  L 118.393116 232.423662  L 119.147804 232.423662  L 119.25958 231.729418  L 120.015488 231.729418  L 120.127434 231.035173  L 120.884508 231.035173  L 120.996627 230.340928  L 121.537151 230.340928  L 121.648271 229.646683  L 122.408584 229.646683  L 122.519886 228.952439  L 123.28138 228.952439  L 123.392849 228.258194  L 124.155494 228.258194  L 124.267131 227.563949  L 125.030936 227.563949  L 125.142732 226.869704  L 125.907667 226.869704  L 126.019646 226.17546  L 126.785799 226.17546  L 126.897951 225.481215  L 127.665278 225.481215  L 127.776457 224.78697  L 128.546154 224.78697  L 128.657512 224.092725  L 129.42841 224.092725  L 129.539938 223.398481  L 130.312005 223.398481  L 130.423703 222.704236  L 131.196982 222.704236  L 131.308852 222.009991  L 132.083315 222.009991  L 132.195356 221.315746  L 132.970974 221.315746  L 133.083185 220.621502  L 133.860044 220.621502  L 133.971277 219.927257  L 134.750541 219.927257  L 134.861955 219.233012  L 135.642455 219.233012  L 135.754036 218.538767  L 136.535748 218.538767  L 136.647506 217.844522  L 137.430414 217.844522  L 137.542347 217.150278  L 138.326461 217.150278  L 138.438562 216.456033  L 139.223866 216.456033  L 139.33614 215.761788  L 140.122661 215.761788  L 140.233932 215.067543  L 141.022826 215.067543  L 141.134276 214.373299  L 141.92437 214.373299  L 142.035981 213.679054  L 142.827217 213.679054  L 142.938994 212.984809  L 143.505265 212.984809  L 143.617165 212.290564  L 144.410496 212.290564  L 144.522566 211.59632  L 145.317081 211.59632  L 145.429314 210.902075  L 146.225016 210.902075  L 146.33624 210.20783  L 147.134342 210.20783  L 147.245735 209.513585  L 148.045031 209.513585  L 148.156593 208.819341  L 148.957123 208.819341  L 149.068858 208.125096  L 149.870643 208.125096  L 149.982544 207.430851  L 150.785487 207.430851  L 150.897552 206.736606  L 151.693287 206.736606  L 151.805508 206.042362  L 152.304761 206.042362  L 152.415892 205.348117  L 152.916821 205.348117  L 153.028062 204.653872  L 153.529473 204.653872  L 153.640819 203.959627  L 154.142713 203.959627  L 154.254169 203.265383  L 154.756567 203.265383  L 154.86813 202.571138  L 155.371001 202.571138  L 155.482671 201.876893  L 155.986042 201.876893  L 156.097818 201.182648  L 156.601679 201.182648  L 156.713572 200.488403  L 157.217949 200.488403  L 157.329957 199.794159  L 157.834812 199.794159  L 157.946921 199.099914  L 158.452259 199.099914  L 158.564479 198.405669  L 159.070321 198.405669  L 159.181439 197.711424  L 159.688971 197.711424  L 159.800204 197.01718  L 160.308253 197.01718  L 160.419592 196.322935  L 160.928126 196.322935  L 161.039571 195.62869  L 161.393419 195.62869  L 161.504947 194.934445  L 162.014339 194.934445  L 162.125973 194.240201  L 162.635837 194.240201  L 162.747576 193.545956  L 163.257927 193.545956  L 163.369779 192.851711  L 163.880652 192.851711  L 163.992615 192.157466  L 164.504007 192.157466  L 164.616079 191.463222  L 164.971923 191.463222  L 165.084081 190.768977  L 165.596372 190.768977  L 165.708643 190.074732  L 166.221424 190.074732  L 166.332578 189.380487  L 166.847061 189.380487  L 166.958322 188.686243  L 167.473305 188.686243  L 167.584675 187.991998  L 168.100162 187.991998  L 168.21164 187.297753  L 168.72763 187.297753  L 168.839216 186.603508  L 169.198634 186.603508  L 169.310306 185.909264  L 169.827216 185.909264  L 169.939001 185.215019  L 170.456392 185.215019  L 170.568279 184.520774  L 171.086165 184.520774  L 171.19816 183.826529  L 171.716517 183.826529  L 171.828611 183.132285  L 172.347451 183.132285  L 172.459656 182.43804  L 172.978994 182.43804  L 173.091305 181.743795  L 173.611125 181.743795  L 173.7223 181.04955  L 174.24384 181.04955  L 174.355126 180.355305  L 174.877174 180.355305  L 174.988566 179.661061  L 175.511145 179.661061  L 175.622648 178.966816  L 176.145725 178.966816  L 176.257335 178.272571  L 176.622055 178.272571  L 176.733749 177.578326  L 177.257703 177.578326  L 177.369502 176.884082  L 177.893959 176.884082  L 178.005866 176.189837  L 178.530826 176.189837  L 178.642839 175.495592  L 179.168304 175.495592  L 179.280423 174.801347  L 179.806392 174.801347  L 179.918617 174.107103  L 180.445074 174.107103  L 180.557409 173.412858  L 181.08436 173.412858  L 181.195546 172.718613  L 181.724244 172.718613  L 181.835536 172.024368  L 182.364735 172.024368  L 182.476133 171.330124  L 183.005812 171.330124  L 183.117304 170.635879  L 183.647474 170.635879  L 183.759073 169.941634  L 184.289737 169.941634  L 184.40144 169.247389  L 184.932598 169.247389  L 185.044408 168.553145  L 185.576071 168.553145  L 185.687987 167.8589  L 186.220155 167.8589  L 186.332176 167.164655  L 186.864839 167.164655  L 186.976971 166.47041  L 187.510157 166.47041  L 187.62239 165.776166  L 188.156061 165.776166  L 188.268394 165.081921  L 188.802537 165.081921  L 188.913714 164.387676  L 189.44964 164.387676  L 189.560918 163.693431  L 190.09733 163.693431  L 190.208713 162.999186  L 190.745616 162.999186  L 190.857101 162.304942  L 191.394504 162.304942  L 191.506089 161.610697  L 192.043967 161.610697  L 192.155656 160.916452  L 192.531477 160.916452  L 192.643249 160.222207  L 193.182019 160.222207  L 193.293897 159.527963  L 193.833219 159.527963  L 193.945207 158.833718  L 194.485038 158.833718  L 194.597129 158.139473  L 195.137455 158.139473  L 195.249643 157.445228  L 195.790454 157.445228  L 195.902746 156.750984  L 196.444048 156.750984  L 196.555167 156.056739  L 197.098269 156.056739  L 197.209498 155.362494  L 197.753126 155.362494  L 197.864464 154.668249  L 198.408603 154.668249  L 198.520042 153.974005  L 199.064684 153.974005  L 199.176226 153.27976  L 199.721372 153.27976  L 199.833022 152.585515  L 200.378699 152.585515  L 200.490457 151.89127  L 201.036663 151.89127  L 201.148529 151.197026  L 201.695252 151.197026  L 201.807222 150.502781  L 202.354473 150.502781  L 202.466558 149.808536  L 203.014333 149.808536  L 203.12652 149.114291  L 203.674822 149.114291  L 203.787112 148.420047  L 204.335905 148.420047  L 204.448298 147.725802  L 204.997614 147.725802  L 205.108818 147.031557  L 205.659923 147.031557  L 205.771232 146.337312  L 206.157071 146.337312  L 206.268456 145.643068  L 206.820451 145.643068  L 206.931938 144.948823  L 207.484429 144.948823  L 207.596016 144.254578  L 208.149026 144.254578  L 208.260716 143.560333  L 208.647866 143.560333  L 208.759635 142.866088  L 209.313521 142.866088  L 209.425393 142.171844  L 209.979813 142.171844  L 210.091789 141.477599  L 210.646711 141.477599  L 210.75879 140.783354  L 211.31423 140.783354  L 211.426418 140.089109  L 211.98238 140.089109  L 212.094666 139.394865  L 212.651109 139.394865  L 212.763492 138.70062  L 213.320432 138.70062  L 213.431606 138.006375  L 213.990359 138.006375  L 214.101634 137.31213  L 214.660881 137.31213  L 214.772257 136.617886  L 215.332029 136.617886  L 215.443511 135.923641  L 216.003803 135.923641  L 216.115391 135.229396  L 216.676194 135.229396  L 216.787875 134.535151  L 217.349173 134.535151  L 217.460961 133.840907  L 218.022767 133.840907  L 218.134655 133.146662  L 218.696989 133.146662  L 218.808981 132.452417  L 219.371803 132.452417  L 219.483888 131.758172  L 220.047206 131.758172  L 220.159394 131.063928  L 220.723219 131.063928  L 220.835507 130.369683  L 221.399846 130.369683  L 221.512239 129.675438  L 222.077097 129.675438  L 222.188269 128.981193  L 222.754979 128.981193  L 222.866254 128.286949  L 223.433466 128.286949  L 223.544839 127.592704  L 224.112575 127.592704  L 224.22405 126.898459  L 224.792288 126.898459  L 224.903861 126.204214  L 225.30246 126.204214  L 225.414105 125.50997  L 225.983209 125.50997  L 226.094948 124.815725  L 226.664554 124.815725  L 226.776395 124.12148  L 227.346511 124.12148  L 227.458451 123.427235  L 228.029079 123.427235  L 228.141122 122.73299  L 228.712294 122.73299  L 228.82445 122.038746  L 229.396156 122.038746  L 229.508411 121.344501  L 230.080642 121.344501  L 230.193002 120.650256  L 230.765772 120.650256  L 230.876899 119.956011  L 231.451521 119.956011  L 231.562743 119.261767  L 232.137859 119.261767  L 232.249179 118.567522  L 232.824797 118.567522  L 232.936211 117.873277  L 233.512317 117.873277  L 233.623828 117.179032  L 234.200421 117.179032  L 234.312027 116.484788  L 234.889152 116.484788  L 235.000863 115.790543  L 235.578519 115.790543  L 235.690332 115.096298  L 236.268468 115.096298  L 236.380372 114.402053  L 236.959013 114.402053  L 237.071017 113.707809  L 237.650166 113.707809  L 237.762267 113.013564  L 238.341933 113.013564  L 238.454139 112.319319  L 239.034321 112.319319  L 239.146621 111.625074  L 239.727299 111.625074  L 239.839694 110.93083  L 240.420878 110.93083  L 240.532014 110.236585  L 241.115055 110.236585  L 241.226287 109.54234  L 241.809829 109.54234  L 241.921159 108.848095  L 242.331308 108.848095  L 242.442705 108.153851  L 243.0271 108.153851  L 243.138593 107.459606  L 243.723489 107.459606  L 243.835075 106.765361  L 244.420496 106.765361  L 244.532186 106.071116  L 245.118123 106.071116  L 245.229906 105.376871  L 245.816348 105.376871  L 245.92823 104.682627  L 246.51522 104.682627  L 246.627209 103.988382  L 247.21472 103.988382  L 247.326803 103.294137  L 247.914812 103.294137  L 248.026992 102.599892  L 248.615511 102.599892  L 248.727793 101.905648  L 249.141444 101.905648  L 249.253802 101.211403  L 249.843263 101.211403  L 249.955724 100.517158  L 250.545726 100.517158  L 250.656913 99.822913  L 251.248793 99.822913  L 251.360074 99.128669  L 251.952426 99.128669  L 252.063796 98.434424  L 252.65666 98.434424  L 252.768126 97.740179  L 253.361492 97.740179  L 253.473055 97.045934  L 254.066943 97.045934  L 254.178605 96.35169  L 254.773007 96.35169  L 254.884766 95.657445  L 255.479678 95.657445  L 255.591528 94.9632  L 256.186947 94.9632  L 256.298897 94.268955  L 256.894823 94.268955  L 257.006868 93.574711  L 257.603292 93.574711  L 257.715433 92.880466  L 258.312388 92.880466  L 258.424627 92.186221  L 259.022097 92.186221  L 259.13443 91.491976  L 259.554754 91.491976  L 259.667157 90.797732  L 260.265497 90.797732  L 260.376609 90.103487  L 260.976862 90.103487  L 261.088065 89.409242  L 261.688843 89.409242  L 261.800149 88.714997  L 262.401472 88.714997  L 262.512872 88.020753  L 263.114692 88.020753  L 263.226189 87.326508  L 263.828547 87.326508  L 263.940141 86.632263  L 264.543021 86.632263  L 264.654712 85.938018  L 265.258084 85.938018  L 265.369862 85.243773  L 265.973712 85.243773  L 266.085581 84.549529  L 266.689941 84.549529  L 266.801908 83.855284  L 267.406777 83.855284  L 267.518834 83.161039  L 268.124176 83.161039  L 268.236318 82.466794  L 268.842155 82.466794  L 268.954391 81.77255  L 269.560714 81.77255  L 269.673043 81.078305  L 270.279883 81.078305  L 270.392303 80.38406  L 270.999633 80.38406  L 271.112148 79.689815  L 271.719966 79.689815  L 271.831168 78.995571  L 272.440898 78.995571  L 272.552188 78.301326  L 273.162404 78.301326  L 273.273783 77.607081  L 273.884519 77.607081  L 273.995994 76.912836  L 274.607244 76.912836  L 274.718816 76.218592  L 275.33055 76.218592  L 275.4422 75.524347  L 276.054403 75.524347  L 276.166143 74.830102  L 276.778856 74.830102  L 276.890695 74.135857  L 277.322617 74.135857  L 277.434528 73.441613  L 278.04816 73.441613  L 278.160164 72.747368  L 278.774316 72.747368  L 278.886413 72.053123  L 279.501076 72.053123  L 279.613267 71.358878  L 280.228428 71.358878  L 280.340707 70.664634  L 280.956386 70.664634  L 281.068764 69.970389  L 281.68498 69.970389  L 281.797457 69.276144  L 282.414219 69.276144  L 282.525377 68.581899  L 283.144105 68.581899  L 283.255352 67.887654  L 283.874578 67.887654  L 283.985916 67.19341  L 284.605637 67.19341  L 284.717058 66.499165  L 285.337298 66.499165  L 285.448822 65.80492  L 286.069604 65.80492  L 286.181223 65.110675  L 286.802518 65.110675  L 286.914228 64.416431  L 287.536032 64.416431  L 287.647823 63.722186  L 288.270085 63.722186  L 288.381972 63.027941  L 289.004767 63.027941  L 289.116746 62.333696  L 289.740064 62.333696  L 289.852138 61.639452  L 290.475984 61.639452  L 290.588155 60.945207  L 291.212541 60.945207  L 291.324803 60.250962  L 291.949687 60.250962  L 292.062042 59.556717  L 292.68746 59.556717  L 292.799907 58.862473  L 293.425847 58.862473  L 293.538386 58.168228  L 294.164842 58.168228  L 294.276037 57.473983  L 294.904474 57.473983  L 295.015757 56.779738  L 295.274507 56.779738  L 295.385838 56.085494  L 296.015014 56.085494  L 296.12643 55.391249  L 296.756116 55.391249  L 296.86762 54.697004  L 297.497815 54.697004  L 297.609412 54.002759  L 298.240128 54.002759  L 298.351813 53.308515  L 298.983028 53.308515  L 299.094808 52.61427  L 299.726538 52.61427  L 299.838409 51.920025  L 300.470674 51.920025  L 300.582638 51.22578  L 301.215433 51.22578  L 301.327494 50.531536  L 301.960835 50.531536  L 302.072992 49.837291  L 302.706849 49.837291  L 302.819092 49.143046  L 303.453451 49.143046  L 303.565785 48.448801  L 304.200667 48.448801  L 304.313091 47.754556  L 304.948483 47.754556  L 305.060999 47.060312  L 305.696886 47.060312  L 305.80803 46.366067  L 306.445918 46.366067  L 306.557153 45.671822  L 307.195575 45.671822  L 307.306901 44.977577  L 307.945828 44.977577  L 308.057246 44.283333  L 308.696665 44.283333  L 308.808168 43.589088  L 309.448071 43.589088  L 309.559661 42.894843  L 310.200088 42.894843  L 310.311771 42.200598  L 310.952747 42.200598  L 311.064528 41.506354  L 311.706063 41.506354  L 311.817938 40.812109  L 312.459993 40.812109  L 312.571952 40.117864  L 313.21452 40.117864  L 313.326571 39.423619  L 313.78079 39.423619  L 313.892903 38.729375  L 314.536349 38.729375  L 314.648552 38.03513  L 315.292506 38.03513  L 315.404799 37.340885  L 315.905835 37.340885  L 315.905835 37.340885  "
           clip-path="url(#pa7b799a36a)"
           style="fill: none; stroke: #0343df; stroke-width: 1.5; stroke-linecap: square"
           id="path99" />
      </g>
      <g
         id="line2d_31">
        <path
           d="M 62.269943 282.398438  L 62.361594 282.308945  L 62.481322 280.847234  L 62.553745 280.847234  L 62.66606 280.673673  L 62.742904 280.673673  L 62.855199 280.500112  L 62.932027 280.500112  L 63.044302 280.326551  L 63.121114 280.326551  L 63.233369 280.15299  L 63.310164 280.15299  L 63.422391 279.979428  L 63.499174 279.979428  L 63.61138 279.805867  L 63.688149 279.805867  L 63.800334 279.632306  L 63.877084 279.632306  L 63.98925 279.458745  L 64.065984 279.458745  L 64.178125 279.285184  L 64.254847 279.285184  L 64.366963 279.111622  L 64.443665 279.111622  L 64.555761 278.938061  L 64.632447 278.938061  L 64.744523 278.7645  L 64.821196 278.7645  L 64.933252 278.590939  L 65.009912 278.590939  L 65.121946 278.417378  L 65.198593 278.417378  L 65.310604 278.243817  L 65.387237 278.243817  L 65.499225 278.070255  L 65.572891 278.070255  L 65.684856 277.896694  L 65.764401 277.896694  L 65.876344 277.723133  L 65.95293 277.723133  L 66.06485 277.549572  L 66.141423 277.549572  L 66.253321 277.376011  L 66.329876 277.376011  L 66.441755 277.202449  L 66.518293 277.202449  L 66.630147 277.028888  L 66.706672 277.028888  L 66.818504 276.855327  L 66.895013 276.855327  L 67.006821 276.161082  L 67.647958 276.161082  L 67.759667 275.466837  L 68.400257 275.466837  L 68.511869 274.772593  L 69.151921 274.772593  L 69.263446 274.078348  L 69.903001 274.078348  L 70.014443 273.384103  L 70.65352 273.384103  L 70.764874 272.689858  L 71.403438 272.689858  L 71.514706 271.995614  L 72.152745 271.995614  L 72.263917 271.301369  L 72.901421 271.301369  L 73.01396 270.607124  L 73.64949 270.607124  L 73.761945 269.912879  L 74.396973 269.912879  L 74.509335 269.218635  L 75.143843 269.218635  L 75.256113 268.52439  L 75.890111 268.52439  L 76.002292 267.830145  L 76.635789 267.830145  L 76.747875 267.1359  L 77.380829 267.1359  L 77.492819 266.441656  L 78.125234 266.441656  L 78.237131 265.747411  L 78.869017 265.747411  L 78.980823 265.053166  L 79.426451 265.053166  L 79.538184 264.358921  L 80.169166 264.358921  L 80.280813 263.664677  L 80.911289 263.664677  L 81.022843 262.970432  L 81.6528 262.970432  L 81.764262 262.276187  L 82.393713 262.276187  L 82.505085 261.581942  L 83.134036 261.581942  L 83.245324 260.887698  L 83.873779 260.887698  L 83.984978 260.193453  L 84.612896 260.193453  L 84.725439 259.499208  L 85.351396 259.499208  L 85.463847 258.804963  L 86.089285 258.804963  L 86.201641 258.110719  L 86.826547 258.110719  L 86.93881 257.416474  L 87.563212 257.416474  L 87.675386 256.722229  L 88.299254 256.722229  L 88.411332 256.027984  L 89.034667 256.027984  L 89.14665 255.333739  L 89.769463 255.333739  L 89.881354 254.639495  L 90.503633 254.639495  L 90.615428 253.94525  L 91.237248 253.94525  L 91.348959 253.251005  L 91.970275 253.251005  L 92.081894 252.55676  L 92.702698 252.55676  L 92.814224 251.862516  L 93.434482 251.862516  L 93.545908 251.168271  L 94.165646 251.168271  L 94.276988 250.474026  L 94.896231 250.474026  L 95.007481 249.779781  L 95.626228 249.779781  L 95.737385 249.085537  L 96.355593 249.085537  L 96.468073 248.391292  L 97.084308 248.391292  L 97.196687 247.697047  L 97.630425 247.697047  L 97.742733 247.002802  L 98.358035 247.002802  L 98.47025 246.308558  L 99.085055 246.308558  L 99.197181 245.614313  L 99.811477 245.614313  L 99.923506 244.920068  L 100.537291 244.920068  L 100.649224 244.225823  L 101.262491 244.225823  L 101.374334 243.531579  L 101.987067 243.531579  L 102.09881 242.837334  L 102.711028 242.837334  L 102.82268 242.143089  L 103.434431 242.143089  L 103.546006 241.448844  L 104.157272 241.448844  L 104.268752 240.7546  L 104.879504 240.7546  L 104.990886 240.060355  L 105.601118 240.060355  L 105.712412 239.36611  L 106.322159 239.36611  L 106.433361 238.671865  L 107.042605 238.671865  L 107.15512 237.97762  L 107.762465 237.97762  L 107.874889 237.283376  L 108.481744 237.283376  L 108.594076 236.589131  L 109.020801 236.589131  L 109.133065 235.894886  L 109.739039 235.894886  L 109.851213 235.200641  L 110.456686 235.200641  L 110.568766 234.506397  L 111.173772 234.506397  L 111.285764 233.812152  L 111.89027 233.812152  L 112.002168 233.117907  L 112.606154 233.117907  L 112.717959 232.423662  L 113.321466 232.423662  L 113.433182 231.729418  L 114.036208 231.729418  L 114.147829 231.035173  L 114.750331 231.035173  L 114.861856 230.340928  L 115.285512 230.340928  L 115.396965 229.646683  L 115.998545 229.646683  L 116.109907 228.952439  L 116.710977 228.952439  L 116.822237 228.258194  L 117.42276 228.258194  L 117.533919 227.563949  L 118.133935 227.563949  L 118.246386 226.869704  L 118.844485 226.869704  L 118.956837 226.17546  L 119.554438 226.17546  L 119.666704 225.481215  L 120.263812 225.481215  L 120.375978 224.78697  L 120.972553 224.78697  L 121.08462 224.092725  L 121.680689 224.092725  L 121.792661 223.398481  L 122.388222 223.398481  L 122.500101 222.704236  L 123.095147 222.704236  L 123.206933 222.009991  L 123.801484 222.009991  L 123.91317 221.315746  L 124.507208 221.315746  L 124.618798 220.621502  L 125.212309 220.621502  L 125.323801 219.927257  L 125.916807 219.927257  L 126.028203 219.233012  L 126.620694 219.233012  L 126.731995 218.538767  L 127.324009 218.538767  L 127.435223 217.844522  L 128.026742 217.844522  L 128.137858 217.150278  L 128.728844 217.150278  L 128.841231 216.456033  L 129.430292 216.456033  L 129.542578 215.761788  L 130.13111 215.761788  L 130.243293 215.067543  L 130.831315 215.067543  L 130.943401 214.373299  L 131.530926 214.373299  L 131.642918 213.679054  L 132.229921 213.679054  L 132.341807 212.984809  L 132.753733 212.984809  L 132.865544 212.290564  L 133.45162 212.290564  L 133.563335 211.59632  L 134.14891 211.59632  L 134.260523 210.902075  L 134.845556 210.902075  L 134.957073 210.20783  L 135.541609 210.20783  L 135.653028 209.513585  L 136.237088 209.513585  L 136.348421 208.819341  L 136.931977 208.819341  L 137.043212 208.125096  L 137.626267 208.125096  L 137.737406 207.430851  L 138.319957 207.430851  L 138.432355 206.736606  L 139.013046 206.736606  L 139.125348 206.042362  L 139.705543 206.042362  L 139.817748 205.348117  L 140.397431 205.348117  L 140.509534 204.653872  L 141.088695 204.653872  L 141.200703 203.959627  L 141.779355 203.959627  L 141.891263 203.265383  L 142.469411 203.265383  L 142.581225 202.571138  L 143.158895 202.571138  L 143.27061 201.876893  L 143.847747 201.876893  L 143.959356 201.182648  L 144.535961 201.182648  L 144.647475 200.488403  L 145.223594 200.488403  L 145.335011 199.794159  L 145.910641 199.794159  L 146.021964 199.099914  L 146.597092 199.099914  L 146.708317 198.405669  L 147.282951 198.405669  L 147.394078 197.711424  L 147.968201 197.711424  L 148.080565 197.01718  L 148.652807 197.01718  L 148.765065 196.322935  L 149.336782 196.322935  L 149.448941 195.62869  L 149.849356 195.62869  L 149.96143 194.934445  L 150.532201 194.934445  L 150.644171 194.240201  L 151.214424 194.240201  L 151.326293 193.545956  L 151.896038 193.545956  L 152.007807 192.851711  L 152.577041 192.851711  L 152.688713 192.157466  L 153.257456 192.157466  L 153.369029 191.463222  L 153.767376 191.463222  L 153.878877 190.768977  L 154.446761 190.768977  L 154.558161 190.074732  L 155.125513 190.074732  L 155.236812 189.380487  L 155.803664 189.380487  L 155.914864 188.686243  L 156.481188 188.686243  L 156.593607 187.991998  L 157.158093 187.991998  L 157.270407 187.297753  L 157.834368 187.297753  L 157.946583 186.603508  L 158.341183 186.603508  L 158.453321 185.909264  L 159.016398 185.909264  L 159.128436 185.215019  L 159.691027 185.215019  L 159.80297 184.520774  L 160.365055 184.520774  L 160.476891 183.826529  L 161.038462 183.826529  L 161.150197 183.132285  L 161.711246 183.132285  L 161.822883 182.43804  L 162.383455 182.43804  L 162.49499 181.743795  L 163.055028 181.743795  L 163.16646 181.04955  L 163.725976 181.04955  L 163.837303 180.355305  L 164.396312 180.355305  L 164.507543 179.661061  L 165.066049 179.661061  L 165.177179 178.966816  L 165.735184 178.966816  L 165.847523 178.272571  L 166.236655 178.272571  L 166.348915 177.578326  L 166.904767 177.578326  L 167.016926 176.884082  L 167.572245 176.884082  L 167.684299 176.189837  L 168.239108 176.189837  L 168.351064 175.495592  L 168.905355 175.495592  L 169.017201 174.801347  L 169.570972 174.801347  L 169.682716 174.107103  L 170.235981 174.107103  L 170.347627 173.412858  L 170.900379 173.412858  L 171.011917 172.718613  L 171.564172 172.718613  L 171.67561 172.024368  L 172.227374 172.024368  L 172.338712 171.330124  L 172.889957 171.330124  L 173.001187 170.635879  L 173.551928 170.635879  L 173.66306 169.941634  L 174.213281 169.941634  L 174.325598 169.247389  L 174.874033 169.247389  L 174.98625 168.553145  L 175.534171 168.553145  L 175.646277 167.8589  L 176.193676 167.8589  L 176.305677 167.164655  L 176.852535 167.164655  L 176.964429 166.47041  L 177.510773 166.47041  L 177.62256 165.776166  L 178.168378 165.776166  L 178.280056 165.081921  L 178.825349 165.081921  L 178.93692 164.387676  L 179.481694 164.387676  L 179.593162 163.693431  L 180.137431 163.693431  L 180.248796 162.999186  L 180.792567 162.999186  L 180.903826 162.304942  L 181.447065 162.304942  L 181.558216 161.610697  L 182.100928 161.610697  L 182.21325 160.916452  L 182.590926 160.916452  L 182.703173 160.222207  L 183.243742 160.222207  L 183.355888 159.527963  L 183.895978 159.527963  L 184.00802 158.833718  L 184.547603 158.833718  L 184.659542 158.139473  L 185.198594 158.139473  L 185.310415 157.445228  L 185.848948 157.445228  L 185.960669 156.750984  L 186.498687 156.750984  L 186.610296 156.056739  L 187.147822 156.056739  L 187.259336 155.362494  L 187.796371 155.362494  L 187.90778 154.668249  L 188.444326 154.668249  L 188.555632 153.974005  L 189.091687 153.974005  L 189.202893 153.27976  L 189.738436 153.27976  L 189.850794 152.585515  L 190.384589 152.585515  L 190.496852 151.89127  L 191.030164 151.89127  L 191.142323 151.197026  L 191.675124 151.197026  L 191.787175 150.502781  L 192.319473 150.502781  L 192.431419 149.808536  L 192.963213 149.808536  L 193.075052 149.114291  L 193.606339 149.114291  L 193.718074 148.420047  L 194.248866 148.420047  L 194.360495 147.725802  L 194.890796 147.725802  L 195.002319 147.031557  L 195.53212 147.031557  L 195.643543 146.337312  L 196.012742 146.337312  L 196.124088 145.643068  L 196.653042 145.643068  L 196.764278 144.948823  L 197.292739 144.948823  L 197.403875 144.254578  L 197.931833 144.254578  L 198.044112 143.560333  L 198.41076 143.560333  L 198.522965 142.866088  L 199.048811 142.866088  L 199.160906 142.171844  L 199.68625 142.171844  L 199.798236 141.477599  L 200.323079 141.477599  L 200.434958 140.783354  L 200.959298 140.783354  L 201.071069 140.089109  L 201.594908 140.089109  L 201.706571 139.394865  L 202.229899 139.394865  L 202.341456 138.70062  L 202.864296 138.70062  L 202.975749 138.006375  L 203.498064 138.006375  L 203.609401 137.31213  L 204.131209 137.31213  L 204.242439 136.617886  L 204.763739 136.617886  L 204.874865 135.923641  L 205.395682 135.923641  L 205.507938 135.229396  L 206.027038 135.229396  L 206.139187 134.535151  L 206.657781 134.535151  L 206.769827 133.840907  L 207.287961 133.840907  L 207.399905 133.146662  L 207.917542 133.146662  L 208.029379 132.452417  L 208.54654 132.452417  L 208.658275 131.758172  L 209.174916 131.758172  L 209.286529 131.063928  L 209.802651 131.063928  L 209.914155 130.369683  L 210.429772 130.369683  L 210.54117 129.675438  L 211.05629 129.675438  L 211.167577 128.981193  L 211.682185 128.981193  L 211.793367 128.286949  L 212.307494 128.286949  L 212.419792 127.592704  L 212.932217 127.592704  L 213.044404 126.898459  L 213.556304 126.898459  L 213.668376 126.204214  L 214.023962 126.204214  L 214.135955 125.50997  L 214.646963 125.50997  L 214.758841 124.815725  L 215.269331 124.815725  L 215.381095 124.12148  L 215.891084 124.12148  L 216.002743 123.427235  L 216.512255 123.427235  L 216.623809 122.73299  L 217.132839 122.73299  L 217.244285 122.038746  L 217.752822 122.038746  L 217.864163 121.344501  L 218.372216 121.344501  L 218.483449 120.650256  L 218.990985 120.650256  L 219.102104 119.956011  L 219.609157 119.956011  L 219.721377 119.261767  L 220.226718 119.261767  L 220.338828 118.567522  L 220.843685 118.567522  L 220.955694 117.873277  L 221.460074 117.873277  L 221.571968 117.179032  L 222.075831 117.179032  L 222.187609 116.484788  L 222.690983 116.484788  L 222.802653 115.790543  L 223.305527 115.790543  L 223.417091 115.096298  L 223.919491 115.096298  L 224.030948 114.402053  L 224.532844 114.402053  L 224.644192 113.707809  L 225.145606 113.707809  L 225.256847 113.013564  L 225.757779 113.013564  L 225.868911 112.319319  L 226.36936 112.319319  L 226.481581 111.625074  L 227.221282 111.625074  L 227.333352 110.93083  L 228.136376 110.93083  L 228.248287 110.236585  L 229.050143 110.236585  L 229.161889 109.54234  L 229.9625 109.54234  L 230.074074 108.848095  L 230.645838 108.848095  L 230.757282 108.153851  L 231.555762 108.153851  L 231.667037 107.459606  L 232.464312 107.459606  L 232.5766 106.765361  L 233.371471 106.765361  L 233.483594 106.071116  L 234.277301 106.071116  L 234.389257 105.376871  L 235.181774 105.376871  L 235.293562 104.682627  L 236.084878 104.682627  L 236.196497 103.988382  L 236.986662 103.988382  L 237.098123 103.294137  L 237.887097 103.294137  L 237.998379 102.599892  L 238.786137 102.599892  L 238.897254 101.905648  L 239.459519 101.905648  L 239.571672 101.211403  L 240.35615 101.211403  L 240.468134 100.517158  L 241.251423 100.517158  L 241.363235 99.822913  L 242.145328 99.822913  L 242.256968 99.128669  L 243.037825 99.128669  L 243.149297 98.434424  L 243.928954 98.434424  L 244.040245 97.740179  L 244.818649 97.740179  L 244.930917 97.045934  L 245.706912 97.045934  L 245.819003 96.35169  L 246.593826 96.35169  L 246.705751 95.657445  L 247.479392 95.657445  L 247.591146 94.9632  L 248.363583 94.9632  L 248.475164 94.268955  L 249.24643 94.268955  L 249.357839 93.574711  L 250.127914 93.574711  L 250.239146 92.880466  L 251.007992 92.880466  L 251.120197 92.186221  L 251.886715 92.186221  L 251.998745 91.491976  L 252.544862 91.491976  L 252.65676 90.797732  L 253.421168 90.797732  L 253.532897 90.103487  L 254.296203 90.103487  L 254.40776 89.409242  L 255.169905 89.409242  L 255.2813 88.714997  L 256.042281 88.714997  L 256.153503 88.020753  L 256.913265 88.020753  L 257.025436 87.326508  L 257.782873 87.326508  L 257.89487 86.632263  L 258.651135 86.632263  L 258.762964 85.938018  L 259.518037 85.938018  L 259.629679 85.243773  L 260.383534 85.243773  L 260.495004 84.549529  L 261.247677 84.549529  L 261.358971 83.855284  L 262.110495 83.855284  L 262.221622 83.161039  L 262.972023 83.161039  L 263.084104 82.466794  L 263.832234 82.466794  L 263.944141 81.77255  L 264.691064 81.77255  L 264.802787 81.078305  L 265.548502 81.078305  L 265.660045 80.38406  L 266.404551 80.38406  L 266.515913 79.689815  L 267.25924 79.689815  L 267.370433 78.995571  L 268.11262 78.995571  L 268.224747 78.301326  L 268.964622 78.301326  L 269.076569 77.607081  L 269.815285 77.607081  L 269.927057 76.912836  L 270.664531 76.912836  L 270.776112 76.218592  L 271.512422 76.218592  L 271.623832 75.524347  L 272.359004 75.524347  L 272.470239 74.830102  L 273.204217 74.830102  L 273.316366 74.135857  L 273.837235 74.135857  L 273.949254 73.441613  L 274.680099 73.441613  L 274.791941 72.747368  L 275.521614 72.747368  L 275.633277 72.053123  L 276.36176 72.053123  L 276.473237 71.358878  L 277.200514 71.358878  L 277.311808 70.664634  L 278.037918 70.664634  L 278.149034 69.970389  L 278.874002 69.970389  L 278.98603 69.276144  L 279.708742 69.276144  L 279.820592 68.581899  L 280.54212 68.581899  L 280.65378 67.887654  L 281.374069 67.887654  L 281.485543 67.19341  L 282.204623 67.19341  L 282.315903 66.499165  L 283.033761 66.499165  L 283.145927 65.80492  L 283.861487 65.80492  L 283.973471 65.110675  L 284.687893 65.110675  L 284.799699 64.416431  L 285.512942 64.416431  L 285.624566 63.722186  L 286.336649 63.722186  L 286.448087 63.027941  L 287.159019 63.027941  L 287.270279 62.333696  L 287.98005 62.333696  L 288.092204 61.639452  L 288.799761 61.639452  L 288.911721 60.945207  L 289.6181 60.945207  L 289.729878 60.250962  L 290.435091 60.250962  L 290.546686 59.556717  L 291.250769 59.556717  L 291.362185 58.862473  L 292.065113 58.862473  L 292.17635 58.168228  L 292.878131 58.168228  L 292.990235 57.473983  L 293.689762 57.473983  L 293.801678 56.779738  L 294.095062 56.779738  L 294.206882 56.085494  L 294.904612 56.085494  L 295.016231 55.391249  L 295.712729 55.391249  L 295.824156 54.697004  L 296.519469 54.697004  L 296.6307 54.002759  L 297.324753 54.002759  L 297.436839 53.308515  L 298.128696 53.308515  L 298.240596 52.61427  L 298.931271 52.61427  L 299.042978 51.920025  L 299.732455 51.920025  L 299.843966 51.22578  L 300.532275 51.22578  L 300.643605 50.531536  L 301.330793 50.531536  L 301.44194 49.837291  L 302.127988 49.837291  L 302.239987 49.143046  L 302.923911 49.143046  L 303.035732 48.448801  L 303.718503 48.448801  L 303.830137 47.754556  L 304.511735 47.754556  L 304.623174 47.060312  L 305.303592 47.060312  L 305.414834 46.366067  L 306.094092 46.366067  L 306.206177 45.671822  L 306.883241 45.671822  L 306.995128 44.977577  L 307.670983 44.977577  L 307.782667 44.283333  L 308.457347 44.283333  L 308.568846 43.589088  L 309.242364 43.589088  L 309.35367 42.894843  L 310.026044 42.894843  L 310.13716 42.200598  L 310.808362 42.200598  L 310.920301 41.506354  L 311.589336 41.506354  L 311.701079 40.812109  L 312.368929 40.812109  L 312.480476 40.117864  L 313.147145 40.117864  L 313.258494 39.423619  L 313.729908 39.423619  L 313.841111 38.729375  L 314.505736 38.729375  L 314.617752 38.03513  L 315.28015 38.03513  L 315.39196 37.340885  L 315.906307 37.340885  L 315.906307 37.340885  "
           clip-path="url(#pa7b799a36a)"
           style="fill: none; stroke: #15b01a; stroke-width: 1.5; stroke-linecap: square"
           id="path100" />
      </g>
      <g
         id="patch_3">
        <path
           d="M 49.588125 294.998438  L 49.588125 17.798437  "
           style="fill: none; stroke: #000000; stroke-width: 0.8; stroke-linejoin: miter; stroke-linecap: square"
           id="path101" />
      </g>
      <g
         id="patch_4">
        <path
           d="M 328.588125 294.998438  L 328.588125 17.798437  "
           style="fill: none; stroke: #000000; stroke-width: 0.8; stroke-linejoin: miter; stroke-linecap: square"
           id="path102" />
      </g>
      <g
         id="patch_5">
        <path
           d="M 49.588125 294.998437  L 328.588125 294.998437  "
           style="fill: none; stroke: #000000; stroke-width: 0.8; stroke-linejoin: miter; stroke-linecap: square"
           id="path103" />
      </g>
      <g
         id="patch_6">
        <path
           d="M 49.588125 17.798437  L 328.588125 17.798437  "
           style="fill: none; stroke: #000000; stroke-width: 0.8; stroke-linejoin: miter; stroke-linecap: square"
           id="path104" />
      </g>
      <g
         id="legend_1">
        <g
           id="patch_7">
          <path
             d="M 56.588125 69.832812  L 182.4225 69.832812  Q 184.4225 69.832812 184.4225 67.832812  L 184.4225 24.798437  Q 184.4225 22.798437 182.4225 22.798437  L 56.588125 22.798437  Q 54.588125 22.798437 54.588125 24.798437  L 54.588125 67.832812  Q 54.588125 69.832812 56.588125 69.832812  z "
             style="fill: #ffffff; opacity: 0.8; stroke: #cccccc; stroke-linejoin: miter"
             id="path105" />
        </g>
        <g
           id="line2d_32">
          <path
             d="M 58.588125 30.896875  L 68.588125 30.896875  L 78.588125 30.896875  "
             style="fill: none; stroke: #000000; stroke-width: 1.5; stroke-linecap: square"
             id="path106" />
        </g>
        <g
           id="line2d_33">
          <path
             d="M 58.588125 45.575  L 68.588125 45.575  L 78.588125 45.575  "
             style="fill: none; stroke: #0343df; stroke-width: 1.5; stroke-linecap: square"
             id="path123" />
        </g>
        <g
           id="line2d_34">
          <path
             d="M 58.588125 60.253125  L 68.588125 60.253125  L 78.588125 60.253125  "
             style="fill: none; stroke: #15b01a; stroke-width: 1.5; stroke-linecap: square"
             id="path141" />
        </g>
        <text
           xml:space="preserve"
           style="font-size:12px;font-family:sans-serif;-inkscape-font-specification:sans-serif;text-align:center;writing-mode:lr-tb;direction:ltr;text-anchor:middle;fill:none;fill-opacity:0.976103;stroke:#48c64a;stroke-width:14.1732;stroke-linecap:round;stroke-linejoin:round;stroke-opacity:0.998162;paint-order:fill markers stroke"
           x="12.244689"
           y="34.693283"
           id="text159"><tspan
             sodipodi:role="line"
             id="tspan159"
             style="stroke-width:14.1732;fill:none"></tspan></text>
        <text
           xml:space="preserve"
           style="font-size:12px;font-family:sans-serif;-inkscape-font-specification:sans-serif;text-align:center;writing-mode:lr-tb;direction:ltr;text-anchor:middle;fill:none;fill-opacity:0.976103;stroke:none;stroke-width:14.1732;stroke-linecap:round;stroke-linejoin:round;stroke-opacity:0.998162;paint-order:fill markers stroke"
           x="21.467499"
           y="24.489378"
           id="text160"><tspan
             sodipodi:role="line"
             id="tspan160"
             style="stroke-width:14.1732;stroke:none"
             x="21.467499"
             y="24.489378">r</tspan></text>
        <text
           xml:space="preserve"
           style="font-size:12px;font-family:sans-serif;-inkscape-font-specification:sans-serif;text-align:center;writing-mode:lr-tb;direction:ltr;text-anchor:middle;fill:#000000;fill-opacity:0.976103;stroke:#000000;stroke-width:0.4;stroke-linecap:round;stroke-linejoin:round;stroke-dasharray:none;stroke-opacity:0.998162;paint-order:fill markers stroke"
           x="105.19787"
           y="34.770905"
           id="text161"><tspan
             sodipodi:role="line"
             id="tspan161"
             style="fill:#000000;fill-opacity:0.976103;stroke:#000000;stroke-width:0.4;stroke-dasharray:none;stroke-opacity:0.998162"
             x="105.19787"
             y="34.770905">Random</tspan></text>
        <text
           xml:space="preserve"
           style="font-size:12px;font-family:sans-serif;-inkscape-font-specification:sans-serif;text-align:center;writing-mode:lr-tb;direction:ltr;text-anchor:middle;fill:#000000;fill-opacity:0.976103;stroke:#000000;stroke-width:0.4;stroke-linecap:round;stroke-linejoin:round;stroke-dasharray:none;stroke-opacity:0.998162;paint-order:fill markers stroke"
           x="100.65585"
           y="49.360294"
           id="text161-4"><tspan
             sodipodi:role="line"
             style="fill:#000000;fill-opacity:0.976103;stroke:#000000;stroke-width:0.4;stroke-dasharray:none;stroke-opacity:0.998162"
             x="100.65585"
             y="49.360294"
             id="tspan162">Sorted</tspan></text>
        <text
           xml:space="preserve"
           style="font-size:12px;font-family:sans-serif;-inkscape-font-specification:sans-serif;text-align:center;writing-mode:lr-tb;direction:ltr;text-anchor:middle;fill:#000000;fill-opacity:0.976103;stroke:#000000;stroke-width:0.4;stroke-linecap:round;stroke-linejoin:round;stroke-dasharray:none;stroke-opacity:0.998162;paint-order:fill markers stroke"
           x="123.40784"
           y="63.698925"
           id="text163"><tspan
             sodipodi:role="line"
             style="stroke-width:0.4"
             x="123.40784"
             y="63.698925"
             id="tspan164">Reverse sorted</tspan></text>
      </g>
    </g>
  </g>
  <defs
     id="defs159">
    <clipPath
       id="pa7b799a36a">
      <rect
         x="49.588125"
         y="17.798437"
         width="279"
         height="277.2"
         id="rect159" />
    </clipPath>
  </defs>
</svg>
