<?xml version="1.0" encoding="utf-8" standalone="no"?>
<!DOCTYPE svg PUBLIC "-//W3C//DTD SVG 1.1//EN"
  "http://www.w3.org/Graphics/SVG/1.1/DTD/svg11.dtd">
<svg xmlns:xlink="http://www.w3.org/1999/xlink" width="335.10125pt" height="323.891875pt" viewBox="0 0 335.10125 323.891875" xmlns="http://www.w3.org/2000/svg" version="1.1">
 <metadata>
  <rdf:RDF xmlns:dc="http://purl.org/dc/elements/1.1/" xmlns:cc="http://creativecommons.org/ns#" xmlns:rdf="http://www.w3.org/1999/02/22-rdf-syntax-ns#">
   <cc:Work>
    <dc:type rdf:resource="http://purl.org/dc/dcmitype/StillImage"/>
    <dc:date>2023-11-29T20:03:35.548183</dc:date>
    <dc:format>image/svg+xml</dc:format>
    <dc:creator>
     <cc:Agent>
      <dc:title>Matplotlib v3.6.3, https://matplotlib.org/</dc:title>
     </cc:Agent>
    </dc:creator>
   </cc:Work>
  </rdf:RDF>
 </metadata>
 <defs>
  <style type="text/css">*{stroke-linejoin: round; stroke-linecap: butt}</style>
 </defs>
 <g id="figure_1">
  <g id="patch_1">
   <path d="M 0 323.891875 
L 335.10125 323.891875 
L 335.10125 0 
L 0 0 
z
" style="fill: #ffffff"/>
  </g>
  <g id="axes_1">
   <g id="patch_2">
    <path d="M 48.90125 284.4 
L 327.90125 284.4 
L 327.90125 7.2 
L 48.90125 7.2 
z
" style="fill: #ffffff"/>
   </g>
   <g id="matplotlib.axis_1">
    <g id="xtick_1">
     <g id="line2d_1">
      <path d="M 61.559654 284.4 
L 61.559654 7.2 
" clip-path="url(#p4a340cd8ea)" style="fill: none; stroke-dasharray: 0.74,0.32; stroke-dashoffset: 0; stroke: #b0b0b0; stroke-opacity: 0.7; stroke-width: 0.2"/>
     </g>
     <g id="line2d_2">
      <defs>
       <path id="m19d475f466" d="M 0 0 
L 0 3.5 
" style="stroke: #000000; stroke-width: 0.8"/>
      </defs>
      <g>
       <use xlink:href="#m19d475f466" x="61.559654" y="284.4" style="stroke: #000000; stroke-width: 0.8"/>
      </g>
     </g>
     <g id="text_1">
      <!-- 0 -->
      <g transform="translate(58.378404 298.998438) scale(0.1 -0.1)">
       <defs>
        <path id="DejaVuSans-30" d="M 2034 4250 
Q 1547 4250 1301 3770 
Q 1056 3291 1056 2328 
Q 1056 1369 1301 889 
Q 1547 409 2034 409 
Q 2525 409 2770 889 
Q 3016 1369 3016 2328 
Q 3016 3291 2770 3770 
Q 2525 4250 2034 4250 
z
M 2034 4750 
Q 2819 4750 3233 4129 
Q 3647 3509 3647 2328 
Q 3647 1150 3233 529 
Q 2819 -91 2034 -91 
Q 1250 -91 836 529 
Q 422 1150 422 2328 
Q 422 3509 836 4129 
Q 1250 4750 2034 4750 
z
" transform="scale(0.015625)"/>
       </defs>
       <use xlink:href="#DejaVuSans-30"/>
      </g>
     </g>
    </g>
    <g id="xtick_2">
     <g id="line2d_3">
      <path d="M 120.095625 284.4 
L 120.095625 7.2 
" clip-path="url(#p4a340cd8ea)" style="fill: none; stroke-dasharray: 0.74,0.32; stroke-dashoffset: 0; stroke: #b0b0b0; stroke-opacity: 0.7; stroke-width: 0.2"/>
     </g>
     <g id="line2d_4">
      <g>
       <use xlink:href="#m19d475f466" x="120.095625" y="284.4" style="stroke: #000000; stroke-width: 0.8"/>
      </g>
     </g>
     <g id="text_2">
      <!-- 5 -->
      <g transform="translate(116.914375 298.998438) scale(0.1 -0.1)">
       <defs>
        <path id="DejaVuSans-35" d="M 691 4666 
L 3169 4666 
L 3169 4134 
L 1269 4134 
L 1269 2991 
Q 1406 3038 1543 3061 
Q 1681 3084 1819 3084 
Q 2600 3084 3056 2656 
Q 3513 2228 3513 1497 
Q 3513 744 3044 326 
Q 2575 -91 1722 -91 
Q 1428 -91 1123 -41 
Q 819 9 494 109 
L 494 744 
Q 775 591 1075 516 
Q 1375 441 1709 441 
Q 2250 441 2565 725 
Q 2881 1009 2881 1497 
Q 2881 1984 2565 2268 
Q 2250 2553 1709 2553 
Q 1456 2553 1204 2497 
Q 953 2441 691 2322 
L 691 4666 
z
" transform="scale(0.015625)"/>
       </defs>
       <use xlink:href="#DejaVuSans-35"/>
      </g>
     </g>
    </g>
    <g id="xtick_3">
     <g id="line2d_5">
      <path d="M 178.631596 284.4 
L 178.631596 7.2 
" clip-path="url(#p4a340cd8ea)" style="fill: none; stroke-dasharray: 0.74,0.32; stroke-dashoffset: 0; stroke: #b0b0b0; stroke-opacity: 0.7; stroke-width: 0.2"/>
     </g>
     <g id="line2d_6">
      <g>
       <use xlink:href="#m19d475f466" x="178.631596" y="284.4" style="stroke: #000000; stroke-width: 0.8"/>
      </g>
     </g>
     <g id="text_3">
      <!-- 10 -->
      <g transform="translate(172.269096 298.998438) scale(0.1 -0.1)">
       <defs>
        <path id="DejaVuSans-31" d="M 794 531 
L 1825 531 
L 1825 4091 
L 703 3866 
L 703 4441 
L 1819 4666 
L 2450 4666 
L 2450 531 
L 3481 531 
L 3481 0 
L 794 0 
L 794 531 
z
" transform="scale(0.015625)"/>
       </defs>
       <use xlink:href="#DejaVuSans-31"/>
       <use xlink:href="#DejaVuSans-30" x="63.623047"/>
      </g>
     </g>
    </g>
    <g id="xtick_4">
     <g id="line2d_7">
      <path d="M 237.167568 284.4 
L 237.167568 7.2 
" clip-path="url(#p4a340cd8ea)" style="fill: none; stroke-dasharray: 0.74,0.32; stroke-dashoffset: 0; stroke: #b0b0b0; stroke-opacity: 0.7; stroke-width: 0.2"/>
     </g>
     <g id="line2d_8">
      <g>
       <use xlink:href="#m19d475f466" x="237.167568" y="284.4" style="stroke: #000000; stroke-width: 0.8"/>
      </g>
     </g>
     <g id="text_4">
      <!-- 15 -->
      <g transform="translate(230.805068 298.998438) scale(0.1 -0.1)">
       <use xlink:href="#DejaVuSans-31"/>
       <use xlink:href="#DejaVuSans-35" x="63.623047"/>
      </g>
     </g>
    </g>
    <g id="xtick_5">
     <g id="line2d_9">
      <path d="M 295.703539 284.4 
L 295.703539 7.2 
" clip-path="url(#p4a340cd8ea)" style="fill: none; stroke-dasharray: 0.74,0.32; stroke-dashoffset: 0; stroke: #b0b0b0; stroke-opacity: 0.7; stroke-width: 0.2"/>
     </g>
     <g id="line2d_10">
      <g>
       <use xlink:href="#m19d475f466" x="295.703539" y="284.4" style="stroke: #000000; stroke-width: 0.8"/>
      </g>
     </g>
     <g id="text_5">
      <!-- 20 -->
      <g transform="translate(289.341039 298.998438) scale(0.1 -0.1)">
       <defs>
        <path id="DejaVuSans-32" d="M 1228 531 
L 3431 531 
L 3431 0 
L 469 0 
L 469 531 
Q 828 903 1448 1529 
Q 2069 2156 2228 2338 
Q 2531 2678 2651 2914 
Q 2772 3150 2772 3378 
Q 2772 3750 2511 3984 
Q 2250 4219 1831 4219 
Q 1534 4219 1204 4116 
Q 875 4013 500 3803 
L 500 4441 
Q 881 4594 1212 4672 
Q 1544 4750 1819 4750 
Q 2544 4750 2975 4387 
Q 3406 4025 3406 3419 
Q 3406 3131 3298 2873 
Q 3191 2616 2906 2266 
Q 2828 2175 2409 1742 
Q 1991 1309 1228 531 
z
" transform="scale(0.015625)"/>
       </defs>
       <use xlink:href="#DejaVuSans-32"/>
       <use xlink:href="#DejaVuSans-30" x="63.623047"/>
      </g>
     </g>
    </g>
    <g id="text_6">
     <!-- Time in seconds -->
     <g transform="translate(139.912813 314.19625) scale(0.12 -0.12)">
      <defs>
       <path id="DejaVuSans-54" d="M -19 4666 
L 3928 4666 
L 3928 4134 
L 2272 4134 
L 2272 0 
L 1638 0 
L 1638 4134 
L -19 4134 
L -19 4666 
z
" transform="scale(0.015625)"/>
       <path id="DejaVuSans-69" d="M 603 3500 
L 1178 3500 
L 1178 0 
L 603 0 
L 603 3500 
z
M 603 4863 
L 1178 4863 
L 1178 4134 
L 603 4134 
L 603 4863 
z
" transform="scale(0.015625)"/>
       <path id="DejaVuSans-6d" d="M 3328 2828 
Q 3544 3216 3844 3400 
Q 4144 3584 4550 3584 
Q 5097 3584 5394 3201 
Q 5691 2819 5691 2113 
L 5691 0 
L 5113 0 
L 5113 2094 
Q 5113 2597 4934 2840 
Q 4756 3084 4391 3084 
Q 3944 3084 3684 2787 
Q 3425 2491 3425 1978 
L 3425 0 
L 2847 0 
L 2847 2094 
Q 2847 2600 2669 2842 
Q 2491 3084 2119 3084 
Q 1678 3084 1418 2786 
Q 1159 2488 1159 1978 
L 1159 0 
L 581 0 
L 581 3500 
L 1159 3500 
L 1159 2956 
Q 1356 3278 1631 3431 
Q 1906 3584 2284 3584 
Q 2666 3584 2933 3390 
Q 3200 3197 3328 2828 
z
" transform="scale(0.015625)"/>
       <path id="DejaVuSans-65" d="M 3597 1894 
L 3597 1613 
L 953 1613 
Q 991 1019 1311 708 
Q 1631 397 2203 397 
Q 2534 397 2845 478 
Q 3156 559 3463 722 
L 3463 178 
Q 3153 47 2828 -22 
Q 2503 -91 2169 -91 
Q 1331 -91 842 396 
Q 353 884 353 1716 
Q 353 2575 817 3079 
Q 1281 3584 2069 3584 
Q 2775 3584 3186 3129 
Q 3597 2675 3597 1894 
z
M 3022 2063 
Q 3016 2534 2758 2815 
Q 2500 3097 2075 3097 
Q 1594 3097 1305 2825 
Q 1016 2553 972 2059 
L 3022 2063 
z
" transform="scale(0.015625)"/>
       <path id="DejaVuSans-20" transform="scale(0.015625)"/>
       <path id="DejaVuSans-6e" d="M 3513 2113 
L 3513 0 
L 2938 0 
L 2938 2094 
Q 2938 2591 2744 2837 
Q 2550 3084 2163 3084 
Q 1697 3084 1428 2787 
Q 1159 2491 1159 1978 
L 1159 0 
L 581 0 
L 581 3500 
L 1159 3500 
L 1159 2956 
Q 1366 3272 1645 3428 
Q 1925 3584 2291 3584 
Q 2894 3584 3203 3211 
Q 3513 2838 3513 2113 
z
" transform="scale(0.015625)"/>
       <path id="DejaVuSans-73" d="M 2834 3397 
L 2834 2853 
Q 2591 2978 2328 3040 
Q 2066 3103 1784 3103 
Q 1356 3103 1142 2972 
Q 928 2841 928 2578 
Q 928 2378 1081 2264 
Q 1234 2150 1697 2047 
L 1894 2003 
Q 2506 1872 2764 1633 
Q 3022 1394 3022 966 
Q 3022 478 2636 193 
Q 2250 -91 1575 -91 
Q 1294 -91 989 -36 
Q 684 19 347 128 
L 347 722 
Q 666 556 975 473 
Q 1284 391 1588 391 
Q 1994 391 2212 530 
Q 2431 669 2431 922 
Q 2431 1156 2273 1281 
Q 2116 1406 1581 1522 
L 1381 1569 
Q 847 1681 609 1914 
Q 372 2147 372 2553 
Q 372 3047 722 3315 
Q 1072 3584 1716 3584 
Q 2034 3584 2315 3537 
Q 2597 3491 2834 3397 
z
" transform="scale(0.015625)"/>
       <path id="DejaVuSans-63" d="M 3122 3366 
L 3122 2828 
Q 2878 2963 2633 3030 
Q 2388 3097 2138 3097 
Q 1578 3097 1268 2742 
Q 959 2388 959 1747 
Q 959 1106 1268 751 
Q 1578 397 2138 397 
Q 2388 397 2633 464 
Q 2878 531 3122 666 
L 3122 134 
Q 2881 22 2623 -34 
Q 2366 -91 2075 -91 
Q 1284 -91 818 406 
Q 353 903 353 1747 
Q 353 2603 823 3093 
Q 1294 3584 2113 3584 
Q 2378 3584 2631 3529 
Q 2884 3475 3122 3366 
z
" transform="scale(0.015625)"/>
       <path id="DejaVuSans-6f" d="M 1959 3097 
Q 1497 3097 1228 2736 
Q 959 2375 959 1747 
Q 959 1119 1226 758 
Q 1494 397 1959 397 
Q 2419 397 2687 759 
Q 2956 1122 2956 1747 
Q 2956 2369 2687 2733 
Q 2419 3097 1959 3097 
z
M 1959 3584 
Q 2709 3584 3137 3096 
Q 3566 2609 3566 1747 
Q 3566 888 3137 398 
Q 2709 -91 1959 -91 
Q 1206 -91 779 398 
Q 353 888 353 1747 
Q 353 2609 779 3096 
Q 1206 3584 1959 3584 
z
" transform="scale(0.015625)"/>
       <path id="DejaVuSans-64" d="M 2906 2969 
L 2906 4863 
L 3481 4863 
L 3481 0 
L 2906 0 
L 2906 525 
Q 2725 213 2448 61 
Q 2172 -91 1784 -91 
Q 1150 -91 751 415 
Q 353 922 353 1747 
Q 353 2572 751 3078 
Q 1150 3584 1784 3584 
Q 2172 3584 2448 3432 
Q 2725 3281 2906 2969 
z
M 947 1747 
Q 947 1113 1208 752 
Q 1469 391 1925 391 
Q 2381 391 2643 752 
Q 2906 1113 2906 1747 
Q 2906 2381 2643 2742 
Q 2381 3103 1925 3103 
Q 1469 3103 1208 2742 
Q 947 2381 947 1747 
z
" transform="scale(0.015625)"/>
      </defs>
      <use xlink:href="#DejaVuSans-54"/>
      <use xlink:href="#DejaVuSans-69" x="57.958984"/>
      <use xlink:href="#DejaVuSans-6d" x="85.742188"/>
      <use xlink:href="#DejaVuSans-65" x="183.154297"/>
      <use xlink:href="#DejaVuSans-20" x="244.677734"/>
      <use xlink:href="#DejaVuSans-69" x="276.464844"/>
      <use xlink:href="#DejaVuSans-6e" x="304.248047"/>
      <use xlink:href="#DejaVuSans-20" x="367.626953"/>
      <use xlink:href="#DejaVuSans-73" x="399.414062"/>
      <use xlink:href="#DejaVuSans-65" x="451.513672"/>
      <use xlink:href="#DejaVuSans-63" x="513.037109"/>
      <use xlink:href="#DejaVuSans-6f" x="568.017578"/>
      <use xlink:href="#DejaVuSans-6e" x="629.199219"/>
      <use xlink:href="#DejaVuSans-64" x="692.578125"/>
      <use xlink:href="#DejaVuSans-73" x="756.054688"/>
     </g>
    </g>
   </g>
   <g id="matplotlib.axis_2">
    <g id="ytick_1">
     <g id="line2d_11">
      <path d="M 48.90125 248.464096 
L 327.90125 248.464096 
" clip-path="url(#p4a340cd8ea)" style="fill: none; stroke-dasharray: 0.74,0.32; stroke-dashoffset: 0; stroke: #b0b0b0; stroke-opacity: 0.7; stroke-width: 0.2"/>
     </g>
     <g id="line2d_12">
      <defs>
       <path id="m2c00cb2a36" d="M 0 0 
L -3.5 0 
" style="stroke: #000000; stroke-width: 0.8"/>
      </defs>
      <g>
       <use xlink:href="#m2c00cb2a36" x="48.90125" y="248.464096" style="stroke: #000000; stroke-width: 0.8"/>
      </g>
     </g>
     <g id="text_7">
      <!-- 800 -->
      <g transform="translate(22.81375 252.263315) scale(0.1 -0.1)">
       <defs>
        <path id="DejaVuSans-38" d="M 2034 2216 
Q 1584 2216 1326 1975 
Q 1069 1734 1069 1313 
Q 1069 891 1326 650 
Q 1584 409 2034 409 
Q 2484 409 2743 651 
Q 3003 894 3003 1313 
Q 3003 1734 2745 1975 
Q 2488 2216 2034 2216 
z
M 1403 2484 
Q 997 2584 770 2862 
Q 544 3141 544 3541 
Q 544 4100 942 4425 
Q 1341 4750 2034 4750 
Q 2731 4750 3128 4425 
Q 3525 4100 3525 3541 
Q 3525 3141 3298 2862 
Q 3072 2584 2669 2484 
Q 3125 2378 3379 2068 
Q 3634 1759 3634 1313 
Q 3634 634 3220 271 
Q 2806 -91 2034 -91 
Q 1263 -91 848 271 
Q 434 634 434 1313 
Q 434 1759 690 2068 
Q 947 2378 1403 2484 
z
M 1172 3481 
Q 1172 3119 1398 2916 
Q 1625 2713 2034 2713 
Q 2441 2713 2670 2916 
Q 2900 3119 2900 3481 
Q 2900 3844 2670 4047 
Q 2441 4250 2034 4250 
Q 1625 4250 1398 4047 
Q 1172 3844 1172 3481 
z
" transform="scale(0.015625)"/>
       </defs>
       <use xlink:href="#DejaVuSans-38"/>
       <use xlink:href="#DejaVuSans-30" x="63.623047"/>
       <use xlink:href="#DejaVuSans-30" x="127.246094"/>
      </g>
     </g>
    </g>
    <g id="ytick_2">
     <g id="line2d_13">
      <path d="M 48.90125 188.117824 
L 327.90125 188.117824 
" clip-path="url(#p4a340cd8ea)" style="fill: none; stroke-dasharray: 0.74,0.32; stroke-dashoffset: 0; stroke: #b0b0b0; stroke-opacity: 0.7; stroke-width: 0.2"/>
     </g>
     <g id="line2d_14">
      <g>
       <use xlink:href="#m2c00cb2a36" x="48.90125" y="188.117824" style="stroke: #000000; stroke-width: 0.8"/>
      </g>
     </g>
     <g id="text_8">
      <!-- 850 -->
      <g transform="translate(22.81375 191.917042) scale(0.1 -0.1)">
       <use xlink:href="#DejaVuSans-38"/>
       <use xlink:href="#DejaVuSans-35" x="63.623047"/>
       <use xlink:href="#DejaVuSans-30" x="127.246094"/>
      </g>
     </g>
    </g>
    <g id="ytick_3">
     <g id="line2d_15">
      <path d="M 48.90125 127.771551 
L 327.90125 127.771551 
" clip-path="url(#p4a340cd8ea)" style="fill: none; stroke-dasharray: 0.74,0.32; stroke-dashoffset: 0; stroke: #b0b0b0; stroke-opacity: 0.7; stroke-width: 0.2"/>
     </g>
     <g id="line2d_16">
      <g>
       <use xlink:href="#m2c00cb2a36" x="48.90125" y="127.771551" style="stroke: #000000; stroke-width: 0.8"/>
      </g>
     </g>
     <g id="text_9">
      <!-- 900 -->
      <g transform="translate(22.81375 131.57077) scale(0.1 -0.1)">
       <defs>
        <path id="DejaVuSans-39" d="M 703 97 
L 703 672 
Q 941 559 1184 500 
Q 1428 441 1663 441 
Q 2288 441 2617 861 
Q 2947 1281 2994 2138 
Q 2813 1869 2534 1725 
Q 2256 1581 1919 1581 
Q 1219 1581 811 2004 
Q 403 2428 403 3163 
Q 403 3881 828 4315 
Q 1253 4750 1959 4750 
Q 2769 4750 3195 4129 
Q 3622 3509 3622 2328 
Q 3622 1225 3098 567 
Q 2575 -91 1691 -91 
Q 1453 -91 1209 -44 
Q 966 3 703 97 
z
M 1959 2075 
Q 2384 2075 2632 2365 
Q 2881 2656 2881 3163 
Q 2881 3666 2632 3958 
Q 2384 4250 1959 4250 
Q 1534 4250 1286 3958 
Q 1038 3666 1038 3163 
Q 1038 2656 1286 2365 
Q 1534 2075 1959 2075 
z
" transform="scale(0.015625)"/>
       </defs>
       <use xlink:href="#DejaVuSans-39"/>
       <use xlink:href="#DejaVuSans-30" x="63.623047"/>
       <use xlink:href="#DejaVuSans-30" x="127.246094"/>
      </g>
     </g>
    </g>
    <g id="ytick_4">
     <g id="line2d_17">
      <path d="M 48.90125 67.425278 
L 327.90125 67.425278 
" clip-path="url(#p4a340cd8ea)" style="fill: none; stroke-dasharray: 0.74,0.32; stroke-dashoffset: 0; stroke: #b0b0b0; stroke-opacity: 0.7; stroke-width: 0.2"/>
     </g>
     <g id="line2d_18">
      <g>
       <use xlink:href="#m2c00cb2a36" x="48.90125" y="67.425278" style="stroke: #000000; stroke-width: 0.8"/>
      </g>
     </g>
     <g id="text_10">
      <!-- 950 -->
      <g transform="translate(22.81375 71.224497) scale(0.1 -0.1)">
       <use xlink:href="#DejaVuSans-39"/>
       <use xlink:href="#DejaVuSans-35" x="63.623047"/>
       <use xlink:href="#DejaVuSans-30" x="127.246094"/>
      </g>
     </g>
    </g>
    <g id="text_11">
     <!-- Solution quality -->
     <g transform="translate(16.318125 192.675) rotate(-90) scale(0.12 -0.12)">
      <defs>
       <path id="DejaVuSans-53" d="M 3425 4513 
L 3425 3897 
Q 3066 4069 2747 4153 
Q 2428 4238 2131 4238 
Q 1616 4238 1336 4038 
Q 1056 3838 1056 3469 
Q 1056 3159 1242 3001 
Q 1428 2844 1947 2747 
L 2328 2669 
Q 3034 2534 3370 2195 
Q 3706 1856 3706 1288 
Q 3706 609 3251 259 
Q 2797 -91 1919 -91 
Q 1588 -91 1214 -16 
Q 841 59 441 206 
L 441 856 
Q 825 641 1194 531 
Q 1563 422 1919 422 
Q 2459 422 2753 634 
Q 3047 847 3047 1241 
Q 3047 1584 2836 1778 
Q 2625 1972 2144 2069 
L 1759 2144 
Q 1053 2284 737 2584 
Q 422 2884 422 3419 
Q 422 4038 858 4394 
Q 1294 4750 2059 4750 
Q 2388 4750 2728 4690 
Q 3069 4631 3425 4513 
z
" transform="scale(0.015625)"/>
       <path id="DejaVuSans-6c" d="M 603 4863 
L 1178 4863 
L 1178 0 
L 603 0 
L 603 4863 
z
" transform="scale(0.015625)"/>
       <path id="DejaVuSans-75" d="M 544 1381 
L 544 3500 
L 1119 3500 
L 1119 1403 
Q 1119 906 1312 657 
Q 1506 409 1894 409 
Q 2359 409 2629 706 
Q 2900 1003 2900 1516 
L 2900 3500 
L 3475 3500 
L 3475 0 
L 2900 0 
L 2900 538 
Q 2691 219 2414 64 
Q 2138 -91 1772 -91 
Q 1169 -91 856 284 
Q 544 659 544 1381 
z
M 1991 3584 
L 1991 3584 
z
" transform="scale(0.015625)"/>
       <path id="DejaVuSans-74" d="M 1172 4494 
L 1172 3500 
L 2356 3500 
L 2356 3053 
L 1172 3053 
L 1172 1153 
Q 1172 725 1289 603 
Q 1406 481 1766 481 
L 2356 481 
L 2356 0 
L 1766 0 
Q 1100 0 847 248 
Q 594 497 594 1153 
L 594 3053 
L 172 3053 
L 172 3500 
L 594 3500 
L 594 4494 
L 1172 4494 
z
" transform="scale(0.015625)"/>
       <path id="DejaVuSans-71" d="M 947 1747 
Q 947 1113 1208 752 
Q 1469 391 1925 391 
Q 2381 391 2643 752 
Q 2906 1113 2906 1747 
Q 2906 2381 2643 2742 
Q 2381 3103 1925 3103 
Q 1469 3103 1208 2742 
Q 947 2381 947 1747 
z
M 2906 525 
Q 2725 213 2448 61 
Q 2172 -91 1784 -91 
Q 1150 -91 751 415 
Q 353 922 353 1747 
Q 353 2572 751 3078 
Q 1150 3584 1784 3584 
Q 2172 3584 2448 3432 
Q 2725 3281 2906 2969 
L 2906 3500 
L 3481 3500 
L 3481 -1331 
L 2906 -1331 
L 2906 525 
z
" transform="scale(0.015625)"/>
       <path id="DejaVuSans-61" d="M 2194 1759 
Q 1497 1759 1228 1600 
Q 959 1441 959 1056 
Q 959 750 1161 570 
Q 1363 391 1709 391 
Q 2188 391 2477 730 
Q 2766 1069 2766 1631 
L 2766 1759 
L 2194 1759 
z
M 3341 1997 
L 3341 0 
L 2766 0 
L 2766 531 
Q 2569 213 2275 61 
Q 1981 -91 1556 -91 
Q 1019 -91 701 211 
Q 384 513 384 1019 
Q 384 1609 779 1909 
Q 1175 2209 1959 2209 
L 2766 2209 
L 2766 2266 
Q 2766 2663 2505 2880 
Q 2244 3097 1772 3097 
Q 1472 3097 1187 3025 
Q 903 2953 641 2809 
L 641 3341 
Q 956 3463 1253 3523 
Q 1550 3584 1831 3584 
Q 2591 3584 2966 3190 
Q 3341 2797 3341 1997 
z
" transform="scale(0.015625)"/>
       <path id="DejaVuSans-79" d="M 2059 -325 
Q 1816 -950 1584 -1140 
Q 1353 -1331 966 -1331 
L 506 -1331 
L 506 -850 
L 844 -850 
Q 1081 -850 1212 -737 
Q 1344 -625 1503 -206 
L 1606 56 
L 191 3500 
L 800 3500 
L 1894 763 
L 2988 3500 
L 3597 3500 
L 2059 -325 
z
" transform="scale(0.015625)"/>
      </defs>
      <use xlink:href="#DejaVuSans-53"/>
      <use xlink:href="#DejaVuSans-6f" x="63.476562"/>
      <use xlink:href="#DejaVuSans-6c" x="124.658203"/>
      <use xlink:href="#DejaVuSans-75" x="152.441406"/>
      <use xlink:href="#DejaVuSans-74" x="215.820312"/>
      <use xlink:href="#DejaVuSans-69" x="255.029297"/>
      <use xlink:href="#DejaVuSans-6f" x="282.8125"/>
      <use xlink:href="#DejaVuSans-6e" x="343.994141"/>
      <use xlink:href="#DejaVuSans-20" x="407.373047"/>
      <use xlink:href="#DejaVuSans-71" x="439.160156"/>
      <use xlink:href="#DejaVuSans-75" x="502.636719"/>
      <use xlink:href="#DejaVuSans-61" x="566.015625"/>
      <use xlink:href="#DejaVuSans-6c" x="627.294922"/>
      <use xlink:href="#DejaVuSans-69" x="655.078125"/>
      <use xlink:href="#DejaVuSans-74" x="682.861328"/>
      <use xlink:href="#DejaVuSans-79" x="722.070312"/>
     </g>
    </g>
   </g>
   <g id="line2d_19">
    <path d="M 61.583068 19.8 
L 61.583068 20.029316 
L 61.583068 62.76896 
L 61.583068 85.313121 
L 61.583068 88.225432 
L 61.583068 90.168582 
L 61.583068 93.002443 
L 61.583068 93.002443 
L 61.688433 94.40489 
L 61.70014 94.40489 
L 65.809365 94.571446 
L 66.183996 149.708628 
L 66.183996 149.940358 
L 66.183996 151.556431 
L 66.183996 151.788161 
L 70.269806 158.823329 
L 70.269806 159.055059 
L 70.269806 160.671132 
L 70.269806 160.902862 
L 70.913702 164.763816 
L 74.765369 165.495213 
L 74.765369 165.726943 
L 121.406831 179.786417 
L 121.793168 202.197816 
L 121.793168 202.197816 
L 121.793168 204.045619 
L 121.793168 204.045619 
L 121.839997 208.13951 
L 122.226334 208.8697 
L 130.807708 210.141799 
L 130.807708 210.141799 
L 130.807708 211.989602 
L 130.807708 211.989602 
L 131.065266 216.082286 
L 131.919891 216.813683 
L 142.421245 256.013415 
L 142.421245 257.861218 
L 142.432952 261.953902 
L 142.514902 261.953902 
L 142.514902 262.685299 
L 150.721645 265.128116 
L 150.721645 266.975919 
L 150.733352 271.068603 
L 150.756767 271.068603 
L 150.756767 271.8 
L 197.515301 271.8 
" clip-path="url(#p4a340cd8ea)" style="fill: none; stroke: #15b01a; stroke-linecap: square"/>
    <defs>
     <path id="ma184a52a8a" d="M 0 2.5 
C 0.663008 2.5 1.29895 2.236584 1.767767 1.767767 
C 2.236584 1.29895 2.5 0.663008 2.5 0 
C 2.5 -0.663008 2.236584 -1.29895 1.767767 -1.767767 
C 1.29895 -2.236584 0.663008 -2.5 0 -2.5 
C -0.663008 -2.5 -1.29895 -2.236584 -1.767767 -1.767767 
C -2.236584 -1.29895 -2.5 -0.663008 -2.5 0 
C -2.5 0.663008 -2.236584 1.29895 -1.767767 1.767767 
C -1.29895 2.236584 -0.663008 2.5 0 2.5 
z
"/>
    </defs>
    <g clip-path="url(#p4a340cd8ea)">
     <use xlink:href="#ma184a52a8a" x="61.583068" y="19.8" style="fill: #15b01a"/>
     <use xlink:href="#ma184a52a8a" x="61.583068" y="20.029316" style="fill: #15b01a"/>
     <use xlink:href="#ma184a52a8a" x="61.583068" y="62.76896" style="fill: #15b01a"/>
     <use xlink:href="#ma184a52a8a" x="61.583068" y="85.313121" style="fill: #15b01a"/>
     <use xlink:href="#ma184a52a8a" x="61.583068" y="88.225432" style="fill: #15b01a"/>
     <use xlink:href="#ma184a52a8a" x="61.583068" y="90.168582" style="fill: #15b01a"/>
     <use xlink:href="#ma184a52a8a" x="61.583068" y="93.002443" style="fill: #15b01a"/>
     <use xlink:href="#ma184a52a8a" x="61.583068" y="93.002443" style="fill: #15b01a"/>
     <use xlink:href="#ma184a52a8a" x="61.688433" y="94.40489" style="fill: #15b01a"/>
     <use xlink:href="#ma184a52a8a" x="61.70014" y="94.40489" style="fill: #15b01a"/>
     <use xlink:href="#ma184a52a8a" x="65.809365" y="94.571446" style="fill: #15b01a"/>
     <use xlink:href="#ma184a52a8a" x="66.183996" y="149.708628" style="fill: #15b01a"/>
     <use xlink:href="#ma184a52a8a" x="66.183996" y="149.940358" style="fill: #15b01a"/>
     <use xlink:href="#ma184a52a8a" x="66.183996" y="151.556431" style="fill: #15b01a"/>
     <use xlink:href="#ma184a52a8a" x="66.183996" y="151.788161" style="fill: #15b01a"/>
     <use xlink:href="#ma184a52a8a" x="70.269806" y="158.823329" style="fill: #15b01a"/>
     <use xlink:href="#ma184a52a8a" x="70.269806" y="159.055059" style="fill: #15b01a"/>
     <use xlink:href="#ma184a52a8a" x="70.269806" y="160.671132" style="fill: #15b01a"/>
     <use xlink:href="#ma184a52a8a" x="70.269806" y="160.902862" style="fill: #15b01a"/>
     <use xlink:href="#ma184a52a8a" x="70.913702" y="164.763816" style="fill: #15b01a"/>
     <use xlink:href="#ma184a52a8a" x="74.765369" y="165.495213" style="fill: #15b01a"/>
     <use xlink:href="#ma184a52a8a" x="74.765369" y="165.726943" style="fill: #15b01a"/>
     <use xlink:href="#ma184a52a8a" x="121.406831" y="179.786417" style="fill: #15b01a"/>
     <use xlink:href="#ma184a52a8a" x="121.793168" y="202.197816" style="fill: #15b01a"/>
     <use xlink:href="#ma184a52a8a" x="121.793168" y="202.197816" style="fill: #15b01a"/>
     <use xlink:href="#ma184a52a8a" x="121.793168" y="204.045619" style="fill: #15b01a"/>
     <use xlink:href="#ma184a52a8a" x="121.793168" y="204.045619" style="fill: #15b01a"/>
     <use xlink:href="#ma184a52a8a" x="121.839997" y="208.13951" style="fill: #15b01a"/>
     <use xlink:href="#ma184a52a8a" x="122.226334" y="208.8697" style="fill: #15b01a"/>
     <use xlink:href="#ma184a52a8a" x="130.807708" y="210.141799" style="fill: #15b01a"/>
     <use xlink:href="#ma184a52a8a" x="130.807708" y="210.141799" style="fill: #15b01a"/>
     <use xlink:href="#ma184a52a8a" x="130.807708" y="211.989602" style="fill: #15b01a"/>
     <use xlink:href="#ma184a52a8a" x="130.807708" y="211.989602" style="fill: #15b01a"/>
     <use xlink:href="#ma184a52a8a" x="131.065266" y="216.082286" style="fill: #15b01a"/>
     <use xlink:href="#ma184a52a8a" x="131.919891" y="216.813683" style="fill: #15b01a"/>
     <use xlink:href="#ma184a52a8a" x="142.421245" y="256.013415" style="fill: #15b01a"/>
     <use xlink:href="#ma184a52a8a" x="142.421245" y="257.861218" style="fill: #15b01a"/>
     <use xlink:href="#ma184a52a8a" x="142.432952" y="261.953902" style="fill: #15b01a"/>
     <use xlink:href="#ma184a52a8a" x="142.514902" y="261.953902" style="fill: #15b01a"/>
     <use xlink:href="#ma184a52a8a" x="142.514902" y="262.685299" style="fill: #15b01a"/>
     <use xlink:href="#ma184a52a8a" x="150.721645" y="265.128116" style="fill: #15b01a"/>
     <use xlink:href="#ma184a52a8a" x="150.721645" y="266.975919" style="fill: #15b01a"/>
     <use xlink:href="#ma184a52a8a" x="150.733352" y="271.068603" style="fill: #15b01a"/>
     <use xlink:href="#ma184a52a8a" x="150.756767" y="271.068603" style="fill: #15b01a"/>
     <use xlink:href="#ma184a52a8a" x="150.756767" y="271.8" style="fill: #15b01a"/>
     <use xlink:href="#ma184a52a8a" x="197.515301" y="271.8" style="fill: #15b01a"/>
    </g>
   </g>
   <g id="line2d_20">
    <path d="M 61.583068 19.8 
L 61.583068 20.029316 
L 61.583068 62.76896 
L 61.583068 85.313121 
L 61.583068 88.225432 
L 61.583068 90.168582 
L 61.583068 93.002443 
L 61.583068 93.002443 
L 61.828919 94.40489 
L 61.828919 94.40489 
L 70.012248 149.708628 
L 70.012248 149.940358 
L 70.012248 151.556431 
L 70.012248 151.788161 
L 71.592719 158.823329 
L 71.592719 159.055059 
L 71.592719 160.671132 
L 71.592719 160.902862 
L 89.013024 164.763816 
L 111.666445 165.495213 
L 111.666445 165.726943 
L 174.370178 179.786417 
L 175.025781 202.197816 
L 175.025781 202.197816 
L 175.025781 204.045619 
L 175.025781 204.045619 
L 175.131145 208.13951 
L 175.739919 208.8697 
L 185.503719 210.141799 
L 185.503719 210.141799 
L 185.503719 211.989602 
L 185.503719 211.989602 
L 185.597377 216.082286 
L 185.972007 216.813683 
L 212.781482 256.013415 
L 212.781482 257.861218 
L 212.781482 261.953902 
L 212.840018 261.953902 
L 212.840018 262.685299 
L 228.445708 265.128116 
L 228.445708 266.975919 
L 228.457415 271.068603 
L 228.504244 271.068603 
L 228.504244 271.8 
L 315.219432 271.8 
" clip-path="url(#p4a340cd8ea)" style="fill: none; stroke: #0343df; stroke-linecap: square"/>
    <defs>
     <path id="md917b4015d" d="M 0 2.5 
C 0.663008 2.5 1.29895 2.236584 1.767767 1.767767 
C 2.236584 1.29895 2.5 0.663008 2.5 0 
C 2.5 -0.663008 2.236584 -1.29895 1.767767 -1.767767 
C 1.29895 -2.236584 0.663008 -2.5 0 -2.5 
C -0.663008 -2.5 -1.29895 -2.236584 -1.767767 -1.767767 
C -2.236584 -1.29895 -2.5 -0.663008 -2.5 0 
C -2.5 0.663008 -2.236584 1.29895 -1.767767 1.767767 
C -1.29895 2.236584 -0.663008 2.5 0 2.5 
z
"/>
    </defs>
    <g clip-path="url(#p4a340cd8ea)">
     <use xlink:href="#md917b4015d" x="61.583068" y="19.8" style="fill: #0343df"/>
     <use xlink:href="#md917b4015d" x="61.583068" y="20.029316" style="fill: #0343df"/>
     <use xlink:href="#md917b4015d" x="61.583068" y="62.76896" style="fill: #0343df"/>
     <use xlink:href="#md917b4015d" x="61.583068" y="85.313121" style="fill: #0343df"/>
     <use xlink:href="#md917b4015d" x="61.583068" y="88.225432" style="fill: #0343df"/>
     <use xlink:href="#md917b4015d" x="61.583068" y="90.168582" style="fill: #0343df"/>
     <use xlink:href="#md917b4015d" x="61.583068" y="93.002443" style="fill: #0343df"/>
     <use xlink:href="#md917b4015d" x="61.583068" y="93.002443" style="fill: #0343df"/>
     <use xlink:href="#md917b4015d" x="61.828919" y="94.40489" style="fill: #0343df"/>
     <use xlink:href="#md917b4015d" x="61.828919" y="94.40489" style="fill: #0343df"/>
     <use xlink:href="#md917b4015d" x="70.012248" y="149.708628" style="fill: #0343df"/>
     <use xlink:href="#md917b4015d" x="70.012248" y="149.940358" style="fill: #0343df"/>
     <use xlink:href="#md917b4015d" x="70.012248" y="151.556431" style="fill: #0343df"/>
     <use xlink:href="#md917b4015d" x="70.012248" y="151.788161" style="fill: #0343df"/>
     <use xlink:href="#md917b4015d" x="71.592719" y="158.823329" style="fill: #0343df"/>
     <use xlink:href="#md917b4015d" x="71.592719" y="159.055059" style="fill: #0343df"/>
     <use xlink:href="#md917b4015d" x="71.592719" y="160.671132" style="fill: #0343df"/>
     <use xlink:href="#md917b4015d" x="71.592719" y="160.902862" style="fill: #0343df"/>
     <use xlink:href="#md917b4015d" x="89.013024" y="164.763816" style="fill: #0343df"/>
     <use xlink:href="#md917b4015d" x="111.666445" y="165.495213" style="fill: #0343df"/>
     <use xlink:href="#md917b4015d" x="111.666445" y="165.726943" style="fill: #0343df"/>
     <use xlink:href="#md917b4015d" x="174.370178" y="179.786417" style="fill: #0343df"/>
     <use xlink:href="#md917b4015d" x="175.025781" y="202.197816" style="fill: #0343df"/>
     <use xlink:href="#md917b4015d" x="175.025781" y="202.197816" style="fill: #0343df"/>
     <use xlink:href="#md917b4015d" x="175.025781" y="204.045619" style="fill: #0343df"/>
     <use xlink:href="#md917b4015d" x="175.025781" y="204.045619" style="fill: #0343df"/>
     <use xlink:href="#md917b4015d" x="175.131145" y="208.13951" style="fill: #0343df"/>
     <use xlink:href="#md917b4015d" x="175.739919" y="208.8697" style="fill: #0343df"/>
     <use xlink:href="#md917b4015d" x="185.503719" y="210.141799" style="fill: #0343df"/>
     <use xlink:href="#md917b4015d" x="185.503719" y="210.141799" style="fill: #0343df"/>
     <use xlink:href="#md917b4015d" x="185.503719" y="211.989602" style="fill: #0343df"/>
     <use xlink:href="#md917b4015d" x="185.503719" y="211.989602" style="fill: #0343df"/>
     <use xlink:href="#md917b4015d" x="185.597377" y="216.082286" style="fill: #0343df"/>
     <use xlink:href="#md917b4015d" x="185.972007" y="216.813683" style="fill: #0343df"/>
     <use xlink:href="#md917b4015d" x="212.781482" y="256.013415" style="fill: #0343df"/>
     <use xlink:href="#md917b4015d" x="212.781482" y="257.861218" style="fill: #0343df"/>
     <use xlink:href="#md917b4015d" x="212.781482" y="261.953902" style="fill: #0343df"/>
     <use xlink:href="#md917b4015d" x="212.840018" y="261.953902" style="fill: #0343df"/>
     <use xlink:href="#md917b4015d" x="212.840018" y="262.685299" style="fill: #0343df"/>
     <use xlink:href="#md917b4015d" x="228.445708" y="265.128116" style="fill: #0343df"/>
     <use xlink:href="#md917b4015d" x="228.445708" y="266.975919" style="fill: #0343df"/>
     <use xlink:href="#md917b4015d" x="228.457415" y="271.068603" style="fill: #0343df"/>
     <use xlink:href="#md917b4015d" x="228.504244" y="271.068603" style="fill: #0343df"/>
     <use xlink:href="#md917b4015d" x="228.504244" y="271.8" style="fill: #0343df"/>
     <use xlink:href="#md917b4015d" x="315.219432" y="271.8" style="fill: #0343df"/>
    </g>
   </g>
   <g id="patch_3">
    <path d="M 48.90125 284.4 
L 48.90125 7.2 
" style="fill: none; stroke: #000000; stroke-width: 0.8; stroke-linejoin: miter; stroke-linecap: square"/>
   </g>
   <g id="patch_4">
    <path d="M 327.90125 284.4 
L 327.90125 7.2 
" style="fill: none; stroke: #000000; stroke-width: 0.8; stroke-linejoin: miter; stroke-linecap: square"/>
   </g>
   <g id="patch_5">
    <path d="M 48.90125 284.4 
L 327.90125 284.4 
" style="fill: none; stroke: #000000; stroke-width: 0.8; stroke-linejoin: miter; stroke-linecap: square"/>
   </g>
   <g id="patch_6">
    <path d="M 48.90125 7.2 
L 327.90125 7.2 
" style="fill: none; stroke: #000000; stroke-width: 0.8; stroke-linejoin: miter; stroke-linecap: square"/>
   </g>
   <g id="legend_1">
    <g id="patch_7">
     <path d="M 153.56375 52.0275 
L 319.50125 52.0275 
Q 321.90125 52.0275 321.90125 49.6275 
L 321.90125 15.6 
Q 321.90125 13.2 319.50125 13.2 
L 153.56375 13.2 
Q 151.16375 13.2 151.16375 15.6 
L 151.16375 49.6275 
Q 151.16375 52.0275 153.56375 52.0275 
z
" style="fill: #ffffff; opacity: 0.8; stroke: #cccccc; stroke-linejoin: miter"/>
    </g>
    <g id="line2d_21">
     <path d="M 155.96375 22.918125 
L 167.96375 22.918125 
L 179.96375 22.918125 
" style="fill: none; stroke: #15b01a; stroke-linecap: square"/>
     <g>
      <use xlink:href="#ma184a52a8a" x="167.96375" y="22.918125" style="fill: #15b01a"/>
     </g>
    </g>
    <g id="text_12">
     <!-- Recycling node: true -->
     <g transform="translate(189.56375 27.118125) scale(0.12 -0.12)">
      <defs>
       <path id="DejaVuSans-52" d="M 2841 2188 
Q 3044 2119 3236 1894 
Q 3428 1669 3622 1275 
L 4263 0 
L 3584 0 
L 2988 1197 
Q 2756 1666 2539 1819 
Q 2322 1972 1947 1972 
L 1259 1972 
L 1259 0 
L 628 0 
L 628 4666 
L 2053 4666 
Q 2853 4666 3247 4331 
Q 3641 3997 3641 3322 
Q 3641 2881 3436 2590 
Q 3231 2300 2841 2188 
z
M 1259 4147 
L 1259 2491 
L 2053 2491 
Q 2509 2491 2742 2702 
Q 2975 2913 2975 3322 
Q 2975 3731 2742 3939 
Q 2509 4147 2053 4147 
L 1259 4147 
z
" transform="scale(0.015625)"/>
       <path id="DejaVuSans-67" d="M 2906 1791 
Q 2906 2416 2648 2759 
Q 2391 3103 1925 3103 
Q 1463 3103 1205 2759 
Q 947 2416 947 1791 
Q 947 1169 1205 825 
Q 1463 481 1925 481 
Q 2391 481 2648 825 
Q 2906 1169 2906 1791 
z
M 3481 434 
Q 3481 -459 3084 -895 
Q 2688 -1331 1869 -1331 
Q 1566 -1331 1297 -1286 
Q 1028 -1241 775 -1147 
L 775 -588 
Q 1028 -725 1275 -790 
Q 1522 -856 1778 -856 
Q 2344 -856 2625 -561 
Q 2906 -266 2906 331 
L 2906 616 
Q 2728 306 2450 153 
Q 2172 0 1784 0 
Q 1141 0 747 490 
Q 353 981 353 1791 
Q 353 2603 747 3093 
Q 1141 3584 1784 3584 
Q 2172 3584 2450 3431 
Q 2728 3278 2906 2969 
L 2906 3500 
L 3481 3500 
L 3481 434 
z
" transform="scale(0.015625)"/>
       <path id="DejaVuSans-3a" d="M 750 794 
L 1409 794 
L 1409 0 
L 750 0 
L 750 794 
z
M 750 3309 
L 1409 3309 
L 1409 2516 
L 750 2516 
L 750 3309 
z
" transform="scale(0.015625)"/>
       <path id="DejaVuSans-72" d="M 2631 2963 
Q 2534 3019 2420 3045 
Q 2306 3072 2169 3072 
Q 1681 3072 1420 2755 
Q 1159 2438 1159 1844 
L 1159 0 
L 581 0 
L 581 3500 
L 1159 3500 
L 1159 2956 
Q 1341 3275 1631 3429 
Q 1922 3584 2338 3584 
Q 2397 3584 2469 3576 
Q 2541 3569 2628 3553 
L 2631 2963 
z
" transform="scale(0.015625)"/>
      </defs>
      <use xlink:href="#DejaVuSans-52"/>
      <use xlink:href="#DejaVuSans-65" x="64.982422"/>
      <use xlink:href="#DejaVuSans-63" x="126.505859"/>
      <use xlink:href="#DejaVuSans-79" x="181.486328"/>
      <use xlink:href="#DejaVuSans-63" x="240.666016"/>
      <use xlink:href="#DejaVuSans-6c" x="295.646484"/>
      <use xlink:href="#DejaVuSans-69" x="323.429688"/>
      <use xlink:href="#DejaVuSans-6e" x="351.212891"/>
      <use xlink:href="#DejaVuSans-67" x="414.591797"/>
      <use xlink:href="#DejaVuSans-20" x="478.068359"/>
      <use xlink:href="#DejaVuSans-6e" x="509.855469"/>
      <use xlink:href="#DejaVuSans-6f" x="573.234375"/>
      <use xlink:href="#DejaVuSans-64" x="634.416016"/>
      <use xlink:href="#DejaVuSans-65" x="697.892578"/>
      <use xlink:href="#DejaVuSans-3a" x="759.416016"/>
      <use xlink:href="#DejaVuSans-20" x="793.107422"/>
      <use xlink:href="#DejaVuSans-74" x="824.894531"/>
      <use xlink:href="#DejaVuSans-72" x="864.103516"/>
      <use xlink:href="#DejaVuSans-75" x="905.216797"/>
      <use xlink:href="#DejaVuSans-65" x="968.595703"/>
     </g>
    </g>
    <g id="line2d_22">
     <path d="M 155.96375 40.531875 
L 167.96375 40.531875 
L 179.96375 40.531875 
" style="fill: none; stroke: #0343df; stroke-linecap: square"/>
     <g>
      <use xlink:href="#md917b4015d" x="167.96375" y="40.531875" style="fill: #0343df"/>
     </g>
    </g>
    <g id="text_13">
     <!-- Recycling node: false -->
     <g transform="translate(189.56375 44.731875) scale(0.12 -0.12)">
      <defs>
       <path id="DejaVuSans-66" d="M 2375 4863 
L 2375 4384 
L 1825 4384 
Q 1516 4384 1395 4259 
Q 1275 4134 1275 3809 
L 1275 3500 
L 2222 3500 
L 2222 3053 
L 1275 3053 
L 1275 0 
L 697 0 
L 697 3053 
L 147 3053 
L 147 3500 
L 697 3500 
L 697 3744 
Q 697 4328 969 4595 
Q 1241 4863 1831 4863 
L 2375 4863 
z
" transform="scale(0.015625)"/>
      </defs>
      <use xlink:href="#DejaVuSans-52"/>
      <use xlink:href="#DejaVuSans-65" x="64.982422"/>
      <use xlink:href="#DejaVuSans-63" x="126.505859"/>
      <use xlink:href="#DejaVuSans-79" x="181.486328"/>
      <use xlink:href="#DejaVuSans-63" x="240.666016"/>
      <use xlink:href="#DejaVuSans-6c" x="295.646484"/>
      <use xlink:href="#DejaVuSans-69" x="323.429688"/>
      <use xlink:href="#DejaVuSans-6e" x="351.212891"/>
      <use xlink:href="#DejaVuSans-67" x="414.591797"/>
      <use xlink:href="#DejaVuSans-20" x="478.068359"/>
      <use xlink:href="#DejaVuSans-6e" x="509.855469"/>
      <use xlink:href="#DejaVuSans-6f" x="573.234375"/>
      <use xlink:href="#DejaVuSans-64" x="634.416016"/>
      <use xlink:href="#DejaVuSans-65" x="697.892578"/>
      <use xlink:href="#DejaVuSans-3a" x="759.416016"/>
      <use xlink:href="#DejaVuSans-20" x="793.107422"/>
      <use xlink:href="#DejaVuSans-66" x="824.894531"/>
      <use xlink:href="#DejaVuSans-61" x="860.099609"/>
      <use xlink:href="#DejaVuSans-6c" x="921.378906"/>
      <use xlink:href="#DejaVuSans-73" x="949.162109"/>
      <use xlink:href="#DejaVuSans-65" x="1001.261719"/>
     </g>
    </g>
   </g>
  </g>
 </g>
 <defs>
  <clipPath id="p4a340cd8ea">
   <rect x="48.90125" y="7.2" width="279" height="277.2"/>
  </clipPath>
 </defs>
</svg>
